<mxfile host="65bd71144e">
    <diagram id="HIP3nbAZw_EuaXWnEj3U" name="Page-1">
        <mxGraphModel dx="980" dy="589" grid="1" gridSize="10" guides="1" tooltips="1" connect="1" arrows="1" fold="1" page="1" pageScale="1" pageWidth="850" pageHeight="1100" math="0" shadow="0">
            <root>
                <mxCell id="0"/>
                <mxCell id="1" parent="0"/>
                <mxCell id="7" value="http://ics2o.mths.ca" style="swimlane;whiteSpace=wrap;html=1;" parent="1" vertex="1">
                    <mxGeometry x="40" y="40" width="760" height="480" as="geometry"/>
                </mxCell>
                <mxCell id="8" value="" style="shape=image;verticalLabelPosition=bottom;labelBackgroundColor=default;verticalAlign=top;aspect=fixed;imageAspect=0;image=data:image/png,iVBORw0KGgoAAAANSUhEUgAAAWgAAAFoCAYAAAB65WHVAAAAAXNSR0IArs4c6QAAIABJREFUeAHsvQdYVGe7LrzPOXvvs8v/n/Offfb5knwlNlBEpAooCgIqKhaKgr0rSFVTTYz5UEFjiy322Chii713saSYmMRo7A3sygA22nqf5/z3O7PGGZiBGURjWVzXutaaNYuZte5533s9637aP/yD9qchoCGgIaAhoCGgIaAhoCGgIaAhoCGgIaAhoCGgIaAhoCGgIaAhoCGgIaAhoCGgIaAhoCGgIaAhoCGgIaAhoCGgIaAhoCGgIaAhoCGgIaAhoCGgIaAhoCGgIaAhoCGgIaAhoCGgIaAhoCGgIaAhoCGgIaAhoCGgIaAhoCGgIaAhoCGgIaAhoCGgIaAhoCGgIaAhoCGgIaAhoCGgIaAhoCGgIaAhoCGgIaAhoCGgIaAhoCGgIaAhoCGgIaAhoCGgIaAhoCGgIaAhoCGgIaAhoCGgIaAhoCGgIaAhoCGgIaAhoCGgIaAhoCGgIaAhoCGgIaAhoCGgIaAhoCGgIaAhoCGgIaAhoCGgIaAhoCGgIaAhoCGgIaAhoCGgIaAhoCGgIaAhoCGgIaAhoCGgIaAhoCGgIaAhoCGgIaAhoCGgIaAhoCGgIaAhoCGgIaAhoCGgIaAhoCGgIaAhoCGgIaAhoCGgIaAhoCGgIaAhoCGgIaAhoCGgIaAhoCGgIaAhoCGgIaAhoCGgIaAhoCGgIaAhoCGgIaAhoCGgIaAhoCGgIaAhoCGgIaAhoCGgIaAhoCGgIaAhoCGgIaAhoCGgIaAhoCGgIaAhoCGgIaAhoCHw8iLAzP+Nmf878+1/Zy74/5gf/h/me39m1r3LXFiPubAB872G+qXIkbmwPnNBXeb8vzLffZv5wf9mzv8fzHn/ysz/xMz/5eW9Wu3MNAQ0BDQEXhIE9IRZ+L8koZYVepWX57dXlIJ+QuS/L8p1k4SiW0RKwRpSdDsVRXdECN1Polx3Wii6C0LRXRGKLlcouutC0d00LDeEossTiu6aUHSXRLnurBC6XxWl4HtSdPtJ0W0Wii5DlOfPEqJgrKLkD1OUgq5cdt9XT/RF/8HM//ySwKOdhoaAhoCGwPNHQG8B332bywo8FKUgQhKwoptLim6rJF09oRYIRVciFB0JRccvcCkTiq5IErvQ/UyKbrtQdPNwjopSEM5lBe7Md97SiPv5jxPtGzQENASeMwJ6q/jeO1ye30JR8oeI8vwZpOh2SGtW0emEoit/geT7rESPc80X5brfSdFtE+UF0xSlYIDe4pak/Y/PGU7t4zUENAQ0BGqOgN46LqynKLpOQhR8Topuo4GMH/wB1vCzErIt/y+EoiuE1EJKwTohdJ9CmtFr4po8UvORpP2nhoCGwDMjwMz/FY/85eWFbYQo+ExaloruqkGesIXgXsdjioWiuyw1bqH7pLy8IIj54Z+A1TMDrn2AhoCGgIZAVQhAf2UuclQUXV+h5C81OOoev0JSxYu+KTwSQvebUAqWwOkJ7DQNu6oRpr2nIaAhYBcCeuki31kIXRwp+esN0RFKjUhZFDCZLEIU2ESYRIXMWLjo6WLYh8+r0bkoOrNzkZ/zDJ9lwzkAszxSdBuE0MVzqc4F2Nr1Y2gHawhoCGgIMPM/Mhc5IPxMasmK7pZQdNBcbSdDELFKqqKAlbJ7XPL4Jj0uyuVHBVf5cdE1Lnl0g5TSe8yiQE+8VGgkTRAy/v/Jo1t0+/rvdP7kUfHLsZ3ix0Nb6Ocj28SZn/ZT3oUfqfDeRSorvmMkcGuEbTwXLmJSdFxafJseF+XxQ90VeqC7Qjif0ic3WZTff/pZVGj79dqDjYxQKbhtkEKG62O3WXM0alNPQ0BDwDoCzA/+EyFlQtGtMMQQ20fKsEolKRdKMs67+BMd3bVWZM2fKqaOeU+Mjh0okvr2oLie3Ti+VxS9N7ifmPBBklgyI03s25wlLv/+LYEwnzy8Tud+P04LZn1Jg6J7UseWAeTv6knNGzel5k4u5OfclILcPalzq5Y0KLwL/X3EcLFq0Uxx8vs9VJR/mUjo9CRrOJfy0rt8O+805ezZTIvmzKDPPxglkgb2F0OjutHgyDARExUhRg7oRSnJMWJu6qdiY/pcceLINrqTd4rKS+7Kmweuy64blO2EDYwRs52lKPlRhlA+LYnG+jDV3tEQeHMQkOFwZQVu/7/c8HdDLDJikO0mI5XA8q6cpG8yFor3hw4UnVq2pGaOjcn5r/W54dt12fGtuuxgttSR+xq9U4/d6jWktt4+IG8R36cn+Xv4UMO367HDW3XY8e263PCdemaL4zv12FG+X1e+7/zXBtzSxY2GdAsXy2ZNEmdOHKArZ76jQ1uzxdQx74vwoCByrdeI8FkN/lRHfi4+2/R88J7Tn+tx0zqO7OfsSt3aBNOYpDixadUykXfllIzLNsosBmvfVpnGRkxLhdCdFOW6NC67761JIG/OPNSuVEPADAFm3f9UFF0XWG5Cyb9jI4FYJG7IEddzz/CXEydQiJ8/gSz1xGog1T/X54ZY3qm8NPpzfcaC90C4IEmQJghZfQ9k7AAytrDgf/C/+s8Aodflxn+pz4EeXhTi4ytvELgBSJI3+S58vkryWOtvAIbPkeejnksdxvW0beFPk8el0OH928SpEzki98JPpLtzniDTCCWfmfU6uTWJBfjivadauqqrG7R1WOjmGvh9UvK/0VvVD/632Y+nvdAQ0BB4PRFgvveOEPkxiqI7JBTdk2chZhCOUp7P+3ZtovCQjtI6BRGaEisI1Pkv9dmjTgNq3sCRWjVsSAFOjQTW3vUdqMlf6xuJVyVa/L8jCPud+uxax4HberpSv47+YnhksEjo3oaxxEYGi/6hrUUnPx/ycmxM0pp+25zU9eStJ19sY3H6iwN71Heilk2aUhsPdxHi5S7aeLgJ/6au5NmgMTn9pYE8H5C2eh3yfPAE8HZdblq3Efk2dqV2Ps2pV8f29OHQ/mL+pLFi78YMAYv9yYM8YtITsVDgwNRvQ/eG1n3+5BE6uCVbrFkyW6z4agpnL5pJezatFBdOf0fFj28RLPQKv0kpUtSFKBipry2i1RB5PWemdlVvLAIoDITiQULoRstHaEVXsygME+kDluCjBzd4/sxp1MzJTVrMIDJYyrB0G8PqdHehz3u1Ems+6SgOTosUJxb0EKeX9qazy/rQqSW9xA9zo2lbWriYPixI9GnlCsKWpNjkbw04xKURjQ51o2+SW9GlzD70cG8CPdmfSMUHExkLtov2JNDNLXH0w5IBNGdEB+rWyoOc/wbrXU/GOA+QvKdDYwpv1Zw+6ddRpH/eQxyeP1CczR5GuRtixc3NseL6xlhxfnUMHV4wUCwdEyVGRLUVbTw9qMm7jnqyNrHS5TWq8orB2oeF7lG/EbX3bU4jBvQR2YtmiIunjlLpk1uM5cyJg7R4eqoY0i2cYNm712tEsPIhpzj9uT4kFWrt3oySBg0U+3dupBKD07MCUQtRnn9eyh+c76zFVr+x01m78NcFAT0xFzmK8vxxhsJCz1zfQo2GyLv2O32cnEyN/+pglCNAiG51HXloqC+tT4ugvPVDqPxQAvPRJOvLsWSmo0mcv2EA7f0kkOb386asGF/6/jN/vjAxkC9OCuTc2R35yY4hTEeSWBxOlAsdTmQ6ol/Uz7+/PYY3ToyguK4tKMSzKUW39qapCZ3FwbkDxc3N8VRyMInUY/loIrP6/0cSWb4+miS/48n+JLq4Npa+mdhLfNi7nejo40UeDZykdQ3CV6UWKY2YyCbSin+rrl4SaeZDY5NjxbhR8SLYy5tAxpBf9HKKXkoxs9Ah4/ypDrs3cOZPRo2kyxd/JdwEK5C0+jpPlOfP5LICN1T5e13Gq3YdGgJvBAIGi7mBKM8fj8y2Z021VnVTyBnXc3+nlSsWU1jbDtKJp1rNkCeiW3vSrulR9HhvHPMxPdmphGpcH3m6XzmUwKV7Y+nBxv506+twujylDV/6IlAuFyYF8vmJhiWtNV+d2Z4ebR1E4oieoI2fZyBsvAZhg4BLDsTz7c3DuHDXcBJH9DcHvGfpfyztA/mDvPFZpQeT+PrG4XR0wQCxaly0mDkiTIzu10H0a+9PwR4e5Fq3EUk5Bla2gayBiV5Sqat3jhrkEvXposFb9YTDW/UKHd6qd8PhrXq3G7xVrxikDwylNv5WXe4U2JZ2bf2GysvzpXZthahvoiIfl+pcNYv6jZja2kW+6gig/jHqQjyrxSwdWlzEZSX3+PKFX2jDmkwaPXIEhfi1Jqe/NpB6rP5xvz5DkkgZGEi3twwzELNlMiw/GA9LmArX9aE7K7rR9fmd6fKXIXRhUhCfT2v9lJBVYjZdpwXy5entuHBdX1JyErgqolbJ2h5StkTU6j6V+EHYsOJLDyVRwe5EurB2OO2c0U+kxXYW4a18QNaSmE0dnKqVDAJ2r+fIPQK9aGJMm9wtk7vt/OHrvtk5c3uuWvxR6MFhob5FnvUbSutcEvxbddmrUVOe++UUevjghnQuWiFpWNU3RLluKvO9Rlqd61d9Bmvn/1oiwFz0H8j2M2jMdscvq5NfJeaHRdd5386N9F5cHAV4NZeaMh7BTZ2AIJ2mdRx4VnJ7erI/ntlEglDJTTkYx+V7h1HJlv50Y0FnujiljSTic2mtGcv5NBNL2ZSQLW2nBfKFL4L51pIIKtk9jNTveKHrnARWDgwnZV8MiX0xxAeHU/nBBLq9JY62TusrErq1Fb5OLqQSM6xi6OLDuzSnQ3N6UNHu4URHkwQfNZFbjiUpxfvjxYHZPahv22byf1VrGhLSxyOS6fbN89WRNIj6Em7OzPf/8loOcu2iNAReNQSYr/wLkksMURnPVMITUsaTx7d5z/YNNLhnb3Kt11jqonhcV61lqb++VU/qrGF+7rRuQjhBUjBaqyCwfTFUtmMglWzsTcVro+hJdiQ/ygija9PbSmsZ8oV+CWJpPZvKGZaIucK+c6mt+fbSyBdO0MqheC7d1JeKV3eX14TrKl7VTV5j2cbepOwYSAWbh4ntU/uLsJbNCVh5NmjIiz4MpYdG2cfy0wVuMrDQoaNPT2hHHvUbSr1aWtNv1+NBPXvRxXMnLEV5qLq0uhZC6H5WlIJB6CDzqo1n7Xw1BF4LBGQ1ubJCL30cs+6RagHXZA2rGcvpX7+lUXFx5FbfWUZlqI/qej21Hns1aMjhLd1pbP9A2jalG93ZOkw6+KQFm5PAZTsHUck3PenJqm78ZGVEpeVhRhgVLutCuiWdGUvB0i6EJf/rznR7Xge6PCW4apnDQNSwvGFFv1DL+XAil27tT5auy3RfcXYkl6yJoq9ig4VbXQda9kknUgz6uC3nCwmlPCdROjtbNWksJROQNByMESGh9PPxnKqchypJY12KCoP6inpaGvlrMem1i3g1EEA6MFo1Se3RJPStJuQMq/nxo1ucsWQBBTbzMydmg3Ors68bzR7Rnn5a0od0O2Kls03vBHxqDYKcJVFlhVciZlMCk9vZEfwEi0rihu2iFV0pd0Y7MjoHK1jOxv2TArnwm77SAWgL6dXGMXgqKF5t+cZjvA7D9RRnR/CV+Z1p3+SuwuzpwsShWdU5wXmKyJaDc3pQkFsTGeOtJ+k63ME/iH76/qCtJA2izkezBPRtfDVGt3aWGgKvKAIoVYnsP0XRHbO7eJEFIgc538g7Qx+PGEFN3m1o1JcRbQCrOditCS94vyPd3DRUEobeSfaUlE1JBgRWsqE3FVuxniuSmLXXDzPCOG9miFWShvUM52L5gTibozJMz7NG2zkJjGuzds6W9pdu6EWcE2/3OepW96LcuZ0of2UPUg7Gc87cntS6qbOJJV2HEUFz4ewJe0iaUPYUZWLRNPcVHf7aaWsIvLwIwAISim6uoW+e6aNsjbZBzqdPfke9w7vJDECjnPFOPXZ514E/6OFP51YOIDxym8YfV0lwUn+OpbIdg6h0c18pd0i9VrWUbVzrSbqdRbkjd3YHKt45tMpwuyrP0ZoVi8gQLBXeh5MT12KJhK3tK17dnZV9sXZLMGX7hvOVGe0ZGjueFm4u6krKgThG6KJvw0ZGTRpp9MP69qP8e1eYyK5yq8gcTWe+3/jlHenamWkIvEII6K3m/GhDdEaNyLii9AFyPv7tfkKsLSY7Hp/lI/Tb9TjAxZmzU7rqozKOPk0MqUhcNr02RDyU7xosHYbWtGlLRAeSvj4LIXiBfH5SIF+eEkx3F3Wm0p1Dao+cD8Vz+Z5hVLqlH5Ws7ylvKLCUSzf3o9Kt/QWIuXhttF3kjGuBc9QmfCrcDMr2D5fx3qaRLbeXRhCck5ljuxAiZhDdof5ek1I+p9KSe1XFSVsbLxeE0A2/+OuuPy18v9d/8j/8g1Y97xXiBO1UXxIE0N9OdpZWns0JaErQIOfvj+6ldn6tzcgZkkZkKw86vriPwWq2LGXUhHjk/+QkcvneGD1RZ0c+1Z+rsKofZYaz7uvOlP91J3q4MpLKdw+pEfGZnjPITiXl4nXR+miMKs7B0s2jun0gfNPvtGf7zvJuZBYTPimI87N7UsnBBE4b1sYkfK8eu9ZvzKszlhIcvKa/sY3bpSVP7hzKWb9wV0Zq8nuLPx361ksy7LXT0BB4uRFA+q6i6EKFyP/Rxslm0wRFxbVffjxMHVoFmZPzO/V4cEdfurx2MPGxZEb2nT2kYtexOQkMi1qSoy3EmB3BsG5l3HEFi9Ou7z2cyCDnkvW9ngspm5I2vsOiXLI/lsq2D8SNRlg89yOJjPhuZE2aWtGXprThx1sGUv6OWB7c0UeG78GKRky6n2sz3r9rsy3hd5XHiChgNC04sW+tsmb6x8dXjIsbkJmSpIXmvdz0oJ3dH4kAc+H/krWZ4X234Nir6T5Yzpcv/EqRHTpVIuf4sBZ0/ZtB9GTrICpY05sebx9cYwvQIvFYIFZou2XbBuglBEsWNcLV1vWQerY4ZL+zzdp5gCARv2xKqDZv6+OeuVqpJjtSXptyKJ7EoQTCk4OUS1Z1Y9yYlP1V69P307sJMys6rTVfm92RyvfF8unM/tTWw8UY2QGSDvT2k2nhSrm+pKk9YwTWN1L4r535lrcuSitJH5+wM2NCfIfts5O0dlx/JBFo3/3yIYA+dbINUi1UmzOdpJiEuvyrPHzAQEI8raphQtaI6dycrmb2kVl+SBqBg+rqrA4Eh5U1kjPut+BUM75ngZQtvSczDXcPJZB16ZZ+Aou0MvcOo9okZtPvLt89VB+vbRrqV4U1X7ymuyRY/J+yP1Y6ACG3qKRrjeChX+MmIwk9K1wl56pxPZLIhdnRlaNY0gL55uIwicmuL6PIt9FTpyFIGhUF58+cbktaeGVL2tAJp+j+JT68YTFnThxRlDEhcXnW+GSvlJQUrSP5y0cV2hm9SAT0kkZBpCjXnTUl1trYBjmXl+Xz9LQJRv1SdQj2btOMzi3tSddmhMioAdTFQAjb/axogsPKlNQqbpftHCxJrnzXEBI5taxX20juFc/JrtfQouG8RGjgGkNmoErSIO5V3fQW/PaBhNRua58tdXUk56j/W3FtiAvH9ygHqsZUfkdOAutWRAhjzHeFWPC76d1lLRJUC/Rx1Nf+wO+JKBykhb8XF0+5V0/JNl32jh+MldLiO3zq2FZeM/1jTh+feDMzNXlyxqR4B2bNkfgiOUH7rpcEAeZ7/68QBZ8JRVdg74Sq7njIGnh8XZO1jDwcXeQk1muX9biDtyv/vLAH5c3uQLCYi9b3I1SWQ5JEdYWIEEanWoWQCxD1AH3XGom91PtlpEmclCFgIZfvHsLSUkatDRuvCddeuqX/0xjwrKdJOLCigZcArjbceJS9w+je4k7CVIM2JWs85dzP6iFJesvkbuTfpLGxwJL+t63L3UO70I/fHZBx0sYWXbIjur4pb5XjxuBwzDv/PW1eOIHTJyRQRmrSxcy05DHZqfF/e0mmjXYaGgLPHwFDlEamUHTPVEOj4oRTu3Jcufgro02TV8OmRnJGmJZXPQfekhJKtxZ1pQtfBPGjLYNQwKdaYoYFiAgFSxpuyYZeBLnCFhJ6XY+RWjNC9jb2lqF7eLqwBxO9E7OnTIe/9mVbujg5yGIsOH6ze5lR0hF5bEEvCvdzl5q0Wu4UoZNB3i1pbdZy+vbwHjq4d6tcnzn1A927c4nLy+7rG+FWEf2But8Fd87Rvuw5IGjOSE3C+mT6hMQhmiPx+XOD9g1/MAJoCqoouiMVyfVZXoOYS0vu8okfDlHa2M+ojW8rwqOvmoQCCwvLuHAPQlU4xBdjQelP1XpWDsZJJxYq0IFgoAfLOGEpBURZf5RfGSETOixFL7yuhPws14XiUhUTgOTNzyCRPM4K56LlXenO/I50ZVqbypr0pCC+tSRcOg6vfjOEkFiEsq/wK+A3RsNdZIciFM+lTiN2q9+YfZt4yDrT7yck0Ka1WXT39kVZIQ/ShqVxh/1PHl7n77dnUNbEkZw+IRFEXZqRmrgtK3VEwJo1UVqzgD+YR7Svr2UEUK9XUQq6Guo1W5wYliZLVfswkSBl4LH2g4QE8m7sbmjaqncIwmpGZTVM3qEBLvTz3wNktxLTR2dZEH9VlCheE4VHdYtWslWdVdVdV3XjckgDNjzKv+nHPNgZQ7qtQ2XHGWABnVtq4SqWJmsk7dz8qr0+acdUk04LlA7dB+v70cNdsbQyJYyC3V1kGJ5qTas3ZUnahua56Gru/DcHRh9JxFFXVW8aY6us9C6fOrqFVk39QCVpEPW9jAlJX2SmJP21lqeI9nEaAn8MAsz8T8jgEorublWEa897sJqR8jvji4nU3MXTrNgRLGeQsm8jJ+4V6ElpPX3F8bEBlSY6HplBAEgMqZaETYjD0rGwuN908q3q+mE139kwiBb09aVp4e50ZHJXiReeWJ5kR1p9QnmcFSF/I9ObqtxGjexJQZw3txMVru1N307vKvq1bELudR1kv0N1DKBPYwNDr0aVtCGFOL/ryCNjh9PVSyerqDett7Av/XqQ1s38lAyWtF72SEv6MX1CUuSalJR//mNmlfatGgK1gADz7X83xDfXrDSooSSo7AlIhXoNkQr55ImjsnazaiHJtaFxq38TZ54U04ZOruhHuk2D6MaCLpXIGY/PyNazRLY12fcsWXRVEduLfE9ff+T5RKZA2ijYNozWjQqiqWHuvPWTEFIMWZZVETR+C1T7s6ZLq3HTlyYH88lxrXnryJaUnhggliQFiQWJwWLSkEAlKcKPOvm4Emqt4InKlKijO4fRud9/ZCQzWTMQYE3fuHCcNs5LofQJCSBodXmYmZo8P31ColYxrxa4QvuIF4yATD5RdHNQo9fa4Le0HxMCFjLWJY9ukO72Obpx6QRd+O0onfh2r7J0/hwK8m4prWZ1ssFiRs0GaJKnMwfIqm+Fa3rTlRmVK8TBEfVgRVglcka5zJqQM/4HNZOfB5nCiVlRs30e34PPvLSsF11eXrN6GracE0i67GAC67YO5Sd79Y5VFEWyJnGovwVqZ+Npp5IVbSp7GLZRW/vu0ggq3jqIKCdeNgNAA9+7W4fxjmndaXAHH3L+awNjbQ9Y073CIvWWNBdVQdKFfDfvN9r29cSKJA2y/iUzNTli4cKYf3rBU0z7Og2BmiEgazcrugx7yoPCSsYCJ87eHRvoywmfi5ED+4q+nTqKrv7+FOThRV6OTcjJkO6rkjOsomC3JrQuNZyK98Xx480DCI++6qOw6cS+NCWY4IRSJ7/p+s6CUDqbFkS35na0+L7psRW3ZVx0LWvQJfvjeX9aF/p1QfRzIX9TUgWJnZzTTZxdGC0tW9P3anu74g0H4YoV8TR9fXtuh8rOQgvkDGtabSkGZ3DevE4yjBK9HPGdqOVdtHs4Lx3diVo4ORkdi0h46d89Gpa0rO+hGgcVjQeMTRgLu1ZMM5U7VGu6KCM1afqylPi3azZjtP/SEHhBCDDn/42U/PW2dtWGpYzlysWT/NX0KdS1TXuCBx7WjVzerivrLzhaiMzAvj5tmkk5o3xfLN1ZFkkXJwdbbcZ6e55l8r0xpwMdHeXLB+Kb8enxraskDFPywDYcjPaEldlCeKhBfSWrHyX7NuSp3ZvJG48t//esxxhbeD3DzUaN1LD1s5QDcVTyTQ/LmGdFcO7MdiT7OFoiZcM+6NG5c0JlU957mdH6bunT20mdWia5GOKx5TkdSeT9s6OpjbuLGUm3bRFAE8Z8QkcO7tQ7EA1PcaZETaKQkXm4N2umJZKmjAlJOStSk1tpCS4viGy0r7EPAdRvJkW33XRQV7WNpBLd/av89dxZ1K5FgJwwjiZp2bCSHd/RF9KHjGG6NP5LfR7VvRUK61PxjsGEug3WEh1gRUOnhJ5ZkWAfrAjj4x/70cEEbz6U6M2XprYle+SOsm1VyxsqUYF0bSVQHHt2WW/6qLUzbf2swyuRtYjrhK5cuH0Y3904GBEWT3s2VkP4iOYo3dTHYhTN/UWdKG9mO7o1t4NcTFuEQZtGeVbdsq6ibG+MkAWvDEWvSvbEMKrk4YaNRgCm2APfbxf0qkTSMAjcHZrwoB69aMv6bHpQeF3KbaZjGMbEw4KrtH/VHEskzRlpSTfSJyQnLEyJ+Tf7Zo92tIbAc0SAubA+KQV7TAdzVdt4ZPz5xxwaGN2TnP6CWFbzehmQLpq+24CDmzhRLz9XkRDiJUZH+IrUPq1obmJbsWVSpCjYGUuPNvany9PbmZertGBtwRJDVIApQYOI7y3qxIeTffhgQjP+7oMWpFvShcxaU1URwYHmsNBRTSe/6XbpgXjeO6EzLYsJoB9mdaOyg7ZnHkKnvb5mIEHqMP3Ml3Eb5Px4z3De/XkHmtndi6Z0daN5vX3ol7lI0bbR8YiKf6hTvalP5dA7k5ZikKhuzG5Pt77qIJNbEDuNEEllf4XUdHnDSGBY1JemteVHWweZtQsDSaOjuF9jJ0a0hxqihwgQELVLnYY8uFcfOnJgByHJBcSsjmdsPyq8xgdWz7UTD7pzAAAgAElEQVRM0qlJJRmpSYu1cLznSDjaR9uOgF3kLOOXdbxl/Sr0AzSrMgdSRuJBREsPmhrXjvbPjKIrqwZQ/pah9Gh3LJXuj2doiuJQPJXsGEJ3lkYYJI3Aap1ISH4wJWcpT2RHcOHyrnwyJYB+HtPKbv25fOcgWUfaEmmCtHRbh9HYkKY0yLkuJ/s2pDNLe5O9lrSlz1b3QVsF6RfvjZOxxXhdaYGj8Tk7G/GdCJ37PLgxjw1y4rFBjfmzQCf+oosbX8vuZx2jo0nSkQdMJC4G6xcWNXR9pJIjW7N4XQ+SseqruzM6t6BjDV6XrIuWtVFA6pBKJC5HzG8I5QfjGe208uZ1Jmyr2KnHbvkiksJauJNbPUfjE5rRv/FWHVmQafL4FGOCix0kDX36cPr4Eb62zyTtSA2BWkaAuaAOKQW71YFb3bq8PJ9XLl9MzZxcjVaz2jGjR6AXbZoUSfnbY4yOHRBd2b5YerxtMBWu60N4bM39KrRKrdnUMYhtaJSIBlAJunhlBD9C1tqKMH4MCzkrgh9nhrM90gZSv3VretPDnTGEczSb+IZHetxMfpkfTfMH+NHiIa3o1nrrhG7p/6vaB8feuSU9aceHbWhDQgDtHt2OTs/tTvfWDRCFGwcK3bp+4nZWL8pb0YPyMnpRwZZnL/xv7XxgJa9ODiSQMkhaXfA6Z1IXqzelqyv7057xncT+iV3oUkZfwhMHyN7se2CBH4pnme15IA7JLYynFryWdUNMqwvmJHDxrmFUhqca/CaGG5ZuVS/paERZ2Yo1V/Db3d8Ww98u7EVzR3WgMD93kv0pDV1cYFFj6dctik7+fNSsJ6K0pAuuMlLDTeKkVcehXGemJl1JT0vueSAl5R9reeppH6chUDUCzPf+TIpuS3WkbHxfFDBqJXg2hINGL2lAV/Zq0JBnJobQvW0x0ttuSngoZHRrSYQx1Eo6jNL0/esqErG114h7fpQRLgka5Kxb1pUPftSa1se0oAMftqaLMzpQ4fIwSdqqDAKyNl8iuRj1mrMjuSg9jE+Mb0OrBvlKcryxqr9Vkob1ivCyMnSttkLkZoRUjV6rHvvd9HCa1sWNFkR60OIoT17U3ZO/jvbizH4+tGawr1g90Icy+3rTil7NaFnPZrxqiB+dnB1pl8yifld1a5Dq3nGhZgQNKxpE/dPsyEoEjeNzVw+glI5uNMy1PmMZ5deIvx7qT3lr0BPS8g2vuvPA+7rVvQkOQxRXerJjiCyEVbShnyToK1+GsL63o/lNAN8HC54OxNL1Nf1pVkyACGriJP0fptZ0uxYBhEYBFeWOh7ortCfTouNQJevCjNSkT9OnfvDvVc8o7V0NgVpCgPnBfwpFt8pIvtUU2kcywKG926hFUy8zckY/wK2Tu5FyuHKdBjkhjySxagFZI+Aq96Om8Jz2enJG9+3sSD7wUWv6srMbTenoStM6udLcCA/KGugjNsf70a6R/rTvgwDKGR1Ixz4LouMpwXRifFvx8wT98uO4NrQ9qSUt6eHFi6O8JDF+E+dPhVuH1ioBWyMjkBuccF9GetCMLq60JNpLEjPIWV1wXnIx2+fJS3s245+mh8uqcNY+vyb7QXD5W4ZyRmwrGh/SRBJzagcXXv9+MKSpSrjgeCSunF7ck3amhNKkcE+K82zAQ1zqcWpnd7q3eYhVWaS680Pn8+sLusjID3RlwdMWFjlG0gLleygrKy11WOsGix21rqFll6zuxiWrIvm3GR1pZGcvs7hpOLBbunnT9k1rKpF00b2LvHP5VEtx0ipJo57HwvSU4X+qpSmofYyGgGUEmPP/h1AKFtsaSodojauXfyOE0MEBI6MzDM1a4ajBZCnZNayyRpiTwA/W99U7AQ1SxcUvghjxzPDmo6nqpclBTzMF0wJZRnIY1ufSEL0RxEXp4VSGZJIDw+niom5iTGBjivN04DiPBgxiSPBy4MRmDjTKtyHNDnPXE2+Up57kVLKrsFbJEGuQ4el53StZitWRSU3eh6X37bQwqfdOaNeEZoW5Eb7f9HysbeO4FX19+FqGvgdjTb7f2v+AdOEovLC8t3QOXsnqKx2c2G/pf7Bf1Z6LdsTw4SlhND3Km6ZENqP7m4fWmKAhYUDmuDKjvT48D09bGA8mjuMbC7vS422DRMnOoaJ052BZGAvatiqBYQ2S1q0I43nDWpJnPQejNY0nP7Tc2r1tfQW5A3HSZ2nrYovJLCpJozre5uUTkhpYnlnaXg2BZ0SA+cq/iHLdFHvKhaLa3GcfvE9qCB0052YODXnblG6yfCTCoNR6v8bJjHrDm/tSwdIu4t7CUMr/ujO2ZaLJg/QwepQVSY9XR4lHq6NFUVY3kb8sTNxeEErXZ7en3BntBBbENxet7C7rHuNzkayw8++hHONWn4d7NKi0xLo34JRgZ7JGcNb2L+7uCctUOuOM52+jVGHv8XAKZgz3p5HNG1FycyfCzeaLDi7yKcDa+Znux7lufz+YSvZbjz6x95zU401JVzr9bMRA/T9ErhRuj7E98sPa5x9J4sJ1fQm+BzNyNiHqi5OD6dLUNrJqHkL1CpZUTv2HxAUfxcqRralZA0djBiJIGi230CXeNE1cJlrlnqSNc5EWLqvgqcRsts6ckHQsIy3B8xmnovbvGgLmCKALihC6j4SiK7Zd2ihi1OY1LZ7v9Jf6/NXIDlS2P45vL42gK1+GEKweowMnJ0EWxDdaNEjDNknFhrWDQjuyzCecRFhQMnRfrOyCjWLxWBC2ZVoKFKSBsLdYd8sEDdIe6eNI8yI97CJpaMAn53R77hY0zv9yZj/6KNCVBrs58RB3J45v5kSftG5M49o689ROTWl+N89qz31ZL2++kt5HXw/bGsn9QfutWdzqTcDWtXIwnu8uDZcEfGlKMF+Z2kbGU9+e14EQW40b/t0FHQnhl0glx5MZ9hvHnCG8Ej4L7Fue6E+udRyMJI0nwW4dO1Pu1dNmBZeQzHL9wg8VCyyZETTqeWSmJp1Kn5jU2nyGaa80BJ4BAUUpGCAUXZGt5AxnyuNHNzm23wCjtIFQuoHtfSh/2zACOcPpd2NhF7NkjLLtAywmLaiTp+SbnnpStkYi0oNf+dEaBHdqcU9K8nGsZD2rFjUkj8kdmkqN2dTyrGob2u7lFfaF0NlKNOpxOPe8NQMpNdzHSM4gaCzDvZzo44DGUvYY386Zv+ziSgsNTkNL5w0ret+YEGPZT/U7Xre1TIDZPoiKN/VFqJ4oXhUpk5BktI7hpg+nMJ7Mrk5vI4sy6SxZ0isj+GFmOE/q09yshRos6U9GjaTiJ7crxUmjCl6FUqWVSDojNelyRlpSp2eYktq/agjoESgvz+8gFN1NW8kZx6GuwdFDO8nDoYkMVZKdTRo05Jy5Pakgu4fBcaPv3ozi+QJdr7f2r5KcQdIyQaQGnUxgnT3YGcOTwjzJmsyhWtFwHkKzhTPQEsmp+3DMykEtSPcMjq3qiBEaff7WYTS5e3Ma5NpIkrJKzuo6xtOJ3/NrTGr0xKQOLqRGdqjnalxHeXFGf1++s25gzbVeazfHl2Q/fmvg9mTPcEYRqJ+ndFJ+n9qebi/qLEvMqhE6iMpBdM6DFV0JVvbV6W0R8WOmR8sxlx3Bt77uyv1bu8na0/CjIPyuaT0n3rRupZnUoc6RU8e2UtakkZaI2WRf4vWM1MRuWnq4xrQ1RoDLCjxEue53deDZs04Z/ZGZ9Yz07MJNA+nS1Lbmjpt5nejJ6u6VHjFVq9lsnR0pe+hVR2yW3oclemRqOCU0c7BqRYOk4Tj8JKAxTe9ctRMOJLj747aEUDpL31cb+8pzEnjlyHY02M0yOaskjfXI5k401hCLPKOLm1W5A7LM0dROZinQtXGuL8NngJgf746VstOGxADCEw6uFzfblQN8eOeIVvTd2GD6eUJbOjetPd1aqCdtlKC9+EUQFSx7GjNvOu5KV0XykdQQ8nVsaCJ11OWIkI50++Y5s8gOzJHy0nv8w84stX2WCSkbS5aq+24jVloj6RpT1Jv7j8z5fyVFd8AeUsaxkDfu3DhLnQKCCY+CCP53fbcB7ZwUJu4u00sbpp51bN9fXFkDNJ0gptvPUuITDrL0+NZVatEgaTgN470c+PMgZ6uSASb/hSU9n5ueixvKhYx+lNyyKau6sykhV9we6uHEH/vr5Y6J7V2sRnjA8s8c4Ms3V/d/buf+R5A1LOf8TYNp66ggeXMCMePJYVGUJ38V4UHzIz3MonNA2ogdR3jllVkd6d6i0CqbOMBpmNrLl1AjRo2RbvyXBrxq6VyBaCXTeYI5UPzoBh9cM69Kp6GhxvSdzLTE3hpJv7lca/eVy+7bSv5y00Fn67aUN/ZuFB4NGhOkDQzoMHcn+nViO3F5ahsz69kYozo7xDYL+hlrMMPCQmjXstgAaUnDaaiG3MVaiO4AWU/uWFmXlhERHwRTyb7aj4hQyY0OJ3L2qBCr0kZFgsbrZF8nqUePa+tMC6pwGoK8towMQjZkpVhl9ftftTWyEZFVaSrvzA5zp49bOVFSM0ca1byhjH03yj0IkzQQeGY/Hz4ztX2VxbJKsiP495mhFNjEyUjSDm/V5dge3cWD/MuVrGiQdNH9S7RtyaSqYqRVS/pOZmpiD7snqvYPbx4C+oiNgs/sCaczJW8SOv56+gTh9OenXSzGhLqLMxNaE5aK1jNeS/3PhhZUxau7sfKMfQClPrl3OP8yL5r2TujMS/o1p2mhrjSmdWOK9zSXP0Daqe1czByHILesQc31FmjF9ORa0mFhDaIq3Pgu3nYRNJyGnwU15r+3acxzwt2tyhwgKVzHtxM7P3toWy1d87PcEPCb6rYMoayBzY1PDnMjPPi95g0JT0PqU1GytyPP6upeKclH+hMG+FDe3NAqSRqRHWm9fWVXcVWLbu3mQSe/3UmKUsAlJffNLWkq5NtXf6FvZo2xxZK+hQYAbx7jaFdsFwKKkh8lFF2BKenaug2r4cmDXHpvUB+hyhvudRpQxmBfcTrFn376pKVFgr48tQ09zKjc7cRU2sC2aYspSADqpMY2SE19Xe1aTZY4liyJdvVQP2l5TWrflBKbObBqTUOPntnFzTihQWrp/Xz5/GLzMpbVfp+dJMZHkvjGukE0yv9pWJ0li7nivmEeTjzaENUBZ6eptVhx+0U4OWsbF2ufB4K+vXYArejjY3TsIq5d/R1B0CpJf9SyEZ4uuGImJvDYltiSCpZ1lckqMuKjQkVDaNE/Tm5PPg5PtWh0asmcN0WAnG/cvk6lFUlaFPCFn/dT9uT3OKOKGGkpd6Ql5WVMSO5g14TVDn5zENA7BfPP20rIFY+TmYPnfqCOLfyklQF5o61zIzr4YSv69bNWdGyUL51NrVxPwxYLWhbIPzBcFsMpOxDPJ+Z0o40ftpHL8ZmR9GhXrO0EbUKYIPbr2f1o3XB/WdsCxIbHYUzolCBnaZGBmLGsiWlJaBFljShqaz9uOJcy+4uE5k1osCGkriIZW3v9fku9Do1sQ8gcKhGBgBZ296T53TzkzQjvze/uKW7JGhhPb3Y1uQZgCJLEecubpaGKnl03TZPfxN5zwHciSxJ+AdyIkMKf7OMof0OVnE3XYwOdEfMuJQ7gAz1arqO9pCPx/PQOdH9JV0IxrYpEXZQezrHt3I0RHYiLThrYXxTortOla9f45p0bVF6Wb2ZJK2X3+ae9q21xGkLyuIDi/28O62hXahMCzA//Dym6nRVJ157X0J83ZH0t0KhTpnW/U58Ht3IRv41rTcc/bkE5ST50elyAuRWNOgmzqteg1Q7a+sfZoTQ9woM+8W/InwY0kiUut49pX2PilJ+5eQgfSulImf19eV6EB03p2BQOQkrv68OoufH95K6yMtyLIB0QztXsAZTUwqVS7LM1Ylb3Jxl0aBQsQqYhpA7ERyP8bnw7Z0pp48zj2zpTakgTWj8qSNRUR5dkfCxJloF9uCuW7mwYTLmrBtC1lf3pxtqBlL95CBXv1ddqlsfWUA7Cb1MdYePzLy7pqSfaHl48NdTVKjmrRD3StyF94u9E49o0oS86NKWZqGUd6UFwKM4Kc6e53TzElsSW4uy09rKglkrUsKI3fBBITf/WQDrAEXLXwrUZ7d23jy7l5vH5K1f5Xv4tMp03qtNQX+zfrAGtqkFXXP+yIm2Eq00TVzvo9UeAmf/JkMZtNrBMB1l12yDnm3lnuXdYhDG1G30Ep0d7ifNpgXTsPV9C55KTY1uZE/TEQEbXjIpyhulr1AFG8oE6URHadnJBFK1JDqSvenrT7GgvPj4r8pmqoYEIZKPRbwbR7/Oj6NdZkXz+6x6EmGGEbuG7bSEL9RyfZY2bQMG2GBrb0csuDRokrToK1dKffzeE3qFeM8qApnV04WVDWxKq4tnT/UR//fo6GsUH4vls1gBak9JVpPTxF0PbeIooXxfR1cOZsHRr1kQM8HcT73fxFrNigsTuLyLEtbWDqPRggt7CtoF08X2Iurm9fhAV742rUsICQePJRlrCPbx4UvumVYZSqiQNfVrVqCFnjfBxpGRvR0IED/ZPDHGRFQE3DfcjWNVIboGz8OrcTtStmbPRWQg5r390Xzpx8je+cPUaX7h6lQsKb5vNJZA0anZsmjfOFj2aMyYkHcxKTajz+rOPdoXVIqAo+T2EontQHQlbeh8DD8uvJ47QgKgeMnJD70Cpzy0cHGnP+y3p93EBlJPsI1tL/fxpZR3aWs9AlaRL1vcyS93G5MWkBKGCZJCEIgv6P8NjskqoIGFp8amP67K2sB36di2cg0qGx77sRoktXHhg00aMRJWh7k4MnXmIm5PF0Du8/2ErvcShErS+kL4TT+nqxpCELmf0kfU4cI32PA3g+Ad7hvP2qd0pPqyFbMCK3xldSZAlKtuSGaJ2TNuVyaSOvzWgYFdnSgz3o5UpXSl3/RCZ3l/VDQ/f99uCaJrUyZWy4vwJXcGtnS8+5/bagYSCUJA4IFMhM1Ql4pqsQdKwqiF9QB5a0dubf01rKw2JhxnhPKWHj0D7NWCgLiPiR9Cvp89Ikr547ZoFki7kK6cOU/aU96vXo2VaePKaNSmj/qPaCawd8PoiwJzvLMp1ZyyRb3X7oDk/fHCDly+aRwFezQlhR+pgxaQd0d6dzk4MpJ9G+0nrGRb0jx/7VbKgq5M4UDxJJdCKa0xaaxO34rGv2mvcdH5d2JPWvh+irIhpLdKHtBLpg1rSV9E+4rN27hTn7SyTWEDe+mSWRvSen5OszwxreVw7Z57TsxntSelIN9cNlBEbID57cAC2KAn73cLeNDTUlyBfyVZRJvHA6m9e1RqNfvF/OCbEsynNHtGe8jYMMVjUlW+A+N57m4ZwemwrSdJnvu5ZZc0TWNsoBoUQSGjQsIZrQszq/yR5O5oVogJJrxroS3cXdyFUvPt2XFsKcmpotKJxXWjhljw8iX769Te+eC1XWtKQO0w1aaU8n4/vzqaMVOtFlQzx0ZA9REZa8pfLUgb+y+vLQNqVWUWA+e7/Y09tZ1PCBjlfPHeCkofFkPPf0DbIUIj/Hf0kjAtrQeeW9qBzE4PoyAi99QyC/uHDFpUIWjZ2XV65satqQT9Lcoo9ZPQyHqtaumhgULo/TqYwP9oZQ/c2DqZTi3vR9s87iYz41mLx4FZi4UA/ZdmwVrRmRKAk5d8X9yDEfetvYvYRM7CAZfpobxwv/KAjNW/kJC1laySsj3nXW9K4OVdc9Ba2vksJtnF8Jx9XWvl5VyrYWbl2tP779aVMcXMpribmHOcKZ+/KwS1krW5LURwq+dqyRsgl/BCQTUwjYE5PDpEEjeYNX/b1lVa0afIK8BnUawAd+fY7AklDkzaN7sDT5uOiXH0N6fE26dHFmROSk7REFqs09vq+IURBklB0ZabEa9O2KJBF+DsFtjOmc2PCYVL6N3Hm+e91xKSj20sj6dv3mhutZxA0XqNec8V46JtfWdehS7f2t8vqexmJttbOyfDEAEICeasWMcqRIroFsg9aUanv1/TpAqF+uh2x/Fm/1tT4rw1k/YmK5GxqFXs2aMhBrk2oq5+X6NOupRjWJYjiwttQbFgwDegQICIDmlNbT0/ydWpCLu82lAlM9f9UV0ojn/YNEiUHEi0+Jdl7cwFJw5JeGOVF7/k2rLL2SnVEPcLHkWeaxE3DikaquFrP4/6yrjx3aEvya9TQ7OYFYyW8fRfasXO3kaTzbuYZ46RRnvTmpZ9ozfSPbdOjU5Pupk9IDn19mUi7skoIcNl9b6HortlEyIauKbj74xFtXfYK2SFFlTRgEbnVdeSPewXQ75kDqPxAPN9aEU3olg1SNl2OjPCxmLBycXIQW62F8BISNAgQEgQy2GqNfGtJv37W88G16XbG8oc9/KWlq3a+VgkaN2JsB7s1oQ96+NOqlDA6sbQvJAu6vz2OinYniod7k+jhviR+uDeJi/Yk0r3tCXT1m+F0YvlQsXlKXzEtsauIj2gtolv7irEDOygP9iQ8k5NXvWacOyJTcrP60v5xoWJKpJd0+lVHxpbeRxw1kl2Q9AIrGgR9dEyQUCM6VKI+NjGEerZsavS/ABvUQA9uHkBr1643kvT1W9eprPRpCN4vB9fbGnoHueO3zIlJzpUmsrbj9UMAnVFI0W20h5xxLBq/Zi5dSJ4Nmz6VNN6ux6HeroQi/MX747jgm350MrWt3imYYE7OIOqcJG8+leJfSeaARY0avWjiqkob6vpls6Bh1SGU7Jv3gml1Umt6YJARVJJ4lde4tif74zllYJBZiU1JOu/UY9T0jmzlQSvGdKZr6wYTCjqhIYK05g0OVb3Vm8hIV5eLwepnNUFI6uBJXHwgkYp2J9DjfQkWrednwVHtaA4ncmZioDGj0BIRV7UP0RwpwU0M9T28+KfxbSplGyL07tr8zvReFy8CPuoNDZZ0K4/mvHr1WiNJ37p7gzCPYOw8eXiddqVPp3TbpA7OSEvakDUp7n+9foykXZEZAjWSNtD4deVy8nR0Maa6YtLGdW1Bl9YMkoX3z8/oREdGNueDCc3MrGZTCxrbv4ypHGonJY9JgYyiNSoxq2s1BvpZJmxt/i/00GVD/Gh0q4Y8s7sX6bY8Q6uml8RqNsVn2ehO1ARxviaOQDwltXF3oaWjO+mb/BqSUUz/rybbksyfIwa4cdzdOIQ+b+9aI7kDBD0moLEk6GW9mvHlmR0rETTGKcLv7i3tymO7+1Qi6UDvVrxt+y4jScNxqKCwmEHqWD3tI5uiOuA0TE9NGrdmTdR/M5vQ2ovXBwEu1bkKRXfZHusZ7X1y9m+HrCEr1IGYYSmM6dea8rfH0P3Vfej4pwFUHTGrRP3TJ5UjOVRNGp24zdK+UWIUHVKe4yS297NL9sfz1tHtaFVia7qU3uelOjd7r8X0eJDZD4v7kF/jxgx9Gb8zSBoadFKEH51dOUBWwAOpmv7fy74N2SNnchgl+zbkGPf6Msa5Yhq4NStabeQAeWNDbAsqWB5W6QlPNSRA0veXhfEnEd5mTx+Ob9XhyNBw+v6nExbjpGWWYXVp4KnGUqUFK1KTw14fRtKuxIiA7Cuo6NLtImcq5GtXTnFYuw5mDsFP+gRQ4c5Yyvu6Gx0ZZW41H0zwZnVRSdl0/cuYyrHQKkFjfc+kBVHxuh6kHHr5dF4ky8Ahh8n/shOULecH0i3cNZwHd/QxpjGDpD3qN5RtyhADrTokbfm8l+2YskMJMplpVjcv8am/kwzDQyXDWDcQtp60VZIGecNyRiQHokFQIQ/RHCcntrNoPasErVrSKPAf09bd7EkT8eCff/o5IaoDC9LCHzy8K6vgPSy4Stu+rrLpbKVMw4xJ8Q7Gia1tvB4IKEp+tFB0j+0h6LLS+4zi+2oYHRxEA0K86c7moXR1QbjUmmE5g5BBwkdH+vLxj/3ol8/8CTHP33/QnL57vzl9+54vIjjke2cnVK7HYSTotEDOmxki6yBgwL9s8sbLRjy1dT4gXzj7UPxH6s1v1+PmTk68bkI4lcuokFfLaraEi3R+bh5CJ2ZE0PYP21L2cH8xr7ePmNDBlT5s2UhmESYZurx/GtCYkDIuyTnaiw98GEAP0iv7R0zJWd1GnPTvs0Ip1MPZSNIgaD83H96776BR6riSl8tPntyTXcIv/5ZDK78YVZGIq3idvHTNl6P+9fVgJu0q/oH53juKUvC9PeSM9O19uzaRV6OmxtZVLZyc+PjXfejm8ijU1uBDCfrQud9SWtO1mSF0f3FnepAexnD2IQEFIXX6pbVcG4l4YuVQO/U9tbpdybpoUmrQ4srS5NT2WSdYWM93tw7jiJYe0nqG5QyZY/vUbrUSWfEyYQ/nIR9Llk89CE0s3juc8zcNoQtLelHOhE5iXXwArejnSyt6exMK+m8c7kc/p7YlxD2rjWRVIq5qDcfh5tHB5F73acNZGDkpn6UYCRqWdO7NPCotzefy0ruc881C2x2GqUnF6WlJAzVqe00QEEI3Rig6s/oA1sgaHmY4MI7l7KKQloFG6xmOotShbahoy2A6PiaAfvq0FV2e1o50S7rIOgVq2JEcuNkRfGd+R4vRGioRW1sjcQUkjw7dL9Pkfl3PBdbzmvFhhA4hIGdvx0a85QvUNnk95Bv1d8ON6PGe4Xxsahh9Oy1MNlzAPlwnMMA2QvR0mwfT7ZW9xe3FXaloRVilinZVEbPpe2g4Cz0a80b/VFKXO7cJpRMnT0ktWpU7ENkhlAK+d/0UrZ3xia2x0bCuz2qhd68BQRscg1etEbLpfpBz8ZM7nLVsEbVy9zELp2vm2Ih/WdaPyg/E8YMtg/nx+j4CjTfVuFDTwfkkO4LRKfnCJOuWsjWCvjwlmB6vjiLxEmrP6mR/VdaI1YZWjsXSOSMM7vHeOB7UwYcavFWPXes4cMZnXV7LGyOI+PAXXQj1SSa0d6FrK/tZTB/HcXQ4gUvX96wUUWQ2xivUi674HqSOUzM6onc+1GUAACAASURBVAuLTMyBzOHh2JS3bN1BF3P1WYYqSd/X6Svgndi31h6C5owJyRkLU2L+7TWgqTfzEpj5H4WiW2BKwta2Qc6PH93iqRPGkUudRmbkHODizMs/6UwlB+KlpVG+awihw0nFQWn6+kF6GF2aEmyXFQ05JG9WCL1o7VkfN5vIWFsisldxX+mBeNr1eQexIqYV7x8fapGkYTkiyaSZQyMZsfFFbFtZdQ7W5Kt4zVWdM4g3Z5KeoOf39aHC7cOqrOOCEgOm47km2zBepvVvYZbEMnfOPGNpUpWgUVzpwaO7hPZZm+aPt4ekizPTkga/mez2Glw1lxe0Foou3xopq/tBzqUld/nLSank/DfoZmqYVT3u26YZ/bKsr1GPLNs5mIpXVU3O6mBWdWhr1rLZ/rRAvjApiAtXRpHIeXGRG9Aij02PoMzEIDoxN4pqqzJeVWTxIt4rP5jA60YFUUpbZ94+JsSiVQyCRmo+0q5RDAnp3bVFzqaJKSBHcTiJlcP6NR1JkhIKvl8ukBqecyglruvR7lj+ZW53ylvV3zierf0WKHFbvDb6mUha9jKcFUqtnfW9DFHg/7PRn5np0CpJw2lYUpJPZ77fQRlpyVU4CI0hd+oxZ1dOTHR6DejqzboE5rx/JaVgjUrCVa1B0KsylpBrPScTcq7PCeF+dHPTUOOjYNnOQfTERnIGSRcu60LXprdFW3t9/Q2j09DUeaiP6rgyoz3psnu8UMcgJi10yVm9fNFIlpAa/GBnTLWT19qkfpn2gxSRSZe3ur8kJkvnBukDv7F/E2c6ldHf+DtbOtaWfSrhPtkfT1fWxVDOvAEie3wPMXtkmBg/tIMY068dj+nXliYM7aB89V6EWJPaSxxbNFjkboijJ/sNpP0crXf83jhH/Q2j+qcEZf9wKt3Ux2aDRDVMKq6RwCILSL1VR9aO/v3CRRlup5Kzur5x+wY9LMyl7Uu+sKXZrErQWC9ek5Lyz28Ww73iV6souk5C0T2sipjxHhJRUM+5tVdzM1kjpnNzurNlmDH+tWzHILaHnGFll3zTg4q/6SkeZEeJ/OXh4s6izuLmvI7ixlcd6PqcDsr1eaHKrSXhVLiuL5XurVnbKluIo7pj7m0aQpez+okb6wYSYpyrO/5lfx9PBehqAotRT0iWyQjxwetTI8S+mdGyRnNNrkslPchfp9L706IPQmlwx+YU6OZK7vWdqPFfHaQGqycofdlRbCMJBpUQmzk6U2hzb3q/Z3uxOrW3uLxuOJXnPC0EVZNzqtX/yUlkZV8slW0bQCUbelPxumgqXtMdEh+MFXqSHYnFqtyHiI4DKW3JrY7+ydSrkRuv+2ZDJZlDJWld4R268PM+ypw4wpSAq9t+qDWdfYUIm/n2v5Oi21wdOUvd+eFNThwyxJiIAq9z1xbudHnNIKNFJckZgxB92lZ3Z+hz5buHUsnG3pUfAbMjGTWcZQfuHJXsElhg+2Cc7I6i7I9lWCfKwXj56G2rRVOrE8/kkRrfb49l9bzOozY+F9dxamE0TUXrpt7edHJ+lEV5Q/0uGXpWQ+0d3/VwTxzvmRFFyDZEWVJEgqD2M9am6eKIZLC0QE7DmMPS5N2G3N7bi1KHdRQnVwyQNaxre2w88+98KJ4VjGOM3/2xcpxjLqCpMeZGResZOvTdpV25d6um+jDGt+tylzahtP9gjkWSvpSby/fvXqOdy6faE3YHAj+6Mm3EW68QTb25p6ooBWG2JKUg1nnH5rXU1CBtYEKhdOTemVFPyXnnYL2sAXJe14PK98XoJzwquh2Io+I1UU8HZXbkSxEep1p1mIymC/arxPQyr0FKesel/U5L/G/uqv60oK8vfRnpwcdnRtS6ZANM0cLq4JwespA/oj9qUsjfEmGrZO3XuDFNjWtnJrE9y2+Gc4aV/8Oi3vTr8n61jgnODUYJnhorkjQiOnZ+1oa86jvKmxZiokOD2tP69ZsIbbJU61ldX87L4x8P77LXiqbM1MTRby7rvSJXjkL8pOi22WI9P3pwgwf36mNmPX/eP5Dw6CuOJHL57iF6/S0rnIvXRkmLwWyS5CRwyboeRoIu3dK/SmvN7H9NLNja2q9awo93x1Judn/6ZW6U+HZ6hPhxVjdxcUUferhDry+/rESN84dz72p6H/pxWhjlrewnrcia4INO54XbhtVaOzD1HEB0V9YNprH9A8mzvr4WslrBzRLh1nQfLGsYDKied2B2tMGatu8Gq96oce7Q2D/q6U/ejo0IGZKowqdeU22ulf3DWToXsyL4wYowI1mjp+HC2FbU9F19ISqQdAtXb/560VJjCrhK0FifOX+eNy2eapcWnZmadCU9LdnlFaGqN/M0FaWgq63WM5JRPByaGDIF9QX3f88aIK1nWMrQ2qQ1gKJFu4ZUIt/yvcOMTsOKzV1rc9BX91kgNhxzZe1gWvFRRxHf3kuEujWmVo6O1Ly+A/s1cKB2TRrRkGAPkf5xR3FvW4xRW6/us1/U+7iGwq1DCd3Fl/f2lp1BMvr78sWlPWtk7YGcavNGhM9C2veuL6Ook6+bTMCwRcKojqBB7rCaUV8cpNXwbf1abkMueVufPDNvVAcq2BFDptEhpk9HZts4V+jw24bR8cW9CeGD/i7OjFhv30ZOjLrlOL7ib4vfoDYww1x5lBVBN79qLx5l6FPEkYmI5JV5w1oSnjiAHa6xmZM7L1uaXimy48LVXP72IKzokdXpz+bvpyXNO5CS8o9vJvu95FfNfPPfSNFtqs56xvvQn9M+/8xoPWMioA4wetCJg3HSwac+qllq3ApN2VSDtnjMc7CSK04qTDQ0Ip2e0I5QErORobsLWhFhEqgLXuMaQRj923nTyRWWExUqfv7zfq0SwtWMPvRNnD8tjvI0tlnCNvb90TWnQVyP98XJkDwvB/MOItURcFXvg5hd6zpyp5YtKbFvT5H6QaKYOuY9JSU5Rgzo2ol8GrnI8YnjUFWvX5AnLR3RThyeHilOL+lNl7L68ZWV/RnrM8v7iONzo8WutK4Cx4yJ8hORLVxh5RtuJnptHOGET/ZZDuO8t3Ewo0HtM//mh+L58Zooujq9DSGSSZ1H0KNB0gtiWpmRdICXH+3ctacSSZ85f443LppslxWdkZp0P31iUuuXnKrezNMrL88PsaVDN8i5IP8aRXboJCcASMyjviMfW9BLWhYVg/QtpV2jDKjRe50VwaUb+zz7wLaD0PUWXQLvmNadOsOig7PJEL9dFSngPRA1mpcena+/3meekHact+l3gfiQXowCPun9fNmUnE174Z1ZGC1LfZr+74valpb9ruE8blCQLKaEsVIdvtW9D6vZ6c/1ObpdW1q3ZBblnj9OTx7kkVJ6l5Wye1z65BYX3DlPx/ZtEvEDBxkTpyRR/7k+N6vnQP6NGlJwEydu08SJsQ5o1Ih8GziS27sNCJ+NY7GYni+KQW1Ii6hkPWMsIdxyUf/mtOOz9jaH4VX1GxRv7CNQPvfuglBCZm1Fkp7Sr4WsHS3H41t1eGCvAfTbmbNmaeCwoo/u20aZaXZFdHBmavIarZjSS3YPYOZ/FoouyxbrGaF1p3/9lpo38SBofSCsqABPQslJhBSZJaKsipTOD7PBWMF6RnQHrGmzY2pIWrZ8BiZU8f54nv9+R4JTU7WMTSIIkL1V7Ph2vXyHt+rda/BWvQcOb9dTTAkc/9PWw4V+Xtq30oS15Rxq45jb6wbS7tHtaEmPZrKlEkh5CRaTZqWoqLb305A/JIEG5IymrqN7B8gax6ZkVx0JV/U+iPKDIf3E5dPHiISO0YQYRsPTsVsgX8OJ/ejhTV6VvoT8PXyNYaAgeJwLnorUBa/lYiVaBL83kq7Qzkt9ajH9DZ/sHc45E7vQ6UU9aiQpmX4Wtos39KKr09uSpa71sKRvL+nKfQNc9eVd36nHLnWdeMXyjAqRHdf497NneP38NHuyCyF5PMxIS+r0klHUm306XJbfXCi6e08Huc5kwJtvY+BvWpcpmrzrKCcePPCpQ4IJ2VylG/sYH8lw10fokHJguJl1XL5n6FPr2VCT4EVJHPIcDybwrOT2xs4fsJRgNUHieD+6FS37pEvZjmlRl4/M73Xo4Jzo9StTumZ+3CtgXYhn05+avOvwCJMVkxnr3m2a0d2t+u7XFSfZ83oNWebqyv40sbM7TQpxoYXdPSVBz+/mybO6utOUUFeaF+khiXpWVzdaNdxfQVPY53U+lj4XJIYQOjSOrYps7X0PBkFSv57iTu5vstRmdeMVxI3iXTn7tlGgt5+RpO35XvzWXg0a8oHZPaq8GeOGZIm8LeFT1T6E4D1Z1Z1yZ7RllDtA2QPVglbXiI/e+GFr4fI3fYlXZBmiI3jFJBZEeeTssKt/odSk01OTt6RP/eDf32xWfEmunpn/iyjPn1ndYDd9f3paisBkUQf6mrGdBO8zkS0MxAtrGvGexgEJ63l9r0oDDgH8L6LAESZQ1tiu1LSOg3yExfmH+7lT+pjOlPvNkKd98tReebLEZFI5H0sqKt4fn3d0fq97n/ZpDW++/hH4z/WlJf6sExP/rzqqjFhZeIqQVun2YTyzl69sw4SuHe+3aEQftWxEI30bUoKXA6N4PF7PDnOnsYHOtPvvHcXzToU2PWf1JvhlQoiscldbURq4kbZt5kO/fb+HYCSYjsfqtnH89k1ryauhvvytOm5tWePmPSMxRI4N0+t8XtvIA0DJ3WtftpW1aFDZUSVmdQ0rOndeKHX2aEx6f0k9GdWx/9Bhcy366jX+7dRJWjtrLGXY3nkFJP04Y0Ji15eEot7s02AucrS1lRUskscPb3Ly0EFC7ymvz80dHOnnmV2Vsg2WK3gZixcdSWLU4jBqzyYVvV5EFAcIEMV9WjVpLD3yIFlMvNub9RmPIL/qJh0+A81O982Kpo7errIORaiPK93aXHXxnOo+98HOGP59cQ8+t6wXQc+0dDxI/MneOF4+PMCskanaxaNiKyaQ9RfhnpT/gvseAkeEoqFbO6xPW0jQpmPeqcdffDxClBXfZpTYrI6UK75fXnafJ4z51FgC15bvhKz1XnQrKto1vFasY0u/q+k+dX48TA8jVGY8nxbIKKFbsKSznqQNevTjrHB+sKIrfRDqLvAkh2tBZuXySjKHvgvL3vXp9socrFnRL8l9QYj89yoOZmuvQdC3b5yjqNBOkqBx947wbEy58zoTAurVO7zpGjIHHIWyip1pYooJQYO0IX2YDtba3IZVh0gC1I6o96e63M7DhZDBhqgTW4i54rmAqM9kDaBhnZqTez1H3v1lVI1jY5EejsJEY4May1KWP86yXk95V0onivPUW8lqm6WKa7RcinGrz+M7udP5FX1eaG1m4IJEjkDXJsZaxrYQYXXH4GmtmWNjOrApwyZpw9L4he/kzOkfZClc06c/S9+t6tSJ4X50Z+swZhtu3hXHiF2vcxLkHFH9NwVLuxCKf6kFwS5NCZY10lGGFxY1rOs7czvQzD4+AnMQ1wCDacqkqRV06KvScfjzj99R9tSPOCM10Tys7mm/Qkv7H6VPSA59SWjqzTwN5qL/UBTdMUsD2tI+OGTOnf6e2vj6UUN4ut+pz4NauqBOBj3KCJN6Ge7uCKzHYxq2Qdb62s+WCVwlc9QrsGtQW5AArP0/iOPQnB5S2gjxaio7u2CfteNt2Y//h2W1d2Y0ITa2pjIHig6hStqhiZ3pl3ndCUWKKn4/biJ3Nw2hse2aEpqXViRl9TV65I3yc+JVI4Pp9obBL5Sccf1Fu4dzTKfmeueVFYebJUKsbh/kjRBvbzr/88EaEzTGc2nJPU4cMpQc/lTHqmUPqx8NCODcvPu8Y95RcxtlDyD7mdTkuD3PcsMK1EhHWd0zE1rzpS+CeF4/b6FihwazE/4+QVzKzauUXXju0mXelj7H3pA7GdExe3bSf38z2fEluGpF0XURiq7YEhlb2gct77sju8insauM4ABBD/VvKm7MC1VyZ7aTNZxxd8+d0U56obG+NbcD3VsYKrBg4CF06FFm5R5tzzuSA9qxT8NGfHhuzyqdPRXJsarXUjs+ZnuFM2ufBbJXF0tEj/d+/7oXJXo7WiVnWM1j2rrwz/NQ9rRmTwbWzs+W/TjH9DFdCDHHKmnU1hoE3aVVSxlSByPB0ti0ZR/G75xpk43x+xXPD3IBxgjKqMLJWZOnK1uwwjFI5irZYE7MMFYwNxDBoVrPpuvT4wL4uw+a04+j/ejSF4E8s1czY71oaxY0MgsRcvfdod32pn/DqtZlTEzyfwmo6s07BWb+b0LJX27LwFaPwQDfvXUdNa3bUHrnQdCDW7rQ7xODzTugpFXdDeXG7PakWteqBf08HYWQMjZ/EUmbJkU+Nyvd1olZk+PwiH19zQAaHdREOgdVi1ldg5zHhjTlM0t7/yFZjji/q+sGU3uvprUqbagEqjoIr5z5XjwrQS9fPE/Kc+pnY61azX3bNqMj83oapC/7UsPt+V1hNcPvoo5903VFeUMl6LOprfnb95sTmiz/9IkfXZwUyGM6u5PD23qJAxr0ihWZlSQOmQJ+9RqfPvM7fzPXroL+UvbITE2en5KS8l/fPIb8g6+Y+b6TUHS5KvnasmZ+wOmL54lGhggOEPRAPxf6NSWALlTRzFUdZOoa+hr0NNOB+bwdhbCGnqdFZM8Eremxx2d3o5T2rgRiBiljwfakME+6kN6H0NTUaIkbeuXV9Lvs+T9Y/YjaMI0VNyXAZ90GgXo0aEzfHtxmdwSH6biGgTF76hdmFjQ+G11hlo7uJJsOAD97rt3eY2WugFoGwdQPY9i+Mae9Rev5xKct6VCiN2M5+bk/nU4Nop7NnSVBQ1P3dfHifQcOmUdxXNE7CVWS3rcxswbOwqRcrX/hH0DWQhQkmw7e6rZhuVw4e4K6BIcYPeEg6NiApnR6vL5wvkrA1a7TAhnShylBS0ehWu3ODn3Z3gnyKh8PIoQWfXRaBG38OIQ2fBxCR6aG0/0tQxmyRm5WXzo1tzsjexDFkh7ujJFkY0k2qS0cYD2jjgniyJ8XQYPg8QgPcoWzr7qxau19dP5JGDTYTIMGQfs4NuITy/rW2NFrM5YIM4WsYYGYsQ8xzzJ6o4Kxc3pcAB0Z4SPJ+XCyN5+Z2Ia2fxoivOs/rcvR3r8t/fTrSbNsQknMBpJGTPSJ499S9pQPLDkEq9yXmZY85g+gqDf3K/U1nwv2WBvIFfcjeuNBYR4nDH5a+1m1iqZGeQm7G7yCoL+qRNBUvmeYsHmwv6EkjqcA1UpW19h36qvutLyPtzHle1lvb14X20pWtkN1uudF0jiHRR+GGrVQdVzU9hoEHd6uI925dYGJ7A+zA7GfPX2c/D18jJ1/1HOE9vz5wGBCQafnOf5Q4dHUGViRqO8tDLVoPR//qIXRej46wocufNmJZsS2N+YiwIL2c/PhvfsPWregr1zlsxcv8uYl0+x2FmakJv2UnjL8T28uY77gKzdkDuoqErG11yDoZQu/kh0u1EHt9Jf6PCrElX7+ewDbI2+o1vX9xZ3MLYnsSEKFu+c5QV7HzwZBoobzwp7eYnGUl7FYElK/UZ8D+7a+F0yF24bVONLEGm4gfaRzI9VfjcdVx8fzWDv9pQF/NX0KWRun1vZj/JaW3uOU0R8Zn/5Mzw8E5+/iQr+vHFJrDmRLmFXMtDUlaEQ+5c1sJ2Of1TmCNaznw8l66xnyxtGRPnzxq0j6KqmT2U0RlfwShsbT6fMX+LyFOtGqszBn5wbKqDq8zpI1XZqemhj1gmnqzf06IQr+bm0wV9wvQ+t+/5GCfVqaDe6ktq50clxrttt6nhjIKATzMCPMLG66eE0Uegq+tASNWOoXmZFnaYJb2gdpY/XIYJoW6kqow4F6HGpdDrVoUlo7F8qZHFbr5IObQ87c3khKodrKGDQlzorbIFLvxm68ZX02gXSxVByvFV/jGEXRcdayReRW37mS9ax+R8M/N+A574eLmvgpcKNSUAe9irh65WC8rItuSsqm26j/bKmTvan2DII+MsKHzs2NFge+7EPBri5GpyywaVrXiRcvXGLViobM8esvP9Gq6aPZzsxCTk9NWrVwYcw/vbms+YKunFn3PxVFd6TiQLb2urwsn8d9MppQcxeDGbpzmGdj+v4zf4Yn2fRub+s2HuVMBye2keJqiYBe9D5MNikdGMLnyg4l0ZMDSfR4f5JsTlp6CE4kVWao3brJ9l4ryAQ9EVND3WhehAct6ObJaSEulBLsTNM7u9HiaC+eE+5O7/s1ol/mR9c6QeP7p8SHGrPZVLJ7nmtIHc1dPAmE+/jRLYbjzxJRYx/ee1B4nRfOmVFtmjciRXq0bSnu7Yi360mjeF8c/zwzgnZ/3JYOfN6Bzi3uQagyiKYVpr+n7PRtJXIDFevgNLdk7Hz/QXOjvKE6CX+ZEkaXMmJ49WeRslUYyFnOzbfrMrToo999Txeu5VaKh4YVfe7SJd66fFZNZI5bmeMTm74gmnpzv4bLda2EoiuyRsim+6Hbnfz5KLVo2kxfmP/P9RklGdOH+Mg4TFsJ2fQ4VOiqFGKHokr7TGp2vGB9GZYxSBnheHe2DCOUTl3+aReROqy9eK9HGyU+IljERwQrI6NDxOeDOos573X7v+y9d3QU59bmO9/6Zu5dE9bcO3PX+s5xxCAJlHPOGZRzzjk2iIwJtgCJDAYThYgKiJyTydHGAdtgGwyIaJwIItgYkLr2e+d5W9WUWi11UAvjI/9Rq6qrq0OF91e7dni2sG1GuvDV2gLh3r4ykrcDu7f8vNKBLl3Gfz5fk0RjvUxpUbQdjfM05RkeqCYsdTBm0OIY4z6IqiPs6FF7Rxjp53uyjH19eKCM0oM8Xop7Qwp9FElZ9hvEZHn5dPLoXnr44Bb7P0+FHMiAMq7h+3evswN7tlJeahohBU2EmPR7pMvcOje1pNO1OQKOqzbHBts1r0ohuJFq4ux5owQ8xZycEkpoviv9Dk2Avr8ivJOxc6nKhz4e7tIJ0KeGu7NvF6fQ1YZCtlgWxguwxCcY7MeEMRPUdloR3RynDuzQx83B6qtlo/suOV/SngvCg/ekENa0XD1pgjItCdZzsY+F8N0UH7XBDCmI1S0jAV+dOpdSr+MlgxkDCIPs90MlDPmvaDoAbQ1RRwJKfXxC1472CZbWoNeNmGW/gczd3IqS/NxoRnGYcHpZhvDbwRJupb4sUKP10qnZ0cIwZxMa46GAs5gbLabiVbgNYp/O77p8XAoRXZbZ6XJ2samQvK1seNGSFHYvYxnZF1BxszW2YAlhkTRp9ChCEQqmiSNHUkxwKOGRH9to+39M3zRmi8fGa+3mwBPEz5uyaP/oAFqf504IzMKt1JTrRg/35He0xJHBoabnoPgk+VtdlKJARVJDcKlaPaCPlzmyM+N86PLKLPp+TT6riPFSZtAA0K5WjmyfGhF/BaDb3Rxzxurs5qifKjvWUCn7ny8JVX3vZ9BzUC5vOaYJyngfvueb176hAFcv7nvGHdqpvzFtK3ER9HFtwO/8aE1kZ9fGjjTiXbtfMpwB5qdHS7nwkaipARgDwKI1omlgYzAA3Cb/RNOCQZQ92IV2z4yjxweKOfh1AZ4+22Ifzi5KIFjLKPPGhNzogvb86CmhtvTZgji9exN295/w2/s/yBCs3xlkUElRTcdc9X1+Dv7Rjxn9Rz8OYwAZyybtLjnV7bt7jXNfnhgkPDlSzuVzu9t/6Xuwlh/tKaDbTRl0ZWWycLM+jZ6rkXiFISICWd0cAkh4whR1OFDW/eloN16cIro3xPlno93o8rwwuro2j52cn84CJWmOKPseXlZBl65dV+vm+L75Ktu1ap4+bo5Hf1cW9uJ9g7U+tBfkLfe0AjR7xAMr4gUN6znPw5y+rfTW2XruCs7ICZUf7/goKL3we2sZXa8vNWXzRqAQOwKYYZGJ+6rPnFt0ePR+25jlhrgQSsrRQFefoJO2+43vvrczj1CoMtrbnN4LtqaZMQ60usibTs6KhpJdr/0+8p9rxsQJeJrQ53i9ip8BoCM8XenHXSW8f6G25wHb4akJ1xVuXJir+yyu9Wdb1Ks+isBGNgeqCVGwcm22P31X6U2nK1x4DrQIZ8y/muDBx2Hz4li61lDIPigJUXZZwU0LTWUPHj6qNmCI0u/jezbpKkHaXlkom9qLiOrbXy0ILeXawFkQWtgfT35m+anpSveGxZsDWG26g87WM3qrqbOcn21NRtaG2gtZ3cVtiHUYRM+Pl7Ht02IoyN6S+057CmZ1oIFV7Wg8kE0vDKBfdinkTA3x/7v6DgQKf96SQy17CgjdPZDZwUHRiypsbSdkbFJOyEsNEKo71oZcx8FmYU3nGvIJLpyujndP1sulDZW7KFgRYQ3Z0Ts1oXRpmm8HSJ+QObFvKr04oG/MDaLb9Zn0+ZIsFuqoaMiLY4K0u6rJ1V0AWlG0sm6m7kUr9VWyT1ZXVvy/fZukvbD3jLH/TPIHm7QBNIKDF86fIVdLex5cgfXsb2pCJ0a6q400q/M3Y92NLtwa8MWpdlrpyUWvzWdh8UFtbXZJEPcxK3zJPbOau4MDwI8p1d+Bzq5M71VlOVjSiql3oKLu+P5xpJyKo33+xQA9gFn3N6XDizK0DhSqOzaa1nEtjvVxHdJMRSh3mjcpKgwvVfvyfGhocQDQ31Z68aDi1Zl+7O7qWLreUEAz8oKVudFwc8QMiaRz311QW1148dIlfdphwYp+3Fg1zLsXENW3v5KxlrcFeUuzdoB+xOpXLlMGfwDoQg9z+nqCp9bujWuzA+ihGp/z002J1KHLykvwPcOahK7vqCQv3hS0N6zmrmANaxr6yHtnx70SaYSa4KHN+3gSeXSgjFID3f+lAI1zaPamMdtYndSrgMYxbt2f021VoRTU6KByb3kYH3/I6kBl4cWpLwL1UIj8qTGbDs9JJbdBptwwwNOAwyBrtm//AWq+pT7l369M3QAAIABJREFU7sCmVfr4oVl9dfn7fZumvbD3cnlLmCBveaYNoFuf3WWy/AKlZgGqBmdFWdPX4xV+r64sZnF984zOYkj8glsf16vC/OrgAjj/tCOflUS6KSPd6mAqBpvEqD+q1pBzC+1gpHWp+4y262Cto4PLhsqoXgnYqdvv3lwHQN/bW0oxXi7KQgltj8Wrvh0KVlaMj+l1QHNII2go0YGWQll1GTKkiOVA1U4cZ3xe7csrEO81JNP3q/NYVqCLMu0R1/S0KdOpWY1GNPzQnxz7iBqqh6qrHNS07ujGytL/0QuY6rtfKbS1VGkDZ+gc/PTDRQpy8+6QvdGUaU9fjHXreHGoiLqIF84vS1R0Ntp9bc93Z75UKxJw/mVXARVHuHYLEhThOJpas5ykFJo3rYo2r1tLOzavo1VLF9KIkhLydnDlsMYFry9gICSELuIbJke91GPQG6AGoH/dXUqR7s7dHld9j9VL+xzOp8o5xdPiwpGRBi/q6eo8oNvQH1q6O9BNRRxj0jkElh7WxdCtxjyaUzhE6ebA9eph60KbN2/r5ItGVeH5c1/qVVVYXyW721hdYdt3aWrgPWfsh/9K8gcHtAE0Ev3PHN8n2BqZ8RONCzbMahAdKHZkX4x1U3uBSC8WdWXcsAZ6W05UOgAAEMD5zq4CGhbn0aXljAsYj7TFWdn06elD9Acq0+ghg6yqYnrE0Mvu8sWzVD1pIq9Gg1WtL0AAaQjC75sT/9IAID0uhlrG8b2zp5SiPV2UzXf1PSZ/xudM3zRhZgPMyczYisyMLcm0n6kyVRAuqfnDwvj1Y6jjpel7eDu4DfEafdJIw0P7K+l4wzLS8pD5cXddBm2bnEBWbxszUVkQ16uXvRurr19HgDJyocUJ4kk7amfp5eaoqyovNjCm+u7XMfbQSFvtZwQIG2rmC4Neby8ffW0Ak/lY0IlyJwZdANWLQ/X1r8s6dyEGoJFS15v5ziKUMX+4t4A+mh4tpPnaKwdeJxC8pmi0OaPyPXr08IcuS4ZxUwO0UfK+Z/sGpTXd6fu0bPEEd4efjQV9BXnLLtKxNA3oP/t9HGNUUMZ6//VcHOYDbcja1Z9sfYYwW99QPlk7+9KgN435jReAXlDxcgGN89l2qJC6K2QRXR4/LVKvF31veSj91pRAXy/LoLIID3IZaNoB0ki727Bhc0dL+sZNpmgoW6bJpdHp/bqpQxs3bkz4975LVQPuuVzeEi7IW55rY0HLofo1olwQfbFWbxnRojgb4dRQhVC4KpClr+F7VpdSh4vr+a4MnR7tkZWASjk+cfF5MVNBMQfcxAkX+G/7i+ji6jSqHzVYyPWzI7t+xt0+fsOyGFcxjJ78/pPW8pUA9cG928jFQpHdoi+kAYG0AEfekBT7+WcDV9ffB6ARJEwL9PhLBQlhNdt4DWa2/uHM1i+sfQpnNh5BZPrWQA5oFB0teokuDumxR9opNGm680s/WhupVjMa+jY8mNiYQpfW5LH905Mpd7CrMjcaWR1DvIPo5OlPlJCGXof+fujyC/XVFa8ZEFN996sE4cEkbeAMgZnH969RbmyUAL8ssh28jI1pY6YdFwy/MKX7IhW4N35viFZbLaWL/xnaGB/NTaBlI0PowNx44fu6DPppSw4h3/fejjz6ZWsO3ViXSV8vS6K9UyOEBQU+QkGgveBjOojM34C4e/fVgIBzkLs3XbtyTvcmpMIDtnT+XEIQUV9A43M4trOKA3tdg1gKAEMuI82uJNrvLwVoS3sP4mBut5xtfRWQtvEIYqZvKwCNIOHK8bEvJUio9nygkexHuQR1R9FqVp0jowPGECoNYSBh3MH9IW73a0MaXWsoYOeW5zBY02LWEq77UcNGKSsMlep2c8aSjh2/YVE/aawe6td3qWqgPVfkP9/fog2gYSH+cOULCnOHtKiia3eE5UDaU+DARVu+r3qR2iO1nMVlaG086QrQu7QPEMIyXjx8CKHCz+JNI+Y+cBCF2plTgosVJbtZCbFOljTE2ozcTUzI+i0jnqsNq1S8EDWBE2XAs6ZOJn2E3/GZO780M2g96FNOLP43/FdkdpxemvKXdHWgUOW9nJerZCceO53nr/Vn5saW5BAUSY6hceQUFi84hcWTY0gscxgcTXY+Q4gDut3ttXl68p8H6Pa0U9QJPN+R1qU1DfU7dCVC4FAKZ0D6yboY9nNDOle8O7Mwk8KcFAUsiLk4m9uzvfsOKK3oi5cvsW1Lq3VuhQVN6bqq8jEGwlTf/RrGfv2HILR8qxWg2SP29cf7yMPiRdfudEdT4VCJI50Z6aq8Y4tAVp13Z0E/256mlYuD+5JPydj9vYWsLNqd3ygAMwQ9+E2D3zgUNw+s11Y3QzqoIaJz7NBuvfvbwU8P4XhYJNLv1XUZN5WCMJf2DtIvr8hEreWmYz46XDPLx8b/ZUq9XYLDKbCsggWWV1DCtFny9PmLhOSZ8yimcir5pGULpu2KdwiOH1uapReg+bUrlnsbwnV1ooxx/Q5tUvGaYtnTzUnKZrS/r4tjN+uzueLdkqFhym7rMCrGjRrXIWC4f90yqpuiux+6vlq26Whl5X/uu3Q1wJ6z1oeOgrzlgXaAfsgObVsr2PYfxB+LAECZl7mA6qVPRmgGdPPMrn3Q7YL8XfpbcXEDHL99VESYoGfw4458lhdq2EAUrAgXCzve/gig1ea4qG6DTJdTx/aTdX+zHgEaQEfEfe/sv15WB55yPpqfKdjgWlENkIrpa+Jc9f2X+fq1/sxioDX55RVT0LCRbMjIsSxn2QoqWtvI8leuYdlLllNgZr6Ac4Frw8vGli6sL9C61JvHStr1Nx7tLaDvV6bQheVJ9OvWXJKfgBZLz2+8iN+I7ouu5tyFeLyMoQgMlvfTdTHsXmMyXa0vYGcWZVKAjaJnJIwKaEZ//tXXHNLIhz6xb4teuhz1VeUXVleW/tMAmOq7XyGXt6QK8hZBFTLqXjN6wNbXzBXM31T4V01fH8DeC7YUkMFxusIFSfIaszi4GH9TjNqUoa780LiIH+4rZFtHB1FVuB1VRdjR5lGBdH93PiDN85i5tdxDQSNxECLIh/50cOmoOw6a1uFzly58AeF4jTrDmqxqWNF5IS4EyVNDDGZDWMfafAe0Kr5fX0g+1jYd0xjfMGJIXbOwdGIWlk48jW1QD/31mo6hpvddBkdwOAfKhjNYzIWr6ljByrUs+r0pNHj4aObsP4SQD40ntDgfN61E+3Gunh0pYYiH3FyXQV8ujKf6Qi+aH+fAPoh1YDXpruzo1HB6vL+wx4JVCpGlpC4h3SmF9UQZd4/8ti6Ortfn0uW1Baw4zL1de6Y/szOxpD179gqoMASgP//4GDVOr+iUqaFFa6zH9VVD3fsuXQ2w59oWqABKJL/PFk+bKIjJ+5ZvDqA5kVbCSZkTOznUmS5M7j5ICJfHzXmBCBSqBTQS8hEAUQUApBnXlvgQpDKl09wEJ7q7M4/d21vI3sv0JYu3jA2SdwsXx/HDe3rk4vju/BlyNrPtMaBx47EbYPKX80UDUMjkyAj2VFauAZQWlo5k6xPCbP3aMyV8QhiCczxLQqUoRBNYe/z+a/2ZtZUj+ReVsaChIxhgnLlwKRWtaeDzwRWj4PJgtvZuHNC4WY5OCxRaj3dv9WLfH+wpYDvHBNGSFBe2MNGJQ3lejD2fA9DzYjDZs20jA9sh3f13qo4J1dfIle4qu0NdCisaBDysj6VrqzK4m6M6J0iZ1WT+pjFbu2qVcPXWD1yn4/z5r1Cwop8VXT200ACY6ptfwRj7d20FkgBoeetdNn3sMAGPQXhstX3biJbG23BAQ+Lw/HtaaHFM92V3l6s0hJWodj1VgTQelS+vSaNhroMYOoGoCs6vKfahtuNl7I8jpaxxUiT5WVtwDWaATd8BDD/c3GlT9beg2SO2Z/tG3qlD3/8g/RzAMCXXr9ONS3WQvmqv8Xg/uzRMgOWJ/YHgPc8xFtPYfEOZXUAEQ0DOKTiCzN4x7VS5Jz0OBl1+bQAze2cQ80pM59YzAB03dTq3ngtX1/NlrIPrw8LYkgMa19TaiVECUju7O9ZwXRysDKW50fYcxAByVxMgfagylF/DPXpCOl7Knm5OVGtFt+7J6nTt4Nzcb0oSLtek0LXGIrZIFipxRfVniz+YxwGNohUECrfqGShsqJYt6pt0NcBeM/bwfwnC/S80PbKL77c+/YUmlBXwHGgA2vEdI1qdbKsE9Nl33TW6OGBFI5vj9/ourGjAen0cQ4krBgEGw7HpkaQKZ4Aa64a7D2LN9YqiDlx0FxuzaFyqNyEDAmAT4aDL4MYNKMTbn27d+I4XoYj7r+289fk9NkYmU0qx6vLb6rbFPoQ7W9Od3YbvvN0daHr6Hm6uxxenkvU7Jopg7RtGzNrFl6ey2QdFkWdKNvkXllNg2TBuwbqFxxCCcYN6cHNVd/zUrnvDiCEwCAhjChs3kXJrVjJYz7k1Kylk9Lsc3B4xSQQXDODsaDyIaSog4k8O+wppVY4HSS3mLgEd68AWJznRpzMj6fePinqkOshzpCXGDvdHN8Wq1bfBWHm4JZ2uLEvigF5WEf7CoHmtP1swc7r8aruIEoT999Yv0itQWFclO1JTWfjfDICrvvcVjD0yEeQtP2oHngfs+R8/s9EFWUpAuw4wovo0W4KLAxb0mVGuJOZeqmZwqL6+u7xzY9gOAY6mWNa6P5cA6JOzotQCWoQ070jdbtUACs+PlbHPa9N4i6pge0uy7mes9CGKJa5qB60kOIWAUNXECfT82V21TUe7OmYIEH588gA5m/fcvSH+R/608o4xfbyo91XUegpl6ecBq5Z9RSzey17p5rC0cian8ASKGDtRyF66nNIXLCYE5jgoZcMZ/MEKSOuvayIety7n0D1x96XAUsWNAa6M9PmLqHBNA4P1nDh9tgLcsuHM3tVH6d5I9nMgSNJ2Z+nivQe7C6g2043gxugKzNL1i+IcCK2wtpV504WlCfTkgALU0mOpzXLr7sxOFnQn/3N7Ng4H9OY0urK0M6BNX+/PFs+ZKYiARj70ke2NepV811eVX107Y+jbfY+uBthj1vbAR5C3POkKNh3WCw/Ysyc/sRG5GQpAvzaAuQ0wFtal2wnQnwWg0fJdKnOoCmXl62pfduuDIEJ3iA5QVrn7I7ODjpXQrQ1ZNNbHnPufpS4OWNBDXQay71Z0zhUGqNHk9cft+XTyw0Rh7ajBwvtJ7kKCi5Vg/qZm9wcAbT3AjK2uWUStrfe0qiYEnG9e/5aSIqJ7nGKnChf8n5qhQQIzQNRfm8FuqG1wHpaODFEUQyDf2MiCfLLyKa5qBgGGmNLmfciDcSKkXUOiyKzfQJ3dHbiR8aldaxtWr3Jde/EP1tk4epBfUTlD1gZ+M3bKNO7agPWcvbiGQkaN4+/5ZuWT+QBz/j/wFIPce+yPpmODmMnWEQHcxSEFcVfLi+IVgK5NsGdoKrtjqA/dqEOrN9380s93ds7meLY5Sb2EArrtNCbS5aWJAlwcswoGK4O5iOWsXbpQEFXuUFF4+vBu/RrJVskeN0wr9zAArvreV8jlDzIEeQt1ALG8RX3mgvCAPX/yExuZl9kloKWdHJQw7kLRDgpbv9VHdbrjqwJbzOw4PjOKRnqYsgLr9r561gNYmaMx2zg8QG1/N3EQwVIQy8Gh9bFncoRg/ZaRxN/WNawBRVsjcwYFu3t3rin0OFQyO1BdiawNoocMgcHM+ESDwxmwhrtmWLiz8PRwSSd/orivhp7DGuzOWtTm9wC0K+uzydvSXKH98MYA5hoSSYNHjGEZCxbzgBwgnTxrHgW3AxPQ9IhNIouBVtx6ld6sRABDpAuwxXu44Vq9NYDZ9jNiDu8YkWN/I3Jqn7CMdXbvGDGH/kYs0taM8pLDKbE4n8LKylnoyDGUvXQFFa5dx3KXr2KREyqVbg8n32Cl79nV1JR9W5epFaBxzd3ekEV1BV7czaHJkl4Q50C1iQ68oSws6dp4e1aX4cIu1iRqf67RLmtz50yOZ1tTBOFEWafvkR8vY7eXRdDlJYnClboCXlGIawzH1MHYjHZsbBSab/7AhZOQyfHFmZPUOH24PpkcVF8ty+x7dDXAHgvCg4lawbkd2vBBv1ucq3RxuMDFkfrCxSHthaYJ0Fdn+avt4K0K6Kcb4hnaAMEavrAyhepKfGh+sgutLPAidKN+elj79DPAYvPEMAHl3tJB390yII2y7eTIGNrctJZ+uPEdPf3jFyZvu8+V7B49uMUufPMpLZ43m/ydUWHZs+KUrv4LXDNRDhb089acXu2+IkIXYP5ueRIdqwrHTUGj1Sh+Tt0cLbYm5/gp3Byv9WeWg6yZX24Rixj/HuUtX8XgWihYVcdiKquUcIR165tdQPZuvmTZz4TM3hjAMNm8bUTeAwdSnJ05FXvaChOCnIRZEe7C4jhvYVWyn1CfFkBN6YHypvTANj7PCJI3pQfJ16b408okX1qT4kW1SW70QYIbTU30ogmZITRhVAGNmPIupY4ZTUNkw7j17JWWTebIY+fdwfuzijgPgutM3f6pW4fjd39XPiGVblm6aydXB9LtEEScHWVP82Md2PKEF4DmkE5wYPWZLux6XZpW5xtdWNRlcaDHoaoIGW4gT/bkUvOsAGpeliR8viSbBdtZcQsa15mfvSOdPHqIYDkrO31DehQl31PLdYZ0w9TyaQbAVd/7CkHeslwXQLc9v8PeH1aiBDSChKskQUIAGt0cNMEZ7yPd7klX6Xaqro7NSQRIi4+XeIREpFx8rW6AqFuH7VcPD1amCXYFQ3XroT0C6VF/F0/KSU6lkaWlJMsvoPjQiBetv3oJzvg/sGxQun5uebLyOKjbR0OsA1we7S1gi5KdaHKQBbtan9aj38RxP782g9zNzBRW72v9mZPfYA7j2MnVhJxjAFrp+x06ggUOHcGCh41gWTnJNHaIPY0KsKWpoa60NiVQOFYaLXz7bopwc1qWcGd+Hj2oKaTHq4vp9/oSetJYIvyxrlT4o7FErpwaSun3tSX0aEUx3VtUQLdn5wiX3k8TPh8ZRweKQmhDhi/VJnnQnEQPmpgSQKWZ0eTv7sY7BsFSt+5nzA59kMDjIbocX4AQ2/+wPpNW5rjTrEg7uD1odpQdmzrEmka6m9I4H3O1gAakl8fbs51DfemPg8UabwxqA4TqZHxPyVjb0RL2Y00EH6fXVqRR3dhonqKK6wwGRlp4OJ3/5pykmvAm++7iBdq8sFKvku/6qqGb/64o1PH+whj7v0jeslsXQAtt99jM8SM6pNktjrVWZnHwQOFI7QKFvGBFBcSq1rP09dMNcQzuDt5IVk8/LPy3S0sD9AK0CG1cwFDyM/qPt5nRf/Tjy7Cyxfd7a45He7hm9lVF6lVmrAtYANQra1NpSrAFez/AjH2zLLFHgMZvw4quLghQ5NryFDdT5pWSScEVo7jljKIQLMO9ETh0JIP7QZYVTctTvelAYShdGJNKv87Kp99XldDzrWUk/6ichKPlTOmnxTWhzYQgGfKYD5dT275yera1jB6vKaaf5+fRpffShE8rYulAQQitSfERSjxt5X4mRkKxn42Ahru6GgTiMcfn9k0KEYY6m1CF60DCvMRekYVU7mRCsyLsaHmiwg8NMEunNalO7HZTBq+cFb+v0xwpdpvUp9hhDHGlyBNl3Kh5+lEB/VQbpTCiZgayi7WZlB/ipgziopnslDEjhSvXryt1oWFF90Qbur5K9vnfjWR1BnTL/yOXP/hMF0AzoYXVzJ6sBBw6eU8LtVQGCQHoT7QANAKEXRaraIA2cj3bDhVqtCg6XcQnyxlU8BYX+3fya/YWVA39vYiurxkeLKDBrbr9M9Q6AOXy6hSqDDRn08OsuT8VpfU9+X585/VNuTTY0aod0v2ZtbUT+ReWKjM4AOZgWQVLK8ikuVkhdLIsmm5NyqHHS0vo+fYykgPIgDA6aouTFMqiXgiCa9JJXC/dVvy8OD9RzuSHy6l1Zxk9qSulB/OL6NrETGF7ZrCwMN6JPpsfoygo4dK2ugXvsO/nliYKMicTtdlIE/wsaGmCekAD1peWJ3V7c5AfLtLQdSWW3VsbS/A5X5sTpBD0r/ZhVxdE0O6qREL6IJ7QMNkZmdHWDU3KAKEo3n+Zp9ot1jfV7lbj9OEDdERU396csXtvaNskVoQ4gmGbVy1UlnoDQMN9zIWjZYosDgBak2g/Oj48XB2hMTgotZ47LDdG6y3uD0DXlPoLpi/B4jU0nPF96H04L89HwH70BJaaPgsXx8O9BWx1njsdnqIootD0GW3eB6g2Tokiy7eNFa6O1wcw+JgDSoZySMcVF9C4zHDaVRhON8dl0uN3c+nplGyS7ytRZDQcKmNYlu8opraNhdTWUEBtq/KprSaXWhflUuuCHGqdl02tc7NZ6+xs4hOWsQ7vLc6ltpo8aludT23rCki+pYjku0tIfqCUBNG/LAIbjVubiun3cVl0qTRWaIp3p1WZbnRqViShShDuCxwnbfYb297ZnkcTAiypyHZAh2IrZCUB3HMj7XiqndR6xnJNggN9rwHQvIqwG8Pmt7oorhF9qVrSr3C6H7u8LJlGxKF1neIJEAVasYPD6Ovz5yXujfYOKzdusoOb1+iZaid7vHZamVvfJq6Oe8/YPTNBfv9XEb7azJFGdmTXOsGm/0ClWFKG4yDhoyJHApw/HeXauWmlJIsDrXe6qyLsAOJuLrhnW/XrvgIXx5qKIMFMku/cGyDtre/EQJqa6ikgAq8NGHq6DQon2kRwGeCmAKCh4nN8mo8SCjhWbp6+VJYRSR+m+tAXslh68G4OPR2dQc9HpDJMrVMzqXVGFj2vzKDn49Pp+Zg09nyk4r3nw1OZXhO+e1Qqez4ujT2flE6t0zI5xNtW5CnAv6GQ2pbnEbZpHZHGngxPYZcLImhrgietynCjj+dE0e8HirSOg6DadU2xNyELSZoqKi5P9LcgwFgK6OUJDlST7CT8sK57Fwdcf92NHbS7wtiTxoaa5wymE3OSydPcvIMcwdxZc5VSo0rr+foNrslxfM8mPX3Qsra6qbJYHRHVtzdnbffdBHnLY23ALG4DQJ89tU9wGmihDKBEWw+k3XkO9MkIV+RAd7gIpBcEln9epL5ZbHcXl7r3nm1L1QtQsOA2vxsiQEOktyBq8O+VCAkB0O8lusvbjpXqtf+6AltbC1GX74V75qcd+YSOMdDzRkf4DBdzWpXkSt/L4gQpmEVAdwBwO7SV7xnitSrk8Z3iDUDy/W0j09iz4SnsWlEUbUnwpIYCL2qu104mF9fetYYMmhRsRcW2RqzEzohK7F5IFwxzGUgfxnS0opfE2VNToafw+/5C6vJcnCjjT5Tqxglf1xTD7q8IVxmXPuz6wgj6fHEmDXGw5jdLxFFsjCzYzl17GDQ4pHDGcg9zoZH5Ud63iavj3svlLSHatrmSAvr8Z4cFZ1NLAScUEe5QCxPale/Avq306jZ7g4skdVfe3Y3FrHrxPdvaOXVIG0hgkByaHiXY9dMuD9rgsNXWcn/DiKE3npWDJ1mJQkI8wq4AdOvR0k55rdrs/6uyDc4DSvITvOwoxdGMNqV404/lcQRL1aDglcDVkN8LUD8dnsLO5YTS6kRXOjMvmmtpaHN8b2/KpqPVEbQkzVWoDLKi4a6DiFvR9kZsRqiNILWgF8U5CJ/NiRa6hDOCr0dL6OnG+K4t6KYYBvH+K9MV3VVgKF2Z4cfuroyimw15BJEk+J5xrVu8PZA1NDSRWkDfuMU+PXmYGqYN0znNDqp3f6fa6Q7oFG1lRqWAPnNst2Av7ehtYUIHSp27hTMer+6vCO/6ItIBzoA1LkhcmNoMCOk2AMNXS5MEd2MT5UX5p0G4G1hbmNkpFN8gKuQ9hMzeMeMWPyzoycke9LIsaOmxM/QyiofOLkmkBRH29Et5HAF6hoToy/gu/OcfS2OpLs6VTs6M5PrOmo4T/NG4Du9uz2Nbhwcg9Y69F2BJCBTOjbJDwQp3c8B63iTzEX7rznrmzWQLkP/c7dhCn8LmmX7KMcq1cBqi6efGTDo8J5XcTRXpj+hLOGroCFK1nrkFfeMWO/vpKWqcMUIvQNdVyVbqiKi+vbkgtBSJ4NV2DhfH1sZawaz9sRsWdILtQOHj0e6C9A6t6trQJedZ1Vru6nXb/s6ypJoGBwYGysaH2JgT/rsSzmLQ8A0jrrj2Z+oTo7WStXsAiY1LbbyHMLN24X8ECWdne6My7KW4ODQdz568j3Px9dJ4tiHeneA2eBlA7Y3fAKR/Ko2lFbHOdG5pglZFJThuADW0oPeOH0zz4xy59CgKVhbHOdCHMfa0KtudflifpfH70O1bE6CfNEbzugNxXKLztyjYf2lNPssfokizQwrpEA9f+vyLLzoFCaHH8fWXn1HTrNF6Abq+Srazpqbwv/Rt6uqw94LQMlpbMEu3qxw9UqnShkejMi9z4XylF12RBAPFC0GcozdaV6DVd/2z7ak6W9B4VEQ3liw/+xfNTOFOMLEiS1s3snb2JWs3f7Jy8iYzY6uX76dGdw8ze0Xj0vau0jbegyHDqfgvr/Vny8sD/nJ6HOpADkCfr0mkHUne1NpLrojeALK67wSkz+WG0qosN3T70SG7o5yhSvOLBXFUX+RFS1NdaHmGG0FHGqXi3bk2xGMqP9Z9DrQ4vu4sC1Va0AjUo8P3o8Z4utGYTwvLQ/n1JabZbd+0oVOaHQDdI13oKtnJutmj/rsOiOrbmwpt9ydLwatpGZoTd3+9yiL8g5XlzBZvDGAzo2wETQp23XVRES8gXee8RZYebg5c2JMzfQQEqGBBc41itxcWK+/q7BfGbDyDyczI4qXmTEPFzdrVT2k947/gf5j2G0QoOUZwc9uksF4vVBEHf2/OYUH+si2HahOd6VZJzF/SxSHCGjeYh0MTqTbWmW6tz9Q6s0M8vgAxMkLQBgvCRWjLAAAgAElEQVTl4a3HSnXqstK6L7trAwi9CFHEsimJbi0YwiGNrA5Y0L+vi2U/NObSzqpEsu1vwlMfkWv/4fQqobm9zFvp7rhxk3373Te0cf5Evcq966tk59ZOK/v/+jZ1ddh7oa1ltiYoS9+HewN99mwGKNJycLeF3OimAidqlgQgRKtZOr9bEyr80UWbK13BLN0e8oriRa7tHL7PrVUxhOwB7uKARrEzNIrDmX1QFHOJSiL3pEzySM4ix6BwRTfnbvzFSjdJT7eB0pupHdn6hjLxJoE53B2KhqUDmPMAYzrz4V+vP2FX5wbVhYcmh9LKKCe6XRrL/op+aEBadHMsinag2xuzdAY0jg8gjZsWpq6OV5fr0cJqe1pnSEOyd282CccVWT9/7M2l24tC6NGaSOW2PzVm0ukFGeRlbsbjMnBzjC0pEi5fvdoxk+MGyr2/o00fvqdnql351YZK2Zs6IKpvbyrIWxZKAaxpGUUqH8yoVro34MONsx1En4zz6BAhloJZXEbr994AtCik1OWFqyZ3F4/WVzZkk6dFuy7E6wMY3BuucankX1ROQbLhChnKYSMZetRxfeI3jV/4q3sK4i4+r856hh/aysmHC8bjeA+xNqMbTdopqulyTP6sbQElPOIfmhJKNTFO9GV2CP0xPOUvBerWkWnscUUS2xznQXVFnly86884npBAQHaT1IBB1a0IZ/E/Pd2eRvBJi9v92phG55fnULybDe98A82Z3Pg44cLFC3T5xs0XkH4BaKFOD8Gk+irZT41Th5r0berqsPeCvKVGE5TF9+He+O3RbZYWE6cENCzHsUGWwgUNuc+Xq33ZjwsHd7hwxIvDEHN0KBYvPm3nz46WspJIN56Hi/6KFqa25JtX3EHukmsTQxeivII5B4QQFO0MZi2rgbSFuUMH3zO3ov3DmaWNK/cPQgqyMNBeY1Rf22PwqmwHSMOS/q42iVZmudGGOHe6UhhJSGODZaqrf/plWeH4X4AzsjjWxbhRbZYr/bw5Wz8LWI0hoc/5kR8t7tD2CgJKqt/Tuj+nw1i815hC36/KpaJARw5oWNDxQUHCuXNfqQQK2wWTPtRPMKmuSnZ/bfUwax0Q1bc3FeT3V4kA1jRn7CGX1HS1tOcFKhDusXlrAK1MdxA0uTdgRSOtR1vlOkAbAQyI+WOuCeLcij5a3OlCVL0wpa/h5miqjFQGAc36DWLe6TnK3nQinMU5h3RQWK91+jB7x4zZeAZ1BrRvKDMfZNuuSdyfzc/3EZTiQAYa1NLj8mcu48kG5eVHq8OoJtmZ1se60ze5YfRwaCKHtCZYA5iwZC8XRtHjYUnKKkTRT2yoOf8fI9PYfVkCO5EeSB+G29OGYb50b2fenwpn8dy1HSogCIth3Iht48T3MG872FGWtKUxiS6tzmUVoc68YAWADvXwoi8+/1Q9oPVWtJM9bqiSufZt6uqw94K8Za0mMIvvw/+8c1OdYPamwoqE/9nD2JgOj3DX6H8GoJtn+jGp30sTdL+ZEUQbi1zp6oIQHm3WtD2sAkEH3x2q2W5sziV/GwtFFwmJ/KUI5U5z2XDmFh5LZv3hg3+RoicVkIcbAq9FSxvLWMfXSz4jvs/nbxozK0evznBGgNALAUJT7hu07WdEx+bE/ksECKXAkC4r/LDlDLA7Pj2CW9S10U60L8mHLuaHU8vQRPas3eerCuwnw5PZyggPyrA3E5qLogwSdBStZPG3fqtIZteLouhAsh8tiXCg5ZmudHZhHD07Ak1yPXzHvXSTFUu/2w7kdTJcIDQm1Y1+0JgIQFNFiAjo/izI2Y0+PfOxAKF+ZZDw+k124fuLPZAclf3RWD3UTwdE9d1NGWP/Jshb6kQAa5qT/D6bNWmsgER2QAXASXQyE85XenebXif6oDHXJpMDFvPNRaE0N9Ka3vUexHaUu2sFaBSuoH+hLvnBeKyuzPJVishbmFiSX25h11b0sJEseOhwFhoRRu5GxgTRf6s3BzCnfgPIf6AxxVoOolwHc6pwsxLGednQeG9bGuVpQ4XOlkKslSl5GBkT1P8giC4FOXr0SYOCymX4nx29FP7nf/ZnEY6W9Mu2XI15sVLg/VWXxWAZMhsurkqmXe8GUW2GKy2PcaJNcR50Kj2ImgsjCVYsXCHykWnsRPpg8jY2IbcBxnQuN5yEdvcIhyzcERomQFic4LpAbvajYUnsdkkMfZUTQnsSfWhFpBMtjHWgxjJv+mpxPE+pg+X/qh1naKejF2HbwYLOgD7IC1uUT6YP1yUK36/ModIgh3YXR38W4OhCn3x8ShAF+xWQ5oBmWxZNZnr6oJ83VJeH9F3q6rjn2lrQ3P/ccp3y4mIEBBAAaFiG1VE2Qne5z1I4ww/9w4LgDr4vdVbxs6ZYdmiMN030M2UTfU3Z/hGeWgGaf1dTLI9kww+nzYDBwPqsNpUcjQcqLGI1VnQgAoVDR7IhZUNZQk4GFUf707uB1my8vzlNCLEVFma5CzveHSx8PjdWuD4/WbgzJ1V4OD1NePxeKj0encweDkuku7J4ulEcTZ9mDaG6KC+hwt1WCBxkQlZvG5G5hSPZqGRtKAHtF8YsTO24ewP+58kZcG/89QtUtDk34jawqEUAAtbXG9Pp9OxI2jLCn1ZnudGqRBfakOBB+1J8KcvBkj8N2fczovUxXgLA+mtZHN0tj2f3ZAlwSVCLLBFWuGKSJRDW/1oeT/AjwzL+Li+czmQG074kX2qMcaNlkY60MMaBlme40tZRAfTFh7H0y9Ycaj2maBaB/yf+11dpzsu/N3FZ3s6A/iivwzgEoL9bniVkedkqAR3o5EpnPjE4oOUNVUNjdMRU391cWx80sjeavzlFgY5OClEVSES+Y0Sb8p20tp4Ba21aXMGCBpTH+5iyGWFWrHn+EO0BjXLxxmiFOHl7pRYGtzhBz1h1QCFYWBHv0R4sHMDQ4sg7LZsCK0axwbIKFl2QR1lJkVQR6kpTQmyoJt2Z9k8cTBdXJFOLJF9V+RtIlYIO8dEyJt9WRK3j03kRhmiZtY1MZY+GJbKvc0Npcbgbxft7kb1fCLNpL0qRwtnGPZCn+MGdYvOOCTuxsHtN4FcJEL3xX0RY41jj6efJwWKeR/31kngq87XiLbFgOFi/NYCmhNsJTQVeVJfpTqtSXKk2wZlq4pyEZTFOQk20I5+WxTgKy2KdaFmcE9UkOlNtmgutznWnpjJvbrGfmBlB39YmIfBH+C3sE377VXJlqD3O6JjC/dDx6EIkqG7TuidLBdBJ9NWidIp1tBT4090/+7PBru7CZ5+qcXFc+p5tWTxFXwtaqKsemtx3iavjnusC6I82rxZs2yVG8XgeajmQjg51pg76st1UEgLQKAXnehzdBP5EF8fmYlf6qjqQnuiq0YG0oqPFhAH8cHc+3WxIpysrk1nzqhR2e10GQT5TCmkMuDM1qeRoIgqW92eOjm6UnJ5IZRHeNHGwDS1KdqT9E4Ppal0aH6giKJQDVSoCD5/isTIm31tCkK3kspgqVXJ41Aaw/xiezL7KDaXJ4d7k7xdAgLQU1HB94GkF1nP2YGf67aD2vRdVB+W/6mv2yVD2RW0quQ0cpNRWMX+9PzWNDhbQFg2l1Cj8QEHMj5uy2K31mXSzKYNPWMa6X7fl8OIQbIuUP8iCiudYCeRX1FLudF5PlLG2j3KJF6asjyMI+atu82xbagdAP1iXTKdmJwmBFqZc/gBBwihfX/ry7GcqQcIb7AIH9FR9Ac3+bh6rA6S1BbS89S6bXzlG2UUFgC72NKeTQ51Jk4Kd6Oa4NM2XodpQm5JvVDjBZaFNBofUTfJscyKTHy5itzdm0e5xQfKaFCdhRZIjoY09ptUpTmxbmTddW9uxRLz1eBmrzFY0NHV8x4jlOA6k6lBrair1onNL4unRvkLlgOVwlwIZMP6olAu/t63Np9aFOdRanUnP39VO+AegfjA0ge1NC6K8YB/B2Xcw2fiFMxuPIF49CMVAiNvvnhnXbUcN1UHYF14j0PvrrgKWEaR4suMBVwRo/0+T3/XjQwVk6uB8if5szAFc6SR9j5/bXgraaXM+xJuCvv9DfrSYnm1LedE4timW9/GU/rb8GJTvEjoAumVdKu2aFC2gCApPa3BjpkeEC998e75jHjQPEn7PtizS24IG2PN0QFTf3lSQP6jVGBxE/nPLdSpOiiXR/4yBMD3Cmk7KNHdPEQG9p9SFdhQ5E1pd/dGoOXVOCl5tlp9tSqDfdmYRqtLgihjtaUrv+ZmxOWHWndrZN2S50I32TskYoGg+e3xGFBV5WNCUUBvaMy5IuLkug5fbdrCgAGbROm4qpLYludQ6PYueT0yn56PbgSzqCqtYzd2leInBq+vFUbQwxofC/X3JytJRaT3nDHGmxweKO1j+0kHXF5cBsSeHS9jEDB+l5SwCGop/q8eF6dzg9c88jtgfGAKXVqegrZZWGhyq/xf1AHDxKcdLUyxDp2/pdqopdtj2bmMarSwLFhDwxjFEIsDw3GzhUvMVSQYHuqr0OEjI6qrKi/s2dXXYe0HeskQToOF/vn7xDA12cVX6n6GlXJdmRydkTuzzse5KARYRxtI53BpnJ3rRzFBLmj7Egr6e7INehB3u4MoLSkd3hvg5WNqPGmJpQ4mnIHM2pXxbU1bmZEojPcxovK8ZzQ6zopp4e2UjztoEe7a11Ise7yugR3sK2InJIVSX7kz7RvrTrYZ0LhkJMPPed7CoDpUytEbibZWmwTpOV4i5izDGXAcgd7UtrOnfK5LYycxgKnSxImgiQB/h8IKeN2yVDtK/+jLafcENsXj4EDJ/y6hDWiMAA5fQvLLgv9QTB/Zn+6gAmhxkTt/UJOqcSik/Xqpwa6iMIaTbSc/3850Zncbe7bp0mpzooXxCxhPI7MpJQrO0ivC6EtA9SbP7W7RfBz7/J6Ht/nyNgGaP2Mn9mwQH4/Y6fZQbm5vQ3kIH3uLq8zFu3QIaRSz7Za70nr8Zw3RwmJvweO0LHQARsj2Z/7Q4hOqznKnQ3pTl2piyPNsXU6G9KY32NKPqYAv6MMqWahNedEzePzqANhd70aYiT7qwNIGX6PLGqLCUj5RxKKOHXevkDIWFLALZADDuCtLcmh6ZypD1MdLDThif4klPj76c7inSgfwqL8tPlrPG9yKV4j6i5SzOjf7Rn01I9+kApld5f/DfnhwspiWpznycXFiRrPPNpd11IaiOIy4odqSI1wjIjxQh9U5pYaPc+7fGWLq0PE3I87HjAUIEWW3eGUgb69d0UrND2fd3F3qixSFj9VPLh+nCqD69rdDWMl0joOkBq1s8SzBtL76Aj6rQzVQ41t4k9gstLOithU40yc+MYdpS4ET3a8MMosuBC+zanEBqynCgYofOcAaoc2FNO5vy338/wIzNCrXikIYVvSbNiX1cHUaP9hYoW9rz4N7KPGqtynxpUFYHa+T1ns0bQgfGB2slAv+qA8iQ/2/z1GjehRoZByKUpXOoFBZHuNJzA/ZSNOT/V/ddsKCROjg31o7ubNc9170rQAPYCBjCkn62OamD9XxnWQj9VBMpnJqVIAkQ9mf+Ds50+uRx6pgDfYMB0N9+9w3bOH8iQKuXJnTd1PLhfRq6uuy8IDyYpAnQ8ud32dRRMmWBCoozJgdbCHBvoEns2XHduzhgQcP/DOt5op8Za8xyIIiFq97p9Xn9w/xg2pXvSCPczEnVcpZa0cWOpoTfxn+YGWJFy+PtGazm62tTCdYYHpnl24t5gO/5hHRFibCB3Bbq4KvNurYRaexycQQhqPnHIe3yutUN/H+VdfDR4lxtmhpNTiaDeLGPFMrSZbg4En3s/1J+e+wfqidvNGbwDCRdz5u64F93Y+pxe5fvq4tjaKVsCHp08psd4kx5iYkCKgbhc35RRagA9PnzX9OGue/qKzfKGqplI3VhVJ/eVhAeVHQHaBSoPHl0i0pSEniBCh5/bN8aQItjrAUECLUBNHzQn4335P7nCT6mbGWKHV2fEwA/tPJRq7sLqav3Hq6OZCcqXGmSn0W3cAao4eaAL3pqkAVbEmtHO6GbwK2UdjB/kE3Px6a96Azdiy4MbeCMbeCPPlcQQntH+VNrH3dxAF7Pj5exugnh5GA8sFs4A9QIEg52sKJfdhXoFWzTFY6G2h77yV1semSSyI8UQ39Da8MH2VSXZ/izi8vSKDfIWVFN+/oAZvbGADa/eorQfFMFzryr90329VdfUNPsMay+Sj8L+m9A63DLkcvv52oC9J0fL1CMnz8X6AegXfsbUX2KLc/gAKA1BQkRMESK3e5SF/owxpowb57hxx6sjtD6YlKF9NOmWHZtbjDNDrEmqaXc1XKBnSkDoBdE2dD2LE+6vz6HhP2lCot5XDuYXwEoi/BG41RUH27N8KALy7RvoWQoULxK34NgLfK/PygPJut3FILyUmtZ3TLccO5mZqx5Q7bOvtxXad91+S/QfFYdJ2pfN8UwiPVjDDbPC6Hjc1/0I0RKp6uZFe3bvqmzWD8H9C325eef0LqZI/Vyb6BxbH21bKwOiOrbm8rl9+MEeYu8K0jzDI7LZwUfOydFAOG1AczX2Ji2ZCkyOADoM6NcSVM3FTGr48JUH+W2vyzRrwUWMjZgfa/LcxOQrdEVlKXr8+1MWfVgK2Fdigv9KIultjnZ9HxSOj3/k90YIpClc8D5jiyedqZ70pFJg+n5kZJXspRYF3jouy3gfHt7Hhud5EXogQnwqgOy6joYEnYDTNjZlWl9AtAoRum2q7ckswOCZVCWvFztw5o/jKIzizIp2M6Kl8jjyYNrcJw+0dn/3A7ozz8+Rg3TKnoA6PL3+zZ1ddj7traHAYK85Wl3gL707aeCm4UdlxhFgcpgU2NhV549T7EDoE8Nc6aLU326zeQQAS2dczdHvW5uDsD53qpItq7QnYodzXgAUApidcsIEpY7m9PiWHv6PH+wovfdS8jGkEJXm2WA+emIFNZcGklb0t1p/5gA+m2/okBGX8D9VT+HR32kOKLCE77kroKBqmCWvkb63cEPEgyWC83dD/hfergfevUzx0s7ifSrs5wh3XuvNoyuzQ5oH6s+7PKCSLpaX8im5wUTbmqwoN3MrenAnh3Uqd0VAH3zFvvk2H6qrx6qN6Drpsrm6ICovr0pa33oIMhbHnQJaGhAnzstOJtZKwEdam5Me/IdlIAGpL+e6KkzoOGbblkZrt1jWXtV4c3FYeyDOEfu1gB41QFZdR2Ch2O9LGl1kiO7WRZNAKE2wHxZ23AwD09hP5TF0EeZvjTS15qmxzjSvR25BoNLrwLCwMCC1fzoQDGrHRNKcFMg4CcFr7bLAM66yhg5qgl7sv8Ac9uxMvZwbyEvIIGEAIqbevKdhvws9J7VAVm6Du7E2wuC6cp0PyY1ki7PGUxX1+axo3PTyMPMjPv2Ld4yYsvmTFeTA60A9MmPtukdIOQujqqhK/o2dXXYe8YeGQvylh+7A/TFc6eZq7kNv7tyDQ5zY9pb4EAnyhVBQgD6kxGu9H2VT8eTr0GXAxeKNmXfuNBgOf9UE85mRNhTjvUgrcAsghqAftfHklYlObKrpZGE7IiXBd+ufkdROZjGfh+ezK6VRNHBTF9qynClUQFWAoI09v1NaGZRAP28I79dnOcVtNwMDGZe0XmynLslCsJcCbrj+ljOIsBxrS4aEaVzwYcUnvhPD/YUsP0Th9DKbHeqzXIXtowMFH7clP3KSL7y0u4uKnPhzvjxw8Hc39wBzOLYnO7HrtSm0fdrCljeEFceKIQOR3lGmnDx0vedsjjQ1fvIjkaqm1qmtwXdUC3bsnFjwr/rgKm+uyljv/2H0NZyoUtAQ8XuuzPkZa3oooKLfoiZsbA7r6MFDUh/NcFDZyv65rzADr3RpHd96TIAvbXci3Lai1AK7E1ZkYMZQ/BPBHFXcwB6uLsFryQ8luNPEHsHILuCZ2+tF6EMN8adofH0dUEI9zM3ZblxX/PV/1PiOyLEQVGtCdH/1wawGA872jUjllDSzCsbDQxFKYz+rGVYqNzXvC2P5pYGkZupqd5WswhnzOFPrSoMF+Qn9bN28b9Qer15mD/NjbZn82Ic2JwoezbWy4ymRdrTT1tyXgn/tqK8u7N0wt3lYXR1ln8nownxImnM6MriOLrWWMTml4RwNweOW7CLO5355DR1FOtHJeEN9tH65VQ3RX9A11fJjm6cN/y/9l3q6rDnjP3y3+XylhPdAfrH61/TYFd3JTj8TIxpa/YLHzTgjOnUMGemrXCSeDe/OtOfHq+N0viI9ltDNHdtZFsPYsWOZjR1iC3NjLBjVSG2NMLDUmMmB4A+PcSG1iY7sa8KhxAsV7gWFFPvwBpAhrWOOTp9/CqLo28KQ+mjTB9qSnOlzcWedGZGBP26OZsXoiCV7t1oZ0H6SI9lq37GrDzGnaBbDVGnfxVQwzrFvtzZXcjqJkRQmDPcaIobkxS0+i7j2I1LHyI8PybTq6IQhSPQdZkXY88+iHVgs6Ps2IxwWzYr0o7GeJnR4gw3LtYPkP9ZNzf8LjqmSLujwLBBIRiyNMRxhjmecL9814PwtIsJBhVXovwgnK41FLAdUxIIkrbwQ9sbm9HOLZs6VRJeunqN7Vr9QY8s6Poq2ZeN00v+lw6Y6rubMsb+neQPNnUFaORBP7x3lVLDQpV50I79jGhN8os0OxHQmH883IUuTPHW2pLWRn4UFxwCHDVpLgRAF9qbsakhtjQ/zoFhgnUz2lszpBFUnBxoTUtjHWhnhhedLRhC8PtCUB8dOUSgKqD6At4Ky7erbhyK7V58JpV393hckUS/yOLoUnEEfZwTqLCU0115SfnRyiHUvDqFBwARCBP9mW3HStnkJHc5LBgplOBLBWycBw5iEzN86fzaDGo78dcFNaCMff5pRz6rnxhBMZ52ZPqGwuKV7ndPl3HMZPFBwpMjMkIhki4Qxf+71ZRJS1KcGQD9XqAlDXUeSGUOxqzCdSCN9zWnYS4DafOoQALIdflug297oow3qRCfONH3E0+maJAhAhog/my0G5dm4OO1zImh0Oz8e550Zc5gal6bx04tyCBPc3MekIWbrWbBB8LVWz90KFS5ePkS27qkivTspiK6RS43VZa/3nepq+OeC20P5nUFaKxve36HjS8vFozbW12h5HvyEEtloYoU0BzSI1zou8naQ1obP/Sz9bHsdGUAwa0Bl0WpkzlVh9oSLBuFdWPPhrpakDaBQ2R0TBlsQwvjHGhVkhNtSnWj/Zk+dDo3kL4uDOFQvV4aRbfLY+jn8liAFtYvt4Db5wzrfiqP5YCHD/liUTidzR9CJ7IDaF+GN21Jc+c+5Y0FHrR3dAB9NjuSbjakcSgjyKSAlAo0TpSx2ZlevKOFOjjBugR0EDiblOlLX6xIIzQbECU1DT7wdYRad7/P2t0YT4+W0Xf1mbRANphCna0ZwIx9Ure/PV2H780P9xMeH5TpXKyCc3SwUmE9VwZZUYm9ESu26zhhncx5IDs+I5KUoloGPGbdHU/V9+RHS9izLYoybqSgIkNKhDPmeLIVK3/F8frVBE9Y2XRlViA1r86hr2pyWIiDNX9SNvlnPzZl3NiOxSo3bjLIj278YEIPg4Tlt9dMlRnpiKm+u7mmakI0i91YV6vU4oAfOtpmEB0odmRHy5zYgWInwlw88ZifrnChbyq9Olwk0gtGuoycTG2qCh/VRbHl6S68alCE9IxwOw5pWNJThtiSVj5pW1NWYG/GKoNtaEGcAy1LcKDaRHummBzYykQHhoDimiQnVpfsTPXJzgxTQ4ozNaRg7kKNqS6sMd2F1mW60vocN24Z7xjmSwfHB9EnMyJ4ccmP6zO5Wl7rsVKFHrGabi7SgQYrb1GBjxxKYt3BSQQ1yp3Lo91pz6w4urO7gKelvSqwxr68gLKMmjcV0fopiUJJpIfgZgpR+P7cR9zdfvb0PQA6LdhLePBRuU6Ahsvi4d4CWpXjwX3PI9wHUZFtRziLsC6yHcBGepiyT+bFcskA6fnUtIzfgaUOqVtN22rzPhdC2pzIpXx/XDi4gwWNsSgF9JfjPQjFKr/VRbFbCwbTlZWZ9O3KPBbjbs8DhTDGRhYVCZevXVNa0AgQfvXFGVo3c5RoCes7v9MwTWbed4mr457L5Q+iBXlLW1dWNIpVblw7TwGuXryaEAPH4k0jNjPSmg4WO1FdigM1pjnS/iKnF49Q5U7s5FBn9vUEzel3SP3h6XbddFnB4xsChb/URrAPE52UkH7Xz0ppRc+NcWAV7tpZ0Tw32sWcZkfZM1jSKxJfKNyJy0cn4cJNZpdqk9jFmkQB88srkhncEzfq0+h2Uwb9uiWbHuzKR5cWXlCCwYZBxy1kDUBWHXSA2soyfy4xqg2cOKj/0Z8hLSrC1YamFwbQiUXJHNbcSv+4XZgeIOhlyw6wEYGM/f/9UDld3lBEm6elCqNSgoVAe3sye9OYW8v439rsX0+3gaso3ted7u4t0wnQOHc3mzJpYaITfzqbHGzF3RsilFXngPQId1P2xcJ4nTI7oK9yelYkrSvzJmhA47ipXhO6vpYfLmRPNyXQw9URCBAqDSSpBX2qwoXQGxTjiY+ppaF0pTadvluVR/GeDjwGAkCXZWXKLzU3vwD0zVvszImD1FA9TF8w88/VVcnu10+R2eiIqb67uaZcaBHcc6dNVQIaVrTPIBPakGVPu/KdCFbnmhQHpgrpEzJndm6SZkj/MD9I62yOOysiuCWNrI2RnpZKQMOKhlWMqsGuMjqk61GFiO3xuSXxLyAt1YqGRYoBq25S9DdU+FMNESgC4NaNCCLz1wdwoX5dAAUYwWK0fseYIdiGyrvV70YKp5dlCre2FdNvh8pJfkK6H7De2ict4S1uL4JYPCatx2X08KMyurKxkA7MzxDmD4sS8sN9BD8bW7J424Rbyj1Jl9PlOEi3xTGJ9HARftldqjOg0QpLBEetOZAAACAASURBVDRcaLMi7GiE2yBShbP4usC6P6vN89Ra5AjH8sjUMEJT5CnBFuzswjiDABpAhyD/0/VxvChFDBR+N9mbYSzi6RauDVjPkEvggF4SQleWp3ayoEszMoTvr7wQ7EdGx/G9m3vqf2Z/A1rHew1j994Q5C1XRBCrm8OKvnn9Wwr1CSST9q7egHSGixkdLHFk23IcuRXakOZAh0s7uzsuTu0+RxrBwl+XhmjM5hAt6ZY1UWxNjhtJLWjRF13mbK6VLxpuEljcsLznxzqwxfFwdShA/c3ccMEQ0NXFAgLwPlmSItj2N+HpTlLY6LIMMEEPGZaq7YBBFOxoTwDmtOJIoWlKinBiaa5wsamIftxZSnj8f3JYRsh0aDshI6SkKdLSFHOsA4CfHpXR44PldGdPKV3bXExnV+cJe+emC8vHxgkTMocIaUEe5GtjQ9bvKPoC4mbxZ0BZepxwHEJdHOn2jhLCTUXbc4Hz/nBPAc97RmodrivcxCf6W1CRih9aBHShzQC2ZVSQTjeC49PCaVWuO32zLNHggcZn2xU9B+8tD6PmmX4MMaETMmcSq34R94GVjf6g8FdfWZas8EE72nAfNCzoirwcklrQihS72p6m2MGKvrtmSpmFjpjqu5sz9tN/I3nLEXVglq4DpHdsXkc2RuY8FQeDwfzNAdzVgTtzU4Yjby21I8+xg6sD733znmZ/NFwdvywJ0dqSfrAmiu2u8FZa0BhImMb7ayegBGsaGSHTwhR+7A9iuT9aWJvqyH5cHf8nALqcXd1UIHhZWvGqTSls9F0GpEXrGjdU87dMmIOxOflY21KkuwulB3sJpbEBwpi0IUJlbpi8uiiCZpZGsZmlkTStKIIqc0OFsemDhfJYfyFziJcQ7elC/nZ25DzIgqz6DWSDXjfilrsIZGSc6PtfDf057HewowPd2FrC3S/aAppbocfL2J5xwTQvWpFih+tqrLeZ0hct9UkX2Axgk0Ns6MfN2dy9pe3vIDbx7IgiPqHtZ7TdTlpdiPJuSDHABy19osV4g2GEeFDzsiR2+sNM8rIwV1QM//MdNmFouXDl+gsf9PfNzWxH7ayeptgB0D+tnVY2sO8SV489F+QtNVIYq10WWtjzZ3dY5ZhRNPCf7/CBiEEfYa0IGO4rVLg6AOpjkipDXBjaAFoMHMI/hgooMW2oqzkez1pWR7HNJR4kWjoYSLMi7QlZHtpkdADS7wUp3Bz47LJ4B9aQ4UR3G5NeOqBhuf26p5QAQcDF0MASv49Duz1IB7CKE37T5J8DGM4pn/6pyLAQ3+cQbreMkSsrft+rOsf+BDnYCze36mZBA4J4mjm/NFGoDLaimRG2rDrUhsodTRj8zcNcByIwSDJnE1buZMJmxzlSc126wVwU2kK4u+3aDhV0yI3+YcFgARY0jCXUK6imwl6tTaXd1Ulk179dLfC1dxQtr0TJUYVQP22cP7GHGRwyAPpGY1VZPz0w1Xc/oimTQwQ2MjrOfXaE3Mxt+J0Wg93DxIRtz3NgR0qd2JpkB1af6oCsDqUVzR+rpugmpoQKKLg8fquP6lYzGpC+vTScVme58EovQBYToAtftCZI4/13/awJLg58bmm8A2vKcqaWjamCvkEbaZCwu0Gk+h4Ceb8dklFxlH+HYpVXFYCv+v9SWND28MELurg4cF5wDu9sz6PxAZbc71xiZ8RK7I3Zsmx3urQ6lW6tz6KLK1PowoqU9o7vPQ/wqV4PPXmNjI4/1sfxsYMxcn9lOJ0e7qIckx0kgqf7s2urMmlZRTiJXZPM3zRiq5ctUeZBw/989rOPad2MHsiMQmqUT+UX1lUP+0ffpa0ee97Wdn9wd6p2IqBRuHLv5+8pPjBQoQ+tAui1KQ6sLtWBjpS+APSno92U0WTRStZ2fmNOAMGPhtZW3VnSF+cOoaUpTkpIw6KeFGjNLWlp0BDLSLErcjBTBhOxHXyMAPSiOAfanO9Kv+/I0tsiurMtl75YEEvXefNZ7X2fGJBtJ2SsqjBCgAX7qgPwVf9/AHSIswP9uKNEr6chFKB8uTiBVhZ48enU7Gj6/WBxp4Dxy45VaANu+ZEi4en6F+L9qNb9bIw7iW3qRF80H4ezgujK6hwaEefNU+zwdORgYkF7du1UVhJCxe70od2kAKwIWj3n1bLPGipl/1MPTPXdj7SLJv0ggrirOQD924PrlBcXragsfG0AczM2ZttyuQVNa5IdqCHNsUNe9Dk9lO6kAIefDK2tNLk9vp4eTEuTX0AawJ0Vac+rDt8PtmGYkCtdHWZLMyLseIARAcUZEXYczvParehT7wUKbQcLCH681j1ZhGXhuOamrdzq2pZLC5Mdabz3ILYo2Ymrn+kygPFoXf9+kmD6hvHfgO6hPxuAjnR3Jl2zOKQARKYOUha7LC7SMgNG+p3dLeP3cA10t4027/Gc6HYLGoYN6gy+HO9JJ4c6C4CzNC505YMw+nJpFoW2BwghlhTg6kOffnGWkPvMW17duMkOblptCP8zrOiPPvxQ9n/3XdrqseeM3fkf3WlyiMAWW2AVJ8fL0bsMQSHH/sa0Psse2Ru0OtmBNaW/8EG336mVJadS8Oq6fG22P486d2VJYz0s6bXZrtwnLfqlYR13mBCVj3Xg1jZAje2QybEo0ZEdHONLv21Jo9Zdktb0TbG8Skt+uLBbTQcA+v6uPLa2wIOWZ7nSx7OjqFXHpqUYnKeXZQnIvoD76FW3Ul/l/wefeaKfu3Bvn2550NoAsLe2ub4ug329NJH+ONSzJg24VkUXB8YFpBLOv+8tfDzcRfhsjJsAQJ+b5MnH5dXFsbRxUhxZ91MYBcjgKMjMo++v9kqAEIBuYOw//ZsemOrbHxHkLYtFEHc9f8CePfmZZFlpytJvq7eMWG2yLR0qcaJVSQ5sU9aLLA7U/+sK4u62b57pz1pWdK0hzfM6ayPYkXF+VJvuwjM85sYolMgAYnECkGFhL05yYmtzXGn/SB+6PD+U/tiaKnB1sKbYji6VxmiGrsjaDMynh0sYJm22Vd0GvtIfthWQv62iw8WrDMBX/b8B0BmDvYSHB3SrJFQ9Jy/jNW7MN9ZlwufNA4/nliX1SCmv7VAhgoQdAu2Xp/kJZ0a6Cl++6yFALOnCFG92GVkcy5JpeLt7QzynixYsJqUOB0q8v/maNswbb4gAIaufKpvVt0mr59639yekruHcwvh7bffZ+yMrBOP/6Ke08KaGWRFKvlcmOfCcaFErWh8J0u4AjffQEaI7BTxAGlbDz8sj6GxVEO0Z7k1NBe4EEGPaUORBH43yoS+nBdONRWHUslqhpvdsfRzrrm3Q082JJD+mH3h1GeRPj5SygjAXMv7Hq58pIQ7oV3EOQBdG+gi/Hy7XWSxJl/NliG1REPXJvBhCwcukYCuk7OkdA8H/kabZiRY0BJSQvYGUO1G7HYUsEO/yNDfjefPwP3vaubJjJ08rO6ogQPjZqSM9a3OlDBByv3W5nojq2x9jrQ8dBXlLiyZAI5NjQ90KZbUbAlqZLma0M19RrLIzz5GL+fP0Oi31ODRBWfX9nxZp7mcIUD9rh/WjumjWsiaKMD1ub7OF97DNU0m/NlzM3U3Pd2VoZUX3ZNDCmlpYMbhXU+1eRaAa+j8B0COTg4VnesqN9uQc6vpZRdZILts4PIBdWImyb92Cy9LfgxHxbLNCOEm8lqFwx/sQikL97XPEdyZHo52dwp0G98bQYhldunb9RYn3jZvs6M6mHlcQtgcYWxumloX3bdLqufeMPfrfgtByViOg6SG7dOEL8rBxUqbauRub0JI4e+7i2FugBDR9W+klqMJVm9foAn5F5WKSfg5peI/rNOtIixeooeYooUWDTumAMPQyAH1qSbJCm7eHgTJDQ++v9H3I6UZGDErcDX2OeuP7AGXF1IP/C+nRnekdXBu49jFWpNocGEvN033ZkdEe5G06kGBkwXq2H2jFtm3bSc0SmdFLV6+yXavmGSpAeO9vHQ69Ac3+TZA/WKEJ0Hj/2R+/spKsHBLdHNCPHe1vRfWpjtwXjSCEPhY07uhfTvKiXcWu9MWE7qsP0THiDw0CS4YCs/R7tPVF6zuIMUjv7C6gMBdF2e1fCYqv1n81YjVjURHaA+AZOEtD32tC28+17s3uUKDCr9umGHZnWUinWND31b6sItiawxnnDdZzUXYhXbjyQiDpMvc/nzOAxKgiJa+hSvZtXWXxf+iJqL8/pq0fGm6OzevWEPrG4eTiESnYfBCtS3dQJsMD0mffde90YUgtYdVlAPrUaA+qTXBg67Oc6JvJXRS4VPsySCpKwfmylp9ugi9ac9qdtoOqq+0mZvj87YfuwROEZb+BbMfM9B71JOzq3Lxq6+HWQEoonvDEcYDMDVjOd2pC6erMjq2vYD2vzXMmm35GPBML1rOzhT3btXuf0veM9Dr4nz89eYgapvVMwU6ZP10t21FTU/hf/iatnkeAtT6wEeQtdzRZ0UQP2E+3v2ch3gFKhTtUIVWGWNFJ2QuxJKTZ6SLeD0AfHe7ONT2gkHd6jCdhnSrI8Ro+NfjWxAvyZc5b92X3rpvjYxmDzjMqul4tq/SvkfoH4DgNtKBPV+RpDWjRxfCqwbfb/3OijLXuzyUEsH9viCbI9qICF8bLrQ+COrk1MG4A52NjPCnYcpDSesbxmjRuEvGc5+uK3oNi/vOhLWsN5d5gDVPLp+mJpr8/hiPQng99XBOg8T4g/eHsGUpAw4/lO8iEtuR0bCj7yUhXRI7VQlYVvIDx4WHuAixoTIeHuXcJ6Guz/CE4/udY0RviWduB/F6DNEPLpa15FGBrycXt/4a0bjeGdh0Our6luFslO+7+OFXOnh0uYY/3FdLjvQWEZUDxr+AagbsN/Qgfr40kZGkojRlJuyvpGMP7X73vzbI9cV0pjqnJP/qxqOAI+vSLL18UprRD+uLly2xbzXRDAVpeVz00+W/S9vAICG0t1doAGup215rPUaCbtxLScHUUe5l3qCSEq+PTUa7K1B7pBaO6jAvoSIU7d3EA0AeGugnKi04laIgUIU3Vhb1mVTfGsGfbUklAN4z2zhiwwLq1dnT0Z6JB7PB4T+HvdDvd4Mz9qf/sz9KDPTXmQN/dmsMb9+4Y6kvr8935tEPmQ2emR9DdbTm9dgM2xHUiP1IMlwY3UO4sC30BZ5VxIo4xBN0vTPVhY0NtlBlY3LVhbsc2bd7awbWhcG8oOqg0zRrdrqGhZ2n3ixS7e43VFbY9xNPfH29rux8syFv+0AbSqCxc9uG8Fyf89QHM+i0jNifauoOrA5BG0QrvItzFBYQLCTA+NsKDa0u3W9ACHsnEi0w6h1wihMd7DcLdpdw1xXILGqW56Ixxb2cea9mdz54fNZxvGrmxTe9H3TN5vX/r3xa0bpBGit3ErMECtE3UwRA6G98ujqd1OW6sNt6eoUmD+NTGl+Pt2bpcN3Z+YRzhnBr65qvuP+m6Tn60mJ5uiOfX/2/1UQSNZ+n4UF2+VO3LpsfbE7ohoQIYcDZ/eyCbPXNuZ9dGu//5xL4tVF9VbihAn91YOfx//03YHh4Bxn79hyC0fKMtoO/82sySI6IJUWCABI9OniYmrD7drhOk0fZd9cKRvgageZAwUeHi2F7gQmcndp3NAcHxPyOTA22FWo8U05cL46g225VmR9myuTF29NUiw3XGABRubcm7Ym808IaYp/o3qLUDNQBUNzFGrf8Zx/XC0gRanerEwSy2OFOdA9grkxzZySmh9PRQ8SsJaeTlw0CB1sbtD4O7HVsfpjoqgoLtrg0Aenj5cPru0mWm1NyQ+J95et3qDwzl3mD1VeVr/i7x7iGc8XHGkG7XslQbQGMbZHQcP7yHnMxslUL+gHSkzSDald/RH40+heiPJoWydBmPYV+/503bClxoQ7Yzr0yEgP6ZceqDhfdqw4Q/A9DPtybT9VUJQnWIJRdGej/AnDWUeBEsaUNaW3RKdjc/1OWg8T/7K59S/oZ095AGnG37D6Qzy9M6lUvDr4wekhvykSlkz1Sh3NXr01VhBIF9Xa3cXt/+eCnPe0a2xo25HTt5S8fVskwnsu9vzLOtuBH1/7P33nFRpO2e97t7zr67eza+u++ecZ5nZgzknJqcBEEEyYiCOQEiNOYcHhQwZx1zBHPOOccxjDkrKuqYacyJruve87urq2maBhrsRp3pP+pT1dXV1dV3V33rqt+V6jVgHZPb0+/nL+qEM4B94fzvtHLiQFaQYxgLemluZncD4Mm0C4yAUlkSLygVn/SFtLJUwWZNmcgbg+LOjJMAF0pGgF0FPfq3vl6Exy3NE0h7Ge9fyg6g5e3daW6iG9uc5kVIXtHe7msB+uPKeHZzcjMaF+lACzr70IWZiQSpw5BwxsXNjsnpwLRW2y1+bPjUBOaqwSyNDy8z6u5IT7ek6MzI+21MFPdxVAZjXesXJsnY9bktvyj92miwPpzBSnd2prcrEujR9DDe4kq6TmDwLOrsQbJG5vzJVoJzq+gWdPzkqQq6sxTFgfC6o7s3Gaa8qKhBv1yaK/cy0dVAI8BY8U9CqeKavoCGFv32zSM2uHcvdbsmANrpFzM2M9G5nNSBBJaLerTAupoTSCs6iIBe3cmDruVWjIn+WhKH9FhZtLAFvdmdJpaINLCTULqgPxzofitM5vDb1+7xJwHwW5+jH2Ofln5UCgeuhmMWN8/bC5Mpv50nm59YsYu7LjBL62Btb8wMpPd7DH8T1jzGL1lWHujGPm5qw8vyKuZHCqijDqs6o4kDmak69MB4ig+PoUNHj1cKZ0Aa8sbWxVMMKW+cWzIq438bCE+m3ahkjtn6AppLHfSSPXl0kyVFxxFKkfK79Y+NWJyzFe3qJmNSASUpqqM6K/pidgAtbevOrZ01IqDLWdDQqxH3+VWchMvjGBw0woFuRreq2HF56crsmNOWPzb68K3D8Vs4PsTjrx4RQ3CySsADnO8sbk3LOnqVs57ntXRjsxJcaEacM5+wPFdD+kAsPiaAekKkM+0ZGaV3527pu+t0jlRvVcNY1Jl5tSiKRsS5knk98ekDYzNr2jThzoOH6lobktUszUV54wytnGA4eaMgVz7PpD8b+L6iVJZEC0rFxxpBmr1ie7ZvIKdGZY1l7X5qxCbGOpWzoqFFV5XAAvgi5Xtxsox71zelelaQOBBm91KP3oXGAvjH9UlimJ2GlWaMixFwUexMexXr6/IGj+/fAgS/1WOAhehvb0u3V3VS68/QnR+v7kArOnuX051nxrvQ2HAHGhFiy/7RxIZPWM5takdjIxxoUpQTTY1xoinRTpTdxIFSXa1Zhpc9+/3XLysFaoxzRHOfvNSoKqPw4/I4tjDVW5D+L5RkmD1xrHC76H4VgL7PDu9Yb0h5QyjIk7c3MJ5Mu2Pszb8KguJcTQDNC/q/ecS6tm5bLqoj0dWa9qbLGKxnaaqqFCkAfWaIP1uUJAIa2YVYJ2lrmH+NRBVeIW9lPK+SV7q9Iwl1VOcBBZTW5sQKtj9/35mFkL3gQMZk/mPDCpP0HraToFKTOWLGeyT40ieNRgmlBzPYjv4hND3Giea0cGUA84TmjhzMw4Nt2JDGNqy/vw319bWhgQE2NCzIhmG9NPXxtaGuztYMDYY7OVqx3BgPerkjVae+rQnKr7Z8OIM3mIBh8mllHNs9KFBw/EUMrbP6sSEbP3yQcPueRragRuQGrOjrt26xTfPHG1DekD/Kz+lpYyKqEUZAKFWMqQmgudTBXrENqwrI5mexQwMuNpcGZmxJm/Jhd9X1KoTEAQ16bRcPnTU5kDlVVa9CQ1vOKEv6bH4Uuzq+KV0cE0r358XRx51d6qTWMKzokp1prE0TGe8bVxNofe1tESII/dz6742YW0NzCra2ongnO+rg7iikejlTmpczpXg6KdvJHIU4J1sKsrIilwZmPGqlpro7bmBbxiao5Q2M26vtqTQmRiYM9LehkaG2ajAPDrRhvbytqZubtRrAKS7WLMvTmgDtfwTbsEGBNrCcCXCWJvS0PD4pQW2hVwVixFCLcdRlcktV2xvqvU+bxIp2H1fEswtjQwUfCwteUhTtrAZmdBNu3inUaUGLzWGP0fKxfQ0V+4z9bF+U3fE/GQFPpl2yUoWvoFSU1ATSSAF//MeNcnU6cJEOCrUvJ3Ogy7BUOFzTMtZcBqSvjNSdJq5PTWhDQRqW84OZzWlWKxfKDrFlmMZE2LMVKZ50b34CCXVQyB9W9PbxLXhrotpamHUFa8lStvkJ6f+WlO7tLMyM8hX2tmsqXE2Npj8yE6i4RyK96tmKXvdsxTAv7tGSr8f7e9o2FSaH+wgtnR3I/mczbmlX95sh/8R4O9OzranqaBqM2ZEJ8ZQms2WAr9zTmnp62xDmkCwk6GrPu8usCXDO8ioPZ2zX0cGKLUgLqlKLFm8MKbQyM5DyU/2osKBNnWYlftraXsC5j/P23oxwIdzJmqd283ZWScnC9Zs3dSanoHrd3vX5hqr9zCGfn5vZ30RSI40AY0/+CykVO2sCaGwLqWN87gh1CjgeXVu4WqNvoVriOJLlwTs8aAJZe7mymtCQO3gER1XZfgZ8Dyf6nWnhVNDJnQBmPAYPbWzNp4nRjnRtWpRejWW/xELCRf9uXzrLjPX5pq1o/Nd4pG7lYk+zo/2E810jqaRHS/rUuzUr7dOGT597t2aVTdhG2acN+9ynNXsmT6QtiWGUInMlx58RKla5Bg8jYFafcLVlC+35yYbONCTMjSBNaEO4utdpbtYEqGtvh32Nivessm8gvluxtSvNbutJkEq2DwmrW0CrElhw3j6dG0lJXnbcUQhAt2oeLVy+do0AY8kxyOf3itiVq1fY2unZhgS0Ylmu3MNIeDLtFiMgCMWpglIh1ATSSF65dPYIeds5q4v6+1lY0KYuZYkrCLerKmlFG9aar++Ob0JIbzWUhazPfnCyv0FnihkRtLefP01PcOYXH0A9LcGZnq1tb/Taw7AIf1/QhrytrdVJB3VlFVf3PQCk/c+NWLKrPa1oESg8zIhXQxkwBqBrOuFzgPWrHkkMoI620108CtZziIs9u7e2M0OhKelGuLpvWI3h3NXFmvULsKfspk4k97ItJ28A1gD0iEh34c1uRPBUXX+lZFsKK8xvQy+3647Jlo7T0POPGpEcxQuihE7+9gLS3yFxxDRpprxw+bKgnT0IeeP4/u20NC/LcPJGjvzggrH9/5uJpEYcAcZKGgilxTdrAmjuLHz1gFJathCk7t+uDczYsnauapmjNgX9JUg/mlGzWtCAKyakxL4piCXUysVrtL0SJzj+4vm66mAt7evpvCi2o7cf5YbZsWFB1uz0lHidqcWGvviwvynyplTdI391QK3ufewfjjzRam3IbP7eiDBZ/60hzxjFeljL2A+29bOwpF+jfIWi7nEE67e2UNYFcQnUd9ISqKe3O9n8vbyzFDeHaT3C1MAEOIu3pNDgpq7UyUl/6xlwHtjYgXd6Ryf43AhnStHSoAHocYnepE9jYBwHbqrVgdyQ54jyUHdCzXJJ4lAsjBI6B5QBOiIwRHnu4qUKgL5++zbbYtDUbl5cabAR0WTatTQCQmnJpJoAmm9b+oJN/kd/wbJeA34BO/1iRotbuwia9aIvDvcvF5khAbiqeU2LJAGoz+ZHs8NDg2l5ijcaxwob5f70W3YI3ZoSzm5ODqfzo5vSmdxQ4e70CA7v6iAtnfyYHx3amDue1vUOJqVWcoQhLzxpX3h8frY1hSUFuRlF6gB4AVz3BpYswcGe+vu5CZPDPIV5kT58wvKgQDeho4eDEGJtSQ4/i07ATp4Ows20GKK+bWpsKeuCsq51kD8U8lYsw1NGuHng5gDrOcLdkVCeVbKeAcUr81tTN3fbChKFtmQhvQacBwWJcEbH9zJA25SzogHo5T1D1TcD6X/5Vual+1LpvSrMjp/78yIp2RsSh2hB6wK02jk4znDOwfxcefHSkT3cJYaY5kYcAVZa7C0oFcU1gTSjErZ05ngBVhcueMdfzGhRRUBXWpejMkijUD8sYX0h+mJhNFuV5kNDg+0ow82cpbuas4GBtjQx1pVNS5SxaS1kDBfkpDg3NjPJnR0dFswby+rbTBbHsqyLB+U0s2eXZiMduOrHXkNcyAAQ+hZ6WloZTOqAFQrgQUaYGR5I5zrF0At5S3rfK5kDl1vFfUSZ4m3vZHraM0m4mBpDy+MCKNPbkYIsLQhA39mqGf9MqWpbXaD9knU4nl7e7mpAo6vPsmFRau0Z44sklcPj4suBVQJxZfN+/vZqy3lKvBsbHelSQeLo7GTNMr3t2fVFFet8GOJ/NcQ+NDt6A9APZkZQc2fRSShKHGHChcuXK9R+3r1moSFD69i/pXbvnJOd+i9GxJJp19IIMMb+IylL1tYI0OwlWzl/moDsJQ7on83YguTyoXYXhvnVGNA1kTdwgh4b3oRGhjkSwNzNxYxP6a5mbERTBwKYtSdYTgcGBRH0Zn1uAqjLcWBgIA0JtGbTW7pRyebORs8ulC7kmb2bkbXW43510oWu92E1ezW0ZNPDAuiP7i247ssddVXoxpAdRKdfa6bISqSj7cJogL8rBZhb0YjGPnw/eP9LYKz9WRzT1sQwcv3Fgp9TsAq7RHjSq13lU7AB6OOTWxCs4sqArLm+m8yGxkS6cEBjPiTYkdLdy1vO2B6AXtm7KaFcqfQffGtzzaaxkO9uTWkmNLETu6dAbkxqHqW8fPWq2kkILfrixXMG6zuoam9F+TlZGRI/TPM6GAGlsiRWUCo+6AtpOArXLJlNADSggDq0s7TqclSVrFKZBY0ea/pWsHtdEMtWpvpQb28rSnMW4QxIY7mfnzVNUgEa1vS4aBc2IcaVW9Kwqk+NDNHLCQntGrHRI0KRhWbL7i1oIUiP2sa8eGGpv9rdjWXF+xIe83WBV591gHOEjR0dbNOcROjWzpkHGL/p2YrtYUsHpwAAIABJREFUaBVGUbb2lOzkRBc7x/BoDG3Q1uY14Hy5SyyFWdvyLjM4bh8bG3Z6fkVrFk8YRSs7UE8/BwJUNWGsaxmA7uNnT1ledpTmphvM+NzclMb0emdanWrKNTqHkKSyPll93gLQ58eUxUEjiqNb62Th2s0b6jA7APrg1lWGrPvMCnLkRUtGZVjWAZZMXyGNAGOK/6FUKg7WBNDb1xUIdj+bq0tljopypKMaPQtRxL8yEFe2Ht0jYBnrY92WLI5h89p6QNogyXrmgHYxY728rdikOFc2urkz9faxIrm7BevhaUmQP8ZEOtPcNh7s3ozmen3XyyUxXOaAw7BwbnzZ47aRNWmA6O7azhTn61IrPRqQi7S153IGAFgbcGp+RnLmFabG02B/L5oaFsAjOTS3qc0y4P8gvQVr7+KsbgEGaWNe/whCRxtdEIOVm5/ZRO8oDoC8s0ZCCoAMvRlTL39HtnFQBL3dDUu9LEpE1/fW5boKx3I4gz6ubVUO0AeHBgouDcz5Ewf8QcN7ZQm37twRQ+zE0DpaN2OEIUPrWH6ufMHq1Yn/JLHDNK+jEVB1/S7VB9KwoE/s3yy4mtmIWUw/NmJZje3UURxI+a6uPrQuSEODRv1bfazoV/mxbF4bd0ETzpIF3dfXmj/SAsja1jVAnRfhRJuz/OlNQfVSB24YLxZEsUtjQqlkVZKg3JtCKKbOm8tWAhBDXciA9Kl5ramxox13mOljNWMbRGAEmluz39pHkSHgrAle6M8feiXDoffFgAacn2W2ZFle7mV99Oo1RDswerMnvVJrFk8YiOSY3s6fSx1IMOnoaMUTTQBdSf7AsrRe2qazkxWDg3FoMzeCQ/DOsvY8jrku/Av6nhfIUHyyvlP5aBJEcKwVIzhgwKAWx8oMX/iB+BOW7U+N2NwpE9S1ONRlRQ0ZWpcrf5efkxVRR0gyfY3mCKDbilJZfFovQNNLduvSMWrs7KZ6JG3E4l2saF/38jU5jvf2rDZhRRvUdyc0oedzm9PbauCJcLqlnb3KAViC9bAm9lyD7u9vwyUPaT0HuIsZt6YnxrrSzSnhelnRgDT06A8r4hkaeb5HKN+aloSuy8ovLPYugaGCxaQq1ARI75zQgjsNYRVXB2n4BBx+NmMrY0PI0DqxJqhhUWu+rumyBOe+vh7qpzDozokBrnR/XZeyJ5VKClZhvF7vSmOHxsYRsv+mt/dnc7s2ps1DIujElBZ0bGICbR0WSbC0Z3cJFLDNyl5NaU9ONF2e35oU21I4mDG++oKzLrbD8dxf0Z5NjHehGwuT1eOA8+zD6kS1Bf22IIZyEtwE3IxRSMrdyp52bN6oKjVaxK5ev842zB5lUOu5IEd+eFF2z/+pyQ3Tch2OgCCUyPVJXEEstOLpTUoODyNzhNr92Ih5mpnT6o5iLPTedHfak+5OsKSP9/KkS1V0WtEGtPQaoH4yKxwWtU7JA/rw1h5+5QANaxkW8rhoFw7ogQHlLWgJ1GmiDEK7+gbqBeiqJBdYNfCuC7VwLuFR/eSkWNrUP4QerGxfZZTImpGx5GZmWWXGHeCNEDXEE7/pkWTQeOWaAriq7WHVw2GJ45RuONDaQ13s2blFbdVQqg6IuLlJgMVYKg+Lr+FI5JMqThnrsS9AHdtjkm6M1X1HXb+PY3y6oTOb18GLkAjDf99ROVPuT0MjWX4twGB4NLs5tfSw5VmEiOCIDAqls+fP8wgOWM/H9m2jpXk9DJeYkitHFbzMOsSR6au0R4Cx538TBMV5fazo0k/PWHbvTEHqV4gLLae5A9ehd3dzp2VtZLSli4wOZohyx++DfKqsz1FZ6ved8cEM2rR28SRYtMeHBwvprmUadJaHBcsNd+JwRsTG8BD7cvq0BGhuSTubsQXtPAR9w/qqgjR/5NyQTCisru8FDUCUbOuKfodscIAVm9rSjR6t7VhplAggs3x4dJWQhvWMiI0zHaINLm1UBdyavAc4X+saR51cXbg8hvMGcA6wt6VDM77tcp/V/reQvCTZ6wv17Nc7U9nngxn8pvL5QDpTLG+pDkH9tDKe7RwUKDjXFyvZ4Rrs17OfKryuiF29cZ1tnDPGsNZzrvz6otE9G2gzw/S6jkdAEEp66GNFQ4fesrZAsFVVtsOjVqyzFe1WFfDf3EVGi5LcaEMnEdKwpk/09iJdKeAo8I8GstdydRdPglX9x7Sm6hOUA3FlPEPlOTgAAdwMmTkBzgCzFF4HhyDWa4JZWk51bsRmJ8sEfXTo6uAsvf9xXStSHkjXG9LIWFvfJ5hywuwZpqvzkyq1HulIJrcQYUkjRlpXdAes5wF+ngSNuCbQrIttEWuN79mXHEHNbezUDkEJzvumfqNtpyqRWHTB+sOuFPa8IJEeL4ijktWt6fP+9DJg12A/2DcsaUxvt3elK+Oa0ZmBvlSyKJogsxUvjKYeTZ15ijducA4NbdjKlWuo8P4DxtO6DW89s6U5maPqGEWmr9M1Aior+mx1VjSSVf54cI2a+QepCyehOtnU+LIC/ipIs/UakIbz8MLQ8jHS1/MaMzST3ZHhRddzy9eGliQPzDXjpPGYd3d6OPX1LQuz6+NrTWOjXAjJCFKCCkLuNB2FEqCxbl13H14ZTAKsIeaIVdV18epcdzSTAdJ3l7Wl2/lt2Edc0HpcyDsmtOCOQ2i2kkSAORxGq+NCecbfl2rEhoQ2rGY4AxH54dGgTKbB8aPOxqHprSp9ctBnPL76Nvgfd3Zl96Y2oxt5gQwTzteHsyLpw86uZefDoe5MuS+NSvekUOnuLlwa+7S1PX3a1Iavk34HwFx6sDt7vDSJTg0OoKM9PNjDaWFcjkMji82ZvkKAVGb0h/q81dX5y1d4k9ir16+xDbNHG9h6zny4JK+Hoy5emNZ9hREQBEV3QalQVgdpaNGTRuepAQ0rGh2/d6TJGOpxwGre2FlGC1u5sXUdyyzpw3IPdl4D0pA3dsu9CS2IjvX3rVDAX4I0Oq2ULIxSO0pe58eyX1u6UqpTI3WiCjTonGaOapkDERvd3coSWQBoWM8DAqwJzWEBekOAWdoH2mUpD3Qruyj1AK6ki0oXaHVzXMCn5rWheD+XCnHSzaztaF18KL3ukcSTUgwJ2pruC2BGduDB1s2pnYszj5uXshphObfwd6GzC/XXnKsbl6/5/tPFCRzO0rmKOUBdNDWM3q5JEtCuCv6KDysTiDuaNSsyLotln3d0EkjlsHy5sSNdGRtGh7M8eDTUvUlN+TmPc//oAH/q5munzkGw+cmc/Tp9Jt3m1nMRO7p7s2GLIvHGsFm/Zmdn//uvgCLTV+oaAcbe/B+lUnG8OkAzesnu3L5ATX0C1ZBG8fbBTe1J6lMIDXpVexmh99t6QFrVeQWWtOQ8BKDPDQugJa1lhC7fmid5ueU8SB1lxZQQrH91QhgNCrRmmpAGkAc1tqXxMS7ckpbC7WA1Y7ve3pbs4ODGatBLcDXIfEUcK92tYTXpAejagAVQL1rXmXon+pHtv6VESxEemCOKI9NTRsfbRdK7Xsliic8vjLqoCZwB5o+9W7PznWJ4zLRbfQvuvOR6848NGeKcEUpXtK6z2slXmzH4lj7zaF5sBUDzczevMSuaGMIbvmqfX4hEercslt4tjaUP65OFV+vaKm9OiaTjfbzZge4ydqyXJyuaLML55cIobk3nNXcmN1Xss8UP9VlCRBydvXiJ3Sq6zy5fvczW/ZpjYOtZ/tRUVlQXJb/yOqVS0VafvoWAdMGC2SRp0bCQZA3N2ZxWZR2/EdGxJFls0gnZA5a1FOFxLadMdz7cx5f29vCpHNCjGjNEd7xdGquGKyzgs3khKLbPLWlNOaOXtxUhWQWZhGh9NCTIhqbEOxO2175YDPn6cx21zAKk3+5NZ4sHR1KAvS2DZABHISbo0bIGFqy3jwcdaB1BiqxWHNQIbzOG/IH9Asyw3BF/PSzAm3waWfHjUB9TvYbMz86GLRjQnMc58wgFI93A6hTeRzPZm80d6fa4JpUWCLszLpg9ntGMns4Kp8e/NqOHU5vS/cmhhNj/exNDhDvjmxA6ER1UhaqeHexHT2dH8PP0xbzm9NugAJoa50JokoBrDKF1LhYObMXyVdx6Rg3og1tXG7LfoCoCJHOOKTHlK8NY19czVvzfSanYXp0VDZnj9auHLLNL13K9CoOtLWh5+7ISpAAzrOjFSW5sV5oYggdInx3kWw7I1XUELxwXzLRD7wDpezMi2OIO7gTrGFYyQI0pU2bBprVwo9/zQunRnEh6lR/Dy5AaEsja+/qwthWV7hI1RiS0KI3YlQXRIJguLmlH8ngfcqhvzkENa1UCtdMv5qy1sxPNjWhMFzrFEGowI+EEUK0NsAF4TAAyprc9k9nNlDhaHhNCXWWuJFNZzJKcgRuHwy/mLCPWh84vasszBL/VMLcvAbtiVTLdHhvMbuZV9KOUi1LC+9I0Stz2ek4gnR3kQ78P8qV7k0IJcgY629+dGEr7evrQlDgXampbvoDW0AFD6UbhHa49X7xwjlZPGcoKcjINGVpnsp51wfFbWVdaWhwmKBUvq4M0rOgb185QuH8wWfzQgDuuoEc3d7CktZ1ESB9QSR3zEt245AHpA4A+1tOTruUEloN0OVlDdQJL63QBGoAEpBEyd3V8GOV39OBtjeTuFjS4sQ2dHBFMYqKJYfVmbTDres016f0106RrAwlYo+jKsmVsPLVq7EaQESQnogRqzD0bWrIuMhdaEB0gHOsYToXpsfQiK5He9kqij72TeX0NTXiLEG+trrvxvncye9mzFT3onkDH2zcXZoUH8q4o/mbWXBeF5c4tZjSPrdeQ2f1sxloHy2jr2ASCtf+nsZp1Wf6HM9nLdW3pzsRQdlPlKMR5i6dEHqWUE8jQMaiqqXBsMLeub48NppOD/GldFw9eniDERrScuUxUrwFr36odnb1wicP55p27bM+aRYaWNlhBrsl6/lZYrPM4GGP/QVCWzK8O0HgfkN6zYwO52zjzxy9RbxRD7zZ0cWOoFY0ElvxkNwanoaYVXZPKd+i48ragTOLQhiISWKDtoc/gpXFNCXPtbers9bJY9mF1C1LWAaABdVilAGDx9jS2ekQMJQe5kf0v5gwdsfFIrGlVw1fg0cicwu2sqYO7gzAg0E0YH+4lzIn2E5YmBAprWgbRhqRg5cakYCWWCxICBBTtHxnqIXTzdhaa29mQa31zHi7HoawqaQoNHA5Az0bmlBrqShtzYwhNcXFcX9NqRhz5+73pNXLe1uZGic+8296Z7s+I4EYHYHxmiD/lt5HRmk4etEvuTUf7+dKpQf6E9ZhODfanEwP8SJL4tnX34mBemOTG+jdxIB9zsTEsv6Z+qM/imsXQ4WMneNYgCiL9fvIYrRjfD0A1pPX8xFTzWScWv62V7JPCUVAq7ukDaWyzYOY0svvFUg0EWNJJMmvanirjkEZUB6QOzCVH4ukB3vpZ0HmNGXQ7ALg6yMKirnOrGZ1bVrVg8NRj+rguSZVl2F2v8LnaAkH7cxKoAcZdExOpZ4tAwd/Bkaz/LsofgKhk5eL/4VBVARyhenY/NWIOv5gxJ0z1zQh9CO1/5l1XmOXfGnJdGZ/DPsQbcUN+E4DVHupkRyOTfYXjk+Lp9Y5UHtf9NcGMscH3n52RQLPbedKpyXHGh/RROfu0N439MSeaIG2cHuxPgC2eHjHh/IeRsigJuQIy/t6CVuJ6vIdpQrQLay2zITh8JakIGYNxzaJp/8HDqpTue+z6rVts6+IpBq33jLKi+XmZ00yRG98Wiys9GkFQDNQneQV69Pt3T1j2gP68XyEuXslq6x5gS5A59nRz52F3azuWOQuRwFKd9ixJHE9mNvt6FrFmaJTG8ofViax0ewcS9qXybEJuMR/oRkgugeXIrUdYkHVsRXJQH5ezjwcz6dryFFo0JFFIiwmiQCdnsv8F8ciiDAGLl0Mb4OYOKDihtCdxG2wL6QITtrGvb0GNHe2pR4IvbRgVR/fXdSbE8H5ti1nzpoXiQ4u7+tIgf0s2NdGNXm6rgz6CKkjDkr6QHUAFbUTDRAKw9hyAxjQ11oV197MXrWaVHwFPP5jaJbahw0ePq+EM65mndI/qaUjLmZcUXToy06FSIJje+LZGgLE3/6pUKo7oY0VD6nj2tJB1apWsdhrC0oIlMCnOiad+L0l2IySvSBY0womuV5FFKMEZj4twnFRnPdfl+583JNGHbZ3o8qxEYfugpsL2AaF0aESE8PvEWLo6K5FuzG0lXJqRQOcmx9HdJa3p3W7UHK77x312TMxOe703k66uSKONY9sIY7tHC91ig4RYP09q7ORMHlZ25NzImhwaWDL7XywBcXKob8mwTmZhS372jhTm7kZJTXyFni1Dhak9Y4Vdk9sI99Z2pU8HM3j9C/w2TTh+C8toV7amZxAhpT4v3J49XN2h0oxNQx4vxqJkTRtufGxM8STJepbgjLh/WNLzWrqx8VHOlOpjR/4WFlrx4g2YUyNbNqD3APr9/EV2u+i+upzopcsXDV5OlBflz8ka+W0RyHQ01Y6AUqmIEpSKV3pBmr1ily+coBAvf3V8NKy1CAdL2pYqY1u6ygiWtBRuJ1rQZeF2EpC153fGB9d5x+/KYA8J5d3yOLo6pbkwt6079fC0YBmuZjQowIomRznSvERX/qiKi1F8tHVlC5NkbGNmIF2ZlUhvdqZykMGqFq3NugGbKH+Ilr3yCByLmfR0W3e6vTqNzi3uIhyd3VHYO60d7ZrcVsC0d2o7Ojyzg/L0gs50ZVmqULQhnYp3ZNCHA3Ke/cefEL5BKGuCFqC8t7wdzWrjQflpfvSqjjpx43sR2QGZA7qzJGMAzJhgLfcPdqAEZ2tCaCp/2pSa9fIiZA1ZeGAoLVq4hK7dLhQdgnfviYCGY3DtYjJw1AbaWV021dyoFoff3gaiw1AxUx9AYxtY0utXFZBjQ2u1Ho2atbCij2aJERwSoH8fWHXsswRqxIxqF02qDKDGXA843/81gi3t7IGwPkpxMqNUZ3Pq7mZBQxrb0JRoJ34BSpaS5hzgxoW6tps/HcoOp98nxNDNea2oeFNn3m6pri1QyDAc2ioHIweu6qbBlzUqw8EKZ6qwPk0Afi/Lb3am0bs9+he0+tLfpTyUwXVoRHRcHhFIy9u7c//L5FgX1tHTlnzNLdBNnUtNaj2/XgMGrdnPxYtlD86m4ydPqyWNmyo4o97G6eOHaDlvBGtQx2CpqZ3Vt8devY+IsVfmgqC4rA+koUd/eP+U9ZPLCf3SRGdSI9ZKZl2ubjTqDFwdEaCXk7BwbDB7tTj6q0occFCeyA6m4SG2lOJkTl2dLcs1MO3lY03jIxz4hagJZu1lgHpuC1c2r4VoaS/r6MWBrdjcpcqyo18KDX0/jxsF4P1xfzp93C86Oev65qHvseq7HW5EmPTdXtd2+Dzqp1TXuxBj9RbJK4iLVoWKbkv3oulxrixc1UdQcv5BX0ZFOqRth/g0puGDhtO+A4fE0qFFRaLFLFnO91Dr+RrbOHesEcLq5AdWZ/f6X3oDwbThtzcCqgzD9/pAmrGX7MrF38jf1ZNbBbASUCJxXpKYZYh6HZo1OaQTuar5gylNkRpbbRSHMSzod8vj2J7+AdTDy5K6OFmUA7PUD6+bzJqGB9vSjDjnCpCG1DE30bXCesCbv9fClW3ICODW9NeEISD0dENn2j60mbCoq5+wMrMxHcyNpMfrOhk/AkJXfPE3sg7/yfVFrWlSKw86NiGuyhtp6YF09mBmJEnx0PCfHOrtSz0C7dV1NLikUa8B87R3Y51ad6TZs+bSiVNnOJjVWrMEZo35gc0rjJAxKH+dnyuP+vaIYzqiGo0AY3f/k6AsXqgPoMVtStj0CWPLCrP/2Ii187ThER1nB5fPItQE863RQdzyUFcHQ+C/Kvj/a0RyIL7699wQ6ullRV2crHTCWYI0quqNDLWlqTHONBehVS3dGIA9upk9TY5yErStac3XsKr3Dw2jz3p0alHF9jI4wb7UMpSsRUDo/qoOlBvlQj29LCkv3InQeBc9Hue282bnZrT4pjtfS7/DGPP3e9MZ4NzJtgFblBZQ5c2qeGVSuadCAHqn3Jua2lqq23vZ/GzB0rt0o12799G1W4VMLBeqZTFrgBnSxpnfjtCK8f0NnTEo9hrMzv5/awQD08bf5ggw9tyyJlLHsye3WVJULI/qgBXt+LMZm57oAuui3EksARr1dN9s6sBr6qJK2MPZUXR/egShnCOmu5Oa0nN0ANcIdat0GdXqNCd9PqO1DTTnFwuj2dgoR+rsVF7SkKCsOU91taZ+fjY0PNiGjQqzozHN7Cm7iS0bFmzDJkU56rSgNSG9uI07K1ralqTqZrpgA5AWb+lKM9p6Ccsyg+j55i48OkTXtjVZB9gvSQ+kFMdGaL5LaBs2IMCGRoY5clBPb+nOzs9IrBJONfm+72VbabwHB9tTDy8rdmZ6C92RIEcz2cfdKezupKblUr7hKJzYwlVAjDmX+36oz1rHJ9GFK1c5mCV9udI5msBeu6qSNjIMG1aXK7+Tn5dl/23SxnRUtRoBpbK4laBUvNHHkkZx/0N7t5G7tRN3GCKiI9jGknb39qHboyvWLXi2JIHwiMgBhXY/hzN4fdzSA+lYT+93dqX708Pp2exwMWlFs2Soahk9DV8uiqIXc5ujQA3DhGVo2DV1NCLh5eiwIEp30y1raMJZWkbj0kwPa+rra0NDg2wYYI1paowTL6uqCWTtZVjR+4aGVWmpwmJ+tSOVRkQ4URf7hmxeF7/yTUZrIQtgny+3p7LsZk7qEq5STZN0V3M2JMiOJsS6soI0f+5sM5TVrglp7NMY+9X8jtouf9ifzo5PjKPL85Kq/G+e5bcgzXocOMcP9/ejMHurctbzvLkLeJH9SqGsYT0jnXvfhgJjSBvKpbnynrWCgOlD3+4I8KiO0uKp+gAa2yhLi9nkMXnlpI72vnZ07h8BvDaBZD1LcwT4I4b0455UgjdcuqiUh7qjODo9+LU5t75RFUwxP5JQyBwFZmBZoyQpqt7dGiPKJNI+MUdNaWQjFs9rrldGIixzOAbntXGrVHeWoFzZvIcXdGkb9o8mNlzq0Aay9mvo0cs7eZPoMKw8/A4gOzo+lnp5W7EsT0t2S+phVws4Y3xhJb7Y3IUGN7GnNOeyGttSk4N0VzM2NMiOVmcFkb7NBaT/TZ85JBvcdN7sSvtmLXQpykXn74H1vCeVP+FpAhrn3cDmzmo4I0ojonEYnT57rnzonCaQNZaRkHLyyD5aPravodO5EVa3c9no9P/v2yWN6chqPQKMvfi7vgksiOpQvLjHUtq2UyewWP+tERsc6cxbXZWr9gWvt0pvvjMxlNfTeDQvRsB0/9fmVDg+RO0Zx8kPfQ/glXRr7YtDE9DSMrb9Y3pYtd3DPyyPQ4shltvMnrroIW/ognS6zJqGBdkwyBwz412qlTgA7AWtZOz2wspbYEmAQDTBtYXJtDM7gp6s7/xFnUkA/Le7u7HRMeWbIEiARpXAfgE2dG1B8hd9j3Ts2nM00J2c4Eq7s8OrdMBpf+5beY0bHIwK6RzDHNbz7t6+5G1hoU7ZRrTG1EnTKoTP6bKkAedLly7Qul9HGiNq42n+KHlgrQFg+uC3PwKstCRQUCoe6WNJ86p3V09TRGATHnoHPRptssYkuhLaXlWAtCo8SXIU8lZCGlXCNC+E2i4/mNq0SkhDf0aZUlTF6+JkyXQBuLp1iOyAzDEixJZmJegHaIThIfuwKh1aApNk1RlCGsA+dgyPIFjLYtnWRnyO5SEh9nRySjzB0pW+21BzyFgrMgPZqAgHujzn++xPKMY9R1Uo3D8gwqnMev6hAWvbojVJLap0QVlz3fXbt9mOZbOMAWcqyMnKZuz/+XffPmVMR/hFIyAIJXJ9ivsD4gi9O7x/O/k5e/AsQ8SCohhPXoIrXVGVY6wtbGv7uYdaDWk1HY4A9B+zI3n50i5aMc/VgVl6P83Nmiew1MSCRnw00sX1AbShIIn9ANCIVtiVHUF5US6QO9ioaFda2yeEHq5G13HDwxnfC+gXLW9HSMMGrA35m+pkX4iP3pVChRNC1BY0nuyODPSjQBsxcgPSRpBnAO3eu18v6xmgPrxjHS3N62FopyD2dyA/u9u/ftGFb/rw9zECjD36F33LkgLSkDu2rF9BHrbOYnz0j6igZsZ6hznSyaH+rHBMRcdhbeGr7+fQ7UJXlTwA+vmCKDaiqV2tJY4UF2sOeGjQ02Mrxkdra9DSa9TygHVcJ4DR0K05hNElZFcae7G5K3uzO40fAx7hjXks2L+xv8Nox4+07pXJajjjvMN5PLeDO6G0KyI3rP9uxiZPnKqXYxDSxukTh2jlhAEGD6kryJU/XZaXFfR90MV0lAYZAcaKf9ZXj5bkkPUr88sgrarcFetmQ8tTPelqbiA/wSuTPfQFr77bwdp5Vkno3pulsWxGokutnYSwpKWwu/HN9ckydGNLO3jR8/WdjKL16gspgFqEpnGsZn2P43vYDhX8uONaQ4LDudu3mZNgXq8Rs6zXgAXIfOnoiZOE/oGaMob2MuB88eJ5MkJ/QVjOyqV5WUNM0oZBsPd97YSVFnsLSsVdCcD6zLdtWEUBrp5qxyFC8JBtmNrYgVale9H57ADuaIGzBRCtDrjQqWvSoUVzf0jL1ewaLkkdCLPb0duP19uQZIuazqVIjhEh1TsKIW8cHN6sylCu7wFaf5VjxE3s9cYO5aKGcK6eHR5AsS42XH9GKnfH5A686JE2kMu9vlfErt28ybblTzeG7szyc7O2mKI2vi+uGvRolUpFa32r3klyx4kjeyguLEKlSYvF5AFqp/pmDBb1iBhnYUO6p/DbQF+6nB1AN3IDefy0Zgw16klfHO5HJ/p40dEeHnR+SOVZippQ1l5GeN7r/JhySTCQOe5OD6cB/tYN/YldAAAgAElEQVT0hTo0j4UeG+5QofSkJGsgxK6gvSd7vLrDV7We/ypwNcTvlNK6RSe2aETg3FzbzYvcGpoTnOHQn3Ozc8UGrxohdOXgfPceu4F4541LqSA3ywi6c2ZhQV6Gq0EveNPOvq8RYIz9kyCUDBOUis/6WNDYBo7DoruX2aBePcmxkQ0vHMPrFODEVhWOd6lvRmF2loQ08Z5N7IUR0c7CqlQP4eJwf0LLLHRERm0PqULekSwPdkXPIkzakEa9D/Q3lCxoab4q1YtSnM2rTPOuyrLu5S1mF2aH2LJZCS7qcqQSnKX5qXHRJBghUsIQMDLto6Lc82JZS6494wns3pQwbknD4d2vqZM67t++vhVbsWJ11fozCvDv3UrLxvQ2eLxzQa783dLcrA7fF01MR2uUEWDs2X+tidOQQ5pe8up32zauplaRMYRYUTwWavbSA6zNeRcQdAIRe+rNaikWXpLArDn/fZB+ZUy1AY3Xj39tRu81WmvxcLvZkSwv3IG68ip21jUOuUMK+MAAa4LMoQvQCK3b1T9EVdS/Igi+BzhCt5bC/rTnxooAqfG4wNmpEY1SW8ckok1Qc+PWmGCGEgSQOT7tS6OHM5vT1kxvCrIWG73Ceg7xCaLfzvxeaWKK6BQ8TCsnDjSGUxAJKVNXm2ptGIV33+VOGXtWj5SKHfpa0Xw7oYQhLfzF8zts9dJF1DY+kdBNAqDGhBMdlrU0Adiwqjd1dStnPQPS6Bp+uAfvGF6tbq0L0EhkeTa7fL0PFEy6Mr4pDQmyoa5OZtTV2YKXG0XJ0VQXS+rmKs7xuqtzxYJKKc4WvAARiiZBypAsZoAZy7sGhNCrbSnfZSSD6EyUM9Rbvr+iPZ3/tQUdGxdNR8ZE0Zmp8XSnoK0qPdy4kSD6wPrd9s70vCCRHs+PpWdLWvC6L58PpDNB3yiVo3IGWQOfhdWM/Xzak8pLE7zb2oku5QZTnxD0gBTPVRgZ2UOzeZU6bUkDrwHn8+fO0Nrp2UbRnQty5XsXZXev912CxHTQxhsBxl5YK5XFp2sEaVUYHkD9/HkRrVmznoYOHEptEpIp0N2PbH+xKAdq6Hu9guzU3VkkC3pfd3da3k5GJwf5kT7ORV2QRnbi87nlIQ1LGpCeEucMTVoY6GdNI5rY0bhwR5oc6UTjwh2ov68VpTqbEYCc4iLCOtXZgte36OVlSTPiXHh3jYWtZGxJGw+2vnsAnZ8aT+/3dPtu4YwU8YN5kTSnnSeNinDgae1Dg6zZ0MbWXHfPbWbPFnb2oZuLkr9qGrdiVWueiaqZ/ISSAEXTwwndTz7tSxOta12wVq17t60zoZTonQmh/DMoP4Ab1MfdKXRvajgtaO9OXmZiJ24YFaG+wYjeYLqiNwDny1cu0aZ544wF59v5uZky413lpj1/1yPAPhd7CaXFN2sKaWz/6VMxK3r0kJ/YV2/eYuguMX/eQmoe3EzdlBaJLu4NzdmSNi50REOD3t/dndD7cEeGd7nYVF0grmodIK1tSQPSJYtj6OakZnQyO5gODQik/X0DhH19AwTMd/b0F+YkuVFPTwuW4iRm4sndLdj0Fi50eHCgcGl0KF0bF0a3p0YIfyxpSW82dyThUHejJYHoY1XWZhtIFp8PZrDfpyUQmrEOCbSmAX5W1NfHknAj6uFhQVkeFnwZ64cEWrMxkY7swszEuv+tKKC/tRPdHtekXJU59X+vCo+7N6UZQVN+v6MLL9gFGQPT5/3p/PNPFsXTnQkh9HBWJMESx7gBzmJ9mAjakeVDMc7WhPMSlrNdfUs2c8Zs3YkpKL5/4zqP2DB06yreWzBX/nJpbmar7xogpoM3/ggolYpwQal4WBtIl7x8QrfviTVyYW3cefCQ7dl7gFvTkuQBqQPOw33dy5yEkDiWt5XxNkOXR1Tf71B9oarSyzVfQ+54MktVOU+jFClAjUlyImrOXxfEsrN5IQTH4tp0b8LyyyUxDCF7kEr4tDKefcC0Ip59WNuSlPu/3SJB2gAHnNFpZcewZsKgQBsO4gyZOU8Rl2p3aM7TXcxYD08LGhxgzSbEOrP7K9vrF6WCrEIDZBYCso/mxVRIw9b8n/lynioKY1wTVjQtHKVu2cNZUdz5d3tcE4Kl/XJtG965nEsiqF+ytRPdn9aMjg3wo04+ZQX5cX6i3vPlGzd1aM9FDGncu1fNN0aFOkSAlObnyoeuXp34T8a/wk3f8N2PgKo86fPaQPrlq6d0535ZcD+6TeSNKKuMB5kDXcOnJziVs6I3dBJb3aNhZ21lDukCxuefzKwIaU0oay8DxgC4BGPt98u9XhbHPm/r8FUf/7UhXNVrFGnaMrgZZcosSBPE1S3DokZ37c39gqlS8KK87J6u9GlzW/q4Lok+rk+mT1vbU+nelMo/o5EJWeG4j8oZrF1uPeu4AUv/cYV5XiDjoXOjGrMHM5vTq/XtuFUtglnU0rHu3qRQdmqwP6X/W+w+egzCR2LxQwMW2SScjhz/Taf1fKPwDtu/cRktzTNGOJ0cTsFFq7O7/9fvHhymH1A3I8AY+3dKZXEXQal4WRtIv3//nD14/JAkp8qJU2dYs4CQcl3DY5ysaGeajB3OFC3pXWnuhLb267t60vXc6pNcKlygWhczII3oDmO13Pq4Pql2AKoKTkZ4D9EZZ39NROsvhnrR1UFZ+/1eXha0uKMHHGsVbkile1Pp44Zker8ivuKTCZ4+NrQWQV3D3yXWaK75kxSenuBQRKag5AhFBMinvWkM+7wzrgk7PsiPUgLs1U5BWM4Bbj60afM2nXBGbedD29fSstE9jRFOBzjvWZLb6+91c2WbvuVPMwJijLQiQ1AqXtcG0p8/FbMnz/+gW/fuMVjRUydP5+F4UlQHrJfcSEe1FQ2ZY2U7GS1MkrFTg/y/2IqWAI4a1K+WaDSvrUTmKGcha0gjla3/sKoFKfd3qwCtChZhDeFk6M+/35fOpiR5qIv6awO4utfd3cxpdpKr8v2OLoI6cuJQd/4E8WFlQkUwa40dtvm0pR0pD6brVRsEML07OaxcEX3pv6xuDqv79cb2BEfg5/3d2LvtXbhGjXhnJKPs7OVDLdxtuObMLed6DZi3oztbvmylbjjfvceO7t4kxjrnGLQjt5TYcsHUHeVPg8y6/yGMsX8WhJKe+nZj0Qa5slTBXr95Ro+e/kHnL12m+PAYsvihvvhY+WMj1sTGgjZ2EcPuYElvT5XxDiab0rwI2YbVXZD6vl84LpgB1E9nhVPx/EgqWRTFof0mPwZJLmVdW1Q69ZuCGPZ8bnOdCTCawP68vePXBfSh7kx5IJ3r4cp9aYJyXxopD3QDDLl1Dyvy4cp21M/fhlJ1FPWvDs7S+7OTXIUPO0VAK/eprGYtEGNcUI9b0vo15/y9tS2pdFeXqp860BpMqz+g9n98LSeQ8YSnoX7s0nB/Qpf567mQNxrz+c3RwXR7YhjdmRTGZRKA+VpuIFvQyYOCNHoMwnL2dfZkSwuWVxpSd2zfNrHwvjHgnCMvKsjJbFz3V7XpG/9UI/ClkAa0AeqPH4vZutUrybGhDfeYw4KBHt2viT1JMges6BXtZLQIVvRgw1nR/CLXAD4ehW+PDaLCccG8m0vR5FB6ND2MEKaHIkz3JoYQtlEsiCyXRq4JZw6dNS1JiZjcOrSS4ZzEjeHjxtYEZyUseW7Jrkyg9ysT6MOqBPqwOpE+rmtFnze1odN5zYQRwXbU28uS5O4W1N3VnMscaS5mXPLgbbJcKpc+8H5+Jw/h887OAnT3D6ta6LSaAWTFomh2fXwYnRgaREcGNaazI5vQo1nNy8YQDtcNyVS6uysiYcrGDYkoiK7Y1ZXuTm5aqfV8OdufjvXyLAvTlLuzI1kedLyXJ53o7cXnKB1wWO5OF4f5EQog7e/nSz1CHQmlCOCgFjXn+izEuzEPC9UVTgdp7vj+7bRiXD+jJKIU5MqfL82Rt/hTgcL0Y77eCKgg3aO2cgcgjbKl798+ZvKuKepiSwhv8jIzZ8vauaqljp0qLXpjqidvDKBtQalfA7ga1cjU67W0aL3XawCcfyavMXs0I6wMLjosRkAaOqu+j+9fAnJYrp82thFhXMmxaN5AAMwncyJpVSdPnmgzp4UrmxHrQpMinWhMMwcaGWJHw4NsaZC/NfXytKzUeQiJY0+/AOHj6hZVjkXhlHBan+rNJaqCtu60rIMHLe/gQRvSvOnmRK1xVEXCQPr4vKMTle7sTB82taOHv0ZUGmYJKxm1W3ATl+Lndc1RQgAhnNu7udPIaGchwFqs7wxjAKF0mFpGt6Bde/ZVKmuo4ExGCqd7XZCXlWqqUPf1ePan/GYR0oruglJRoi1l6PsaCS1nTx0ibweZ2oqGVdPZ24b2a4TdrekALdqNnRhQPnHl0dwYer2hPb1a145eLG/F41uRuqs3hGsIb1jSuup8aIKQQ3pdK4K88CUAruqzpbs6V2q5ah+L9PpVfgzb1dO/XBbkAt6eCy26xEnKjpyV4MpyQ+0pUyZa15K0Aet5cKA1FU5tRgC+tG/NOdY/+DWCw3h1Fy+6OCqUcGN4viCans+PoqdzI9mLBVFVwh1S04OpoZXCGf/vpWz/ChmomoCW4urXdHSlwU3tCfIZt5Ylq7leA4ZM1/49+9Gps+e4X0RXpiBkDSNazu8L8uT9DmRn//OfEhKmH/V1RwCOQ6WypKOgVDzTF8q6tps0KrcseeVvYpcWzbC7PenutDjJja3p7EFXc8q8+U8XJ4ge+mNynqqLeNmS1a15fQVjQBqJL+g2rgmkypYhKyDcrCrQ1ua9zzs7Q7rQCcfKjgWhghdGh9KkKEea17IsTV0CcmXzCc0dKcvdgkH+kCC9Os2L3i6rWIxK+m4A+nxuCO3p7U/P5kXp1KArgzsibF7Ma85lpur+v7ODfMukDVXkDwANi/lAhjtb1NqFuvnZkre5qiKdCszcaq7XkDULCKVFC5fwEqKI0a8A5zt3uUOQN3s1huacK/+UnysfMW2a/D9+3avY9O1/6hFQheC1EJSKB7rgW9069Dp8/McNFt+suVrqgBXd3MGStqa48QsOF96mLqLD8EgfH64l8gt4dBBDB3GkAL/b3pnebevMniyMo5ujK3YEly74qyMDeAU9FGM63d+bT+cG+9K1kQFVWmzS56FNSzCqbg4tmMdHa+qrX6BPw6mmT6SE9nEB0Dv7+PPu5DPinLnjtTIoa66HhT1RA9IToxyEu1PCypyolUgrSPR5UxBbaSKQ+vhUVjhKxKKje9EkaP36OYNP9fOuAGhYzXAyp/nZkmsDUWOGbMb9Gz825DVhPGxd2KC+g+jYb6cqkTSKGOKceSgdKtMZB86fC3Lk4+Zkp/7LnxoOph/37YxAaWlxqFCquF4dkHW9D6lj97b15GJhp5Y6cFHBYSg9tsIq2t83gK5PDOeOIxS6ATRv5IoWNV5L6ySYas7hUMJFDSeStE/N+Yne+hVnQu0HRH/UJJ6aO+h2duIRFZUmeFQDbjjSKnPIqYFXCTBhsaJpAWpr5DS1o1/j9Gt+K8Fa0qmRNFSI2heTQujp7HB6uSiaR73o/P5lcezdsrhyVQWl7SATvVoczaGMaBo4ZzX/q+qWEdHzWx+vcv8j4LyivStFOVrxIvvQmCUwI0LD1dKBpXZIoS1bthPqNut0Bt4TMwSRhMLjnI0DZ2QJTs4f3/e/fDtXr+lI/hIjwD6/cFcqFb/pgnB16z5/es5yhw0pkzp+bMRkDc3Z/CSxJOnRXl6sZH17HpaFspAoeoMCOX/MieYFdG5W4iSExQxL+XCWRzlnkmakyIEMdzqY6c5qUuL0/uRQKqlGS5WAJM0RYYHsOjjDYA3zuOmqUqERzYBaEjs6IRqjnKwByFUmFUjfJ82RFXl6ZBNCX8XhwTZsZIgtm1GD/ooA9ZLWMjo7LKDs6WVUYwbJB00SHkwJpT+mh9GjGc3gSGVo5IvxKZocKtyfEkp4jScP6T1o+fgsB7G2M1YPv8D13EA61lOM3sD/CDhD0gjVCJvjenO9BszdxoX1lvemTZu30tWbtyvVmiFzoLbG7tULVBmCRolzLi3Iy5qyYGz///aXAILpR357I8DYK3NSKjYLSgVVB2XN9yF1PHl0k7WOiS8ndcAi2pLixo728GD35sTzrtHoli1lhkF3RrEbFMm5NyVM7SCEl//cEF86qrqQNa1lVMvbkepO6zrKaFkbGaHux45UGe/mUpNGAYAMrGnN2tMSFPWZIwQO1vWnTW15qBygXbonBZOAOfRm7cw8SAcnhwfTtkxfQuGmqvRg6RgA8qfzomhagjOhSh0gnRNqR7PiXfSWO5a0lrHzw8sDWm3p8psjomi0JsBWe101QNYn3h2xzsd6eHAw7+omY6OjHMnXwlwdNmelKnaUEBFH6zds5hbz7fsPKurMqu4ogPOly5fEwke5cilpxNDzzwW58ommFO5vj1l/uSNi7M3/EZSKWYJS8UkTwtUtozsLojoau/uo08BhCXX1saXd3WTsaA9PdmNyc3q9uZOq4I2qMarKSfhybVskJ9CFoX48DlYTylje1c2dVneQ8Up5iFxYlOTGsxW3pcgIEgq2OT2gZo0CeHz0/Krjo9WgrESCkN7nc6RJr4hHurROrbtkcQzbLvfj0RgIX3s8J7LSiArN/QLSsKJzw+zYsCDRks4LsyNo0nNbiDWtJUlD1xzfdTFbP51eDW49rGFsCyhDgjozwIdO9vUW8NRT2T6gUR/u60OzEp0JElikoxXZ/YSQuTJJw+ZncyZPy6STZ86ywirALJUeOHf2FG2cO8ZYJUMB+o/5uVmjTbLGXw6F3+4PZuzRvwiCor+gVCiqA7Pm+7Ckt21cRe7WTura0SieDsfPjlSxVsfxPj7sQm4I3ZoaRffmxLF7c+NZ4a8xdGFEMB3rWV5jxiMwQvY2dEbCixjBsLSNjDZ2ltGebqK0IckdAHRt2m3hcf5dFZENACUA+XxBFDs8sDGdyW5CsIQ1AVqTZUAaCSC/j2wilCyK0Xs/75bFsePDg2hcpAO3pGFN/0NlTY8Jt6eJkY40PdaZ5rRwJU1Io0GBWBOlLIKmMoDqux6FjNCjEg5a6Mk8XjnLgz/1VGZFIwvwtyH+lOhuw6EMZ7KUbCJJGk5mdmxkdg5dun6jUjlDM2Lj1NH9tGbacJZvHL0ZcH5XkJc5bPWkXv/5271aTUf2lxwBVRhevKBU3NKEcHXLSqWCLV88j1wt7NWQxgXY0s2akMTCgZohYwd1TJLVDCjv7uZOm7vICEAGcApau9HWrmXWsrSt9hyatb6gwXb6ht8dGxIE+LGl7TwIkoO+GrIueOOztf38nWnhtLOXnzA/2ZXGRthzbXpokA3DBPljRIgtoXMMYI1xW93Jg84O9a/RmFQ1fkjJRqaf1IfysNyDnezrTbCiK/scLOeruYGsX7iTunYGzglMCJ1D1x40hZg3dwFdL7yjo0TovTKJ4x4iNQrZ4Z0baMX4/saE88ulufKepnZVf0n8fT8/mn0ucSFlyR69dWmhhJV+LuaQlsGS/kFslwVrydvcnA0Isad1ndy4Fx8OIulCl0CLkLyC1txi5t1PIGesai+jfenu6mp50raAPT6vuQ9Y0UiE0IYF1sHqk9bfHhvEAA5MJQurjo+G9bqzhx/NTnBl61K8CVawLvDWxToJ7iWLounulDDh+OAAYU1XGcEhOz3OkabEONDMFk60PsVDQOTGlZGBDGnS0u/+0vn5oX5w3AqQk+AnuIJu71Vo07CcEf+eG+9K9j+b8ZIAksUMOMMRmJHSnfbsO1BJ6FwZnKE3X7l2VXQGjupprDA6WM5P0OjVVNP5++HUX/pIGXv6g1BaPFVQKt5VZ0Hz94USXrNj+6ZVFObjzzVpnmSg0hr9LCx4vOu0eCdhfSdX2tNNxtN+AVw4AZEiviPVXUDZUkgZALImzKE54zM7Ut1oUxc3wj6gc0vghnMR9Rs0wQHLGrUdAGlELyBpBfU5UK+jugxDQBEJHGu6eNG18frHUusDbOxbH2eh9r4kCxxlWHGTwW8FCC+PDCQUFAKIsf5LgVzbz+OmUDiGyxqsTzMnspPgrErRRjPXUTmjaefuvTzhBFUSNeUL7WXA+dzvJ2nTvPFUkGuUKA3JsXhraU5GpCl9+y+NvO/vxzPG/qMq8/CuXpBGzQ56ya5fPEqD0ruQu4UtwZqWQA2L2v6nRizQ0pySXK2oZ4CtMLKZvTAl1lGY3cJJmNfSic1v6URzEp2EafGOwtgoB2F4U3uhZ6Ct0MXLWkh0sRIi7CyFxpYW5GduToND7NTOQoAaVvVvfb24lYfH75N9xdoPp/p7051xwYSUZAly2vDT9RoQL1kUbRDLGRb5u6WxhBTuMzlNaFlnD7o2IaxGx4N9PJnZTP1EUFuQGvpzsJgB5nP/CGBzO7pTJNpQqYpp4b+3+8WSOwF5Qf3796vXmrmkcYcd37eNVk8eYkxJg+Xnyk/mj+zh+f1dnaYjNo2AagTY55duqq7hSn1ADcfh25dFtHdjAaUmJQpOjazJ/F/FTuFi/zjRWYSLGHWlHX5uRM6/mJFLfTPmUt+MnH4xI6yzVXdqFreXnEzS3LOhOc1vJcZdS5a0NAesYT0j0eVYDw+6lhNI6NKiC8SVrZNgzhM1lkQTZBHFgkiGcqevl/BSp1XCG5+D1Y7v5XHGk0Lo2EB/ymlqx4Y0tuYOQMQ8V/b9musBZ4QIfk0LWQI7jgFAxnQlJ5Dt6+dLE1u5UZwbnIEaVed4wokjGztqHF25cbN6MPOu2/fZ5auX2e41C2nZ6F7GhLNQkCffUDC6u7npQjeNwHc/Aoy9+l+CUPIPQal4oQ+kUf0OoH5dUkT7d22igT17Uoh3ANnXt2LmPzTgTiJY18gaEy1ssVJZZcvYTtpWcjYB1HHOVrQd0SIaTWxFa9qDXc0LFu5Nby7cmtRMuDW2CS9ByrMKEcFRSfEgQBERHurMuWlNuTyC8qYI0QOcMC8cG8zLmkpJH5AdnswMF8SpmYBEEO0ED3z2SD8fGhFiyxAyd318KFULaMghS2PZ4xmirCFBUt85l0FGBtDF4X50drAvD41DhiaeLjBhGeFyiM7ANogrx81Maj+F75GADEsZQD4+2J/WdveiUQmu1NbHjrzMLcQyoBqhc6gbHuwZQIsX5as782hLGOVeq+prnDlxmDbMHm2sSnSSpPEe2YFLRmX87+/+wjT9ANMISCOAKA+kiCuVimOCUiHoDWr2ijsRH96/xvZs30ijR+ZQ5zadKCokggJlvuRp50ZI7XU2syNULHMysyNnc3tytXRkHrYu5OPkwT3+0DCdze3LpZcD1v1DylLMAWdEi5wZGkjvd6bwRBnlITE5Bu2U0J0D1ixqR6NTy9uCWJ7+/KYghlvIADjeh0ORQ7AKZ5j6fV3b6Fo3Siw+v6mbB23P8KQ745sQig2htgVS0WElS1Yzlt8WxDI0KECqtr5AxnaAMkCLAkUo8VlZurz0tKE5h8P1eE9POtlHhPfxvt7CLrkXLeogo6GRzkJrbztqbGNJjr+IlrJ5PY2Y5nq4yTZgHnau1CM9i/YdPFytExCQvnXvPs8KPLB5pbGjNADoxwU58nRT0SPpqjbN/3QjwNizekKpYrSgVBTrA2lpG6IShjoenz4rqOhhEZ2/fIWdOHWa9h88TDt27qYtW7cLGzdtQX85Yeu2HcKOXXvYvgOH6PDR43Ti1Bk6c/4CLZi/iDzsXNWQhkwCaWRyXFkTWwD68uimZQXlUTcDadhHxP52SDl/8GtzDkho03fHN+EaNSzjmoCwtttyK1yKsoBcME60xnFjeDC1KbrHMCzjuGpyTMjGvDDMj1vGAK0meLWX8cQBJyymo6o5HLHbUmU8NHJirBP1aGxH8c5WvMKc7U+izAQg48lFeorBEw9C5mx+MmPBHj7UL6uHsG37Dh46V50T8KbKav795FHaPB+OQLkxozRYQZ78zNK8rCYmZ+CfDkmmH6Q9AqI1/SKElIoDglKhlzYtgRrzjx9fsIePH/L4V1zIfLr/gGeSIc33tsqZJL0Hjz4mvJ4ycSrZ1bcsg7SqccCMFk7qWN2TA/zo5YaOBDAjzbxcqdCjclZ6IJ292dyRni5K4FY1iiohzZk/2qORQCUWcE2gDKngyogAdnVkAAM8q/0svlNzkiCuxxyxyr+pYpUl6AK8EnwlCQjx5ki33tzVjVCsaHZLZ8qLdOQwTpJZ8zrMbg3MuG9A0vqlrD9AGUCW5CZA2cvBjdq3bEPTJk8RDhw8QNdvF+qtNSN8bv/mFbRywgCWn5MhyQ/GmH8qyMkqWDa6VyPt89j02jQCf+oRYOz1/y8IioG1KV/66eML9vjZH3S7SEd9X1XdhXI6JX8cLmJXbt5iA/sMJOufzNWQBkw8GpkzwGZfd9Ey/K2/L92ZGUNvtnXhdZ61QS29RoPSt1s6UfGKJHo8P5ZQEhWtmwrHh4ilUGsIa6kSn8pJybMd0eoJWi/qUlQLaj2ALO0Dcgb04/0Z7jQi3IHXVB7U1J5ymjsAvMLICAcaGGpP3QNsqYOXDbVwtaZwe0vyt7Qgt4bmPE4Z4MX4masy/aTKcppAhpWMDFGZlQNFBAZTRpeuwvQpU4S9+/bT1Zu31DdU7f9L+zVusjfu3GHICNw4Z7TxreZc+eP8nMxeppoaf2oMmX5cVSOAGtNIbhGUimV6x00rFQyWNPodvnv3nJ48+4MK7+sHalzkF69dZ/179Sebny3UkIalh8SITt42/DH9UIaY6AJQoybIizXt6NPebtyaloo3SZa15uvSg93Z533d6MOuFHq1vh3dn155KycJlJijJgUq7FUlL6CIFOK1NT9X22XA+exAH9qRJqN0f1uCDCFJEBJkMZfgKwEYr3k0jSqzTy1XSBbyD/W5bIH10PybeAVS17YdhfGjxwjr1q4Vjp/8TYSy6slHG+5+060AABC7SURBVMI6X0POuFfELlw4S7tWzqPlY/oYM0IDVrhQkJt5aFlujwCTpFHV1Wt67y8zAow9+M9KZXGCyolYY9nj/fvn9OzFI7rzoOoEBgAAkL58/QbLzc4lFwuHcinmAJBnI3OW1diOVnVw5UkvhzNl7EgPT/b7sMZ0c2okPVmWTK+3dKaPe7sxOBEBagnSvPqeqgIfrGveVKASqxbSBTIWYR3DYtbWenW9BsARMVFbMPPPAc6DfGh1R1dqJbPm7aEkKEvAFS1gUZaQomMs6okShXk9RNJIkTENuKTh1NCafBxlFBsWRT0zetKMqb/S5i3bUcRInVhyu+hB1WnZOp58uBPw+jVeVH/1lKHGBjPgXLI0N2vsouzu9f4yF5/ph5pGQN8R4NXxhOJeQmnJDb3TxVUWtaRPFyseU9HDBzxES6dFpoI0irkX5C+jiMZNeW1qgKgMTI2Yj7k5yQPtKL+tC+3vLmNH0G4pA2F5Hux4H292ZkggXcwLpeuTIqhwRjTdmx3HiubGs3uz46hwWqRwY2wIr7inCVPNKInjvT3VujdgDK0X0950Ge/TKDnitEENSCPKQi9tWuPmAAcjL0LU34cmxDpRkLUFL3gvQRn6sPVPZsy+vhU5NLAmZzMbcrO0Jy9bJwp0llFTT2+KaRxEbZo3F7oltxIGpKcJY4cNFuZNnypsWLNGOHT4CF24cpVDGJXl4A/AzbCy/6Cq9QDz9Vu32YmDu8TQOWM7AXPlVJCX+Vt+TlaEqW+gvlerabu/7Agw9tJMKFWMEZSKPzQdhPouf/5UzF6+ekoPHj2gW/fusRs6rDMAAo7D4ydP07CBw8jH0UOMl64n1gPBozwsarcG5izZ3ZrGRjvS+s5uPAMR8KyqkBOiQfD+cejHA33o/FA/DlVUc9OWMaR9re7gSn2a2FG0kxW3bLPDHWh5e1fai5uDKlqCf6eqLx86w6DWBRyKmjcBaRnp01IcMtadHhbA5raXEQpRQc7BbxNvSKJlHBkcTrNmzqHVq9cK69auV27etEm5c/t25f69u+no4QN08rdjdPbsabp06QJdu3GNbhYWstv3isqcs0X3aw1kCdZcZy68w06fOERbF0/h3U6MWH1Ociq+QInQFdmZf/vLXnCmH24agZqOAGPs37PPJU6CUvFrbZrVklLBSkuL2es3z9ijp5U7FG+pHI279+4naNP+rt5ixIGqcJOkxSJz0dfCgtp62NCICAda0saFEFqGEDMAVDPqQROkmhYw1mtuuztdxha3diFIKrDYpZuCBE90mklwsaahYeL37UiTMXSEkYB9NMudncBNoL83XRjqy6vEXR3hzx2KF4b709H+vlTQxV3oEepIYQ6op1wGZsAZVrNDA2uG2GP07oPlK008IkalFaNtFKxabhFzq7h2lrEEYu05B/Odu+z3U8dpx7KZtHwsdGajRmcAzqUFuVm7l+VlBZkKHdX06jRtbxoB1Qgwxv4ZLbYEpWJObUGtj0MR1jTAcfDwURqTN5aiQyPJoaG1mLmoZVUDbs71zViwjQW1dremvk3saVyMI81PcuHa7pauboSQNESFIDxtb7qMAa5odFrQ1oUmxTlRryDRWkYsNoAMOEtyg1puUTnqcJPAdk1tLXlEBRJscpo70phoR8anKEfebSS3uaMwJMyBAx9Wf2NrC24tSw5Azf0DziHejWnO7Hl09VblLaK0YWrI14A+IjPOnj5BO1fMoRXj+tUFmAHnm0tzsuSLsnv+T9OFZhoB0wgYYAQ0QD1TUCoe6St3aG/3/sNzxh2K93U7FKX46XMXL7OVK1Zzp1eQZwDZ/GSuhrUUyQCwShEO1n9DbRAz5t7InAKtLKiZvSUhnTzB1ZpBtkAfPVjgAC2scXyWg1mr1rH1380YMiGhByNETRvW0vfpdOypgK55XBKUMedxyD/UZx62rqxvj7506OhxMWOvllpxbWHNwVxYyJBosmP5bFoxXgKzUSvPAcwvlubKpy4ZlWFpgFPStAvTCJhGQHsEkOjCPikchVLFWEGpuK1v6rg2qD98eFElqPHYLbVROn7yFM2bM19I69hVCPLwJceGVtyxyIHH05RFByMgqClTSBCW5hLYpe0AX9SewNzT3o11SGpHM6b9Stt37qYZ02ZSm4RkcrdxJqu/iVl3mt+nuS8JwoA2X4/9qhJDOOS5lGFFob5BNKB3f9q2Y5fYv6+asp21BbDOz/GEofvs2s2bPJZ5W/50Wj62r8piNjqY3xbkydcsyc3yMzkBta8o02vTCBhhBHgMNXvZSBCK+yiVxadr2hdRAvaHDy/o6fNHVSa9SLC+druQHTl2jPIXLxaG9u8vtIlPEJp4+pKblT3Z/WJOVlK2nCoMTQSqGJKmuQzgAvL+Lu7UJj5RGDdqrAANHFIDj4Aous/nl2/cZLt27abpEyYIPbt0ERKbhlGIzIO8bRzI1cyaHBtYMPtfzFE/mTDHa6z3sranIFcZxQYFU1pykpA3ZLCwavlyHvaGmGJJztEJ0kocqrXdVtKtUWnu2N4ttGneOFW1OaNrzLCYP0JnXpKbFWNqRWWEi9C0S9MI6DMCyEpUKotbkrJ4nb5V8yRAS/M3b55VG54HSMFhJnaOvssuXLlCh48coXVr19Ks6dOFEUOGClmp3YT2ia2EhPBIoXlgE6GpbyA18w8Sops0FZJj4oT0Tp2FEUOGCAvnzRP27ttLl65e4zJDZdDE+sL799mNwtvswoVzdOzwftq1eZ2wfvliYfn8WZQ/e7qweNY0oWDuTGHl4vnCxpVLhV1bNghHD+7jURfXblwnKdqCw9LAANYJbpW1jHZTKJy/f+NSWjs9mxXkZdWVxvyxIEd+sCBXnrw0W/7f9TmHTNuYRsA0AkYeATQKYJ9fyoRSRa4gKM4LSsVHCcD6zKUUcoTm6QSPFtwAPA7sogfcKsXr64WF7PL163Tu4kU6deYMHTtxgp04eZJOnz1LFy5fpqu3bvF9S1p3TaBZ9n2oQSJ+J98P6o/wSYw/xjox8gLRFoaNuKhqXKAt431YyycO7KRtS6apq8zVQbgcLOYPBbnyfQCzyQFo5IvNtHvTCNR2BET5482/KpUlcYKyeLGgVKCzi14Zioj4UJQ80Tt9XCewVAWaJKDyuWqdzu21wP89bSOF3129cYOdPnGY9qxdBGuZlub1qCt9GWB+XZAr35yfI483Wcy1vWpMnzONwFcYAR79wV42UipLOpGyZI2qOFO1sH777hm7/0fVGYnfE0gNdqwq+QJa9rUbN3gkxv6Ny2jDrDxaNqY3h3IdWcsA8+OlufJFKAU6Jzv1X77C6WX6StMImEbAUCPAGPsPjL2yUPVLXCooFbeqci5++vSCwYFYExnCYCD8hqxq8QkA8sVdduXqFTp9/CDtXZ/PoSwVL6pDKH8uyJVfzM+Vj1iS18PRFJVhqKvDtB/TCHxDI8DD9Vjxz0plSbRQWjJBqVQcFZSK59phe5A8Xr1+SkV/IWtakma4lXzzJjt/7jQd27uVdi6fzeULsedfRl0UL4KVLE2IYd64NC+zLYoZmSrNfUMXk+lQTCNg7BFg7Pl/Q2o5pBBkLSqVJSdVwOZyCKzpF4rHTJ+Ked+VFa2SLCQH37WbN9j5c2foxIEdtGfNIl57ecX4/hySSL+uQ0sZ3/m+IE9+qiAnK3vZyCy3Rdkd/5OxzwPT/k0jYBqBb3wERCej4n8gIUapVCShcJOy9PkO5ecXt95/eP726YvHVHj/vih9qOoVf/NQVh0nl2uwfOcOu3bzBl26dJ7OnDgkHN6xnnYun0PrZ+Uh8uL/tncvMXFVcRzHE426UDe6Mj4WJqYLF2pi1Lh05SMmLiQatz6icM+l+GhSbePIPRchVFpbLNKGKvfcATpQykupFJQGBo2TilCgxfLQxMdKU2OiIXIu8r/zoKlxY8qrfBc33GQyd8585vLj8J/ziPJD4rJrYqz6RJJ8L1l+LhitJo1WB4znPppKlN20wW8XmocAAust0FW7++6uusThz1N1P6VPpJa++uKTONjGRjN2cmoiOnf+u2h6bq6wE3W2bptdbF5KBas73G3ldfKvGwfx/PfxWhfStsmpM9HYN19HmeEBO/xZu+1va7DdDXts6/u7omRlWbwbdlCe7yGvaSBLKP8VajURardOJpUYf/stiUTiqvX+zHl9BBDYJAKpoqKrG3a9sq0xUVxsykvaQ9/9sanqtcVUzc6l4we9pZ6PaqK+o4fsYHeTHenvspnhfjuaSdvxsdN2YnI8mjp3NhviMzPZIJ+bXxlrffGwvP84z4Z8fnz2vARvND07E19Tlv+cnDwTjY+djkYzIzaTHrAj/d12sLvZSpukbe0Hy6OjNTujpspXl0LfjTdZjcsV3pqHsQSybFl1QdZgNtqplnWYpa5MKG+SXwaaicBGFkglEtcar3Rb4DnPB57THGhnNvBKFvL1WQnApsqypZbqN6LU3jejY7WJqKO+wvYcec/2mgO2r6Xe9rcdsYMdxp7qbrZDva1xr3a4r8OmT3bakYHu+Eif7FpM93XEjw31ttlTPS12sDNpB459HAdvb1gr4Ws7D1Xa9g/eiVr3vRW17NkhIRyFFaVx2UDalD/M+oRx3I7stGtn1minXfb6C8pLH5TJJHzZt5HvdNqGwCYXkGFejZXuHcZzngq02mu0+jLQ6tfc3naFnmo2JKWEkC0jxGF+SWBKsOeOKPRdObK9Xenx5kczyHMuCt1/Xe+Saxael3/+2v1cMJ76IdTqRKiVZ3z1hDjV1790zSb/yGk+AghsRgHpDcpMtsZydZ/x3ReMVoeNVhlZ5tJotbiOYbkS8KsT0FKy+D3Q6qzx1XHjO7slkJPvlt3JyIvNeCfTZgS2gIDUVOXfeFOu7okX7tFuldHq0+Xz6bgGG+8gXRjnu9ohermubyWMjVbnZaU447v7pNSz3FN+SOrI9JC3wI3NW0TgShXYv19dJ6MUklo9IKEtY3wDz00aTw0bLTVa9VtuqNnlCtT/ex2ZsXch1Go+V7ZpkVKFTBSRMG7UZbfSO75S71LeFwIIFASkp51KFN8QJtRtUh6RUQ2hp140vvO28dWH8sVabvnMb41WM0arn3N1blkk6M9coP+dK6NID1dKDnLIuRzymIwvltXe/sj9EfjFaDUn06aNVkPGV51SkpEQDrTzcqDVk4F27pe6cUPVjhvZt6/wcXGCAAIIrAjIF5GyGJBM2pCea9Jz75KyifRkZdPT0Hcek/HDoaeeDrXzTOg7z8kR+O6zgXaK4i8wPffxwHMeWS5LPJz0t98r2z416+LbGytKbg6qX7+eNS1WvDlDAAEEEEAAAQQQQAABBBBAAAEEEEAAAQQQQAABBBBAAAEEEEAAAQQQQAABBBBAAAEEEEAAAQQQQAABBBBAAAEEEEAAAQQQQAABBBBAAAEEEEAAAQQQQAABBBBAAAEEEEAAAQQQQAABBBBAAAEEEEAAAQQQQAABBBBAAAEEEEAAAQQQQAABBBBAAAEEEEAAAQQQQAABBBBAAAEEEEAAAQQQQAABBBBAAAEEEEAAAQQQQAABBBBAAAEEEEAAAQQQQAABBBBAAAEEEEAAAQQQQAABBBBAAAEEEEAAAQQQQAABBBBAAAEEEEAAAQQQQAABBBBAAAEEEEAAAQQQQAABBBBAAAEEEEAAAQQQQAABBBBAAAEEEEAAAQQQQAABBBBAAAEEEEAAga0m8A+Lnglet5Y7zAAAAABJRU5ErkJggg==;" vertex="1" parent="7">
                    <mxGeometry x="60" y="110" width="200" height="200" as="geometry"/>
                </mxCell>
                <mxCell id="10" value="&lt;font style=&quot;font-size: 24px;&quot;&gt;## cookies&lt;/font&gt;" style="text;html=1;align=center;verticalAlign=middle;resizable=0;points=[];autosize=1;strokeColor=none;fillColor=none;" vertex="1" parent="7">
                    <mxGeometry x="80" y="320" width="140" height="40" as="geometry"/>
                </mxCell>
                <mxCell id="9" value="&lt;font style=&quot;font-size: 24px;&quot; color=&quot;#000000&quot;&gt;Cookie Clicker,with JS&lt;/font&gt;" style="text;html=1;align=center;verticalAlign=middle;resizable=0;points=[];autosize=1;strokeColor=none;fillColor=none;" vertex="1" parent="1">
                    <mxGeometry x="280" y="83" width="260" height="40" as="geometry"/>
                </mxCell>
                <mxCell id="11" value="" style="endArrow=none;html=1;" edge="1" parent="1">
                    <mxGeometry width="50" height="50" relative="1" as="geometry">
                        <mxPoint x="40" y="140" as="sourcePoint"/>
                        <mxPoint x="800" y="140" as="targetPoint"/>
                    </mxGeometry>
                </mxCell>
            </root>
        </mxGraphModel>
    </diagram>
</mxfile>